{
    "accessors": [
        {
            "bufferView": 0,
            "componentType": 5126,
            "count": 116,
            "max": [
                -0.021400000900030136,
                0.003994133789092302,
                0.014999999664723873
            ],
            "min": [
                -0.029400000348687172,
                -0.003994133789092302,
                0.001500000013038516
            ],
            "name": "mesh8_coord_accessor",
            "type": "VEC3"
        },
        {
            "bufferView": 1,
            "componentType": 5126,
            "count": 116,
            "max": [
                1.0,
                0.9985334277153015,
                -0.0
            ],
            "min": [
                -1.0,
                -0.9985334277153015,
                -0.0
            ],
            "name": "mesh8_norm_accessor",
            "type": "VEC3"
        },
        {
            "bufferView": 2,
            "componentType": 5125,
            "count": 348,
            "max": [
                115
            ],
            "min": [
                0
            ],
            "name": "mesh8_idx_accessor",
            "type": "SCALAR"
        },
        {
            "bufferView": 3,
            "componentType": 5126,
            "count": 257,
            "max": [
                -0.0013391324318945408,
                0.029398730024695396,
                0.001500000013038516
            ],
            "min": [
                -0.059697285294532776,
                -0.03639873117208481,
                0.001500000013038516
            ],
            "name": "mesh9_coord_accessor",
            "type": "VEC3"
        },
        {
            "bufferView": 4,
            "componentType": 5126,
            "count": 257,
            "max": [
                0.0,
                0.0,
                -1.0
            ],
            "min": [
                0.0,
                0.0,
                -1.0
            ],
            "name": "mesh9_norm_accessor",
            "type": "VEC3"
        },
        {
            "bufferView": 5,
            "componentType": 5125,
            "count": 789,
            "max": [
                256
            ],
            "min": [
                0
            ],
            "name": "mesh9_idx_accessor",
            "type": "SCALAR"
        },
        {
            "bufferView": 6,
            "componentType": 5126,
            "count": 42,
            "max": [
                -0.0013391324318945408,
                0.0030443130526691675,
                0.014999999664723873
            ],
            "min": [
                -0.003998518921434879,
                -0.0037691809702664614,
                0.001500000013038516
            ],
            "name": "mesh10_coord_accessor",
            "type": "VEC3"
        },
        {
            "bufferView": 7,
            "componentType": 5126,
            "count": 42,
            "max": [
                0.9996296763420105,
                0.9422951936721802,
                -0.0
            ],
            "min": [
                0.3347831070423126,
                -0.7610782980918884,
                -0.0
            ],
            "name": "mesh10_norm_accessor",
            "type": "VEC3"
        },
        {
            "bufferView": 8,
            "componentType": 5125,
            "count": 120,
            "max": [
                41
            ],
            "min": [
                0
            ],
            "name": "mesh10_idx_accessor",
            "type": "SCALAR"
        },
        {
            "bufferView": 9,
            "componentType": 5126,
            "count": 4,
            "max": [
                -0.0013391324318945408,
                -0.0037691809702664614,
                0.014999999664723873
            ],
            "min": [
                -0.012931913137435913,
                -0.03639873117208481,
                0.001500000013038516
            ],
            "name": "mesh11_coord_accessor",
            "type": "VEC3"
        },
        {
            "bufferView": 10,
            "componentType": 5126,
            "count": 4,
            "max": [
                0.9422951936721802,
                -0.3347831070423126,
                3.871707199943867e-17
            ],
            "min": [
                0.9422951936721802,
                -0.3347831070423126,
                3.871707199943867e-17
            ],
            "name": "mesh11_norm_accessor",
            "type": "VEC3"
        },
        {
            "bufferView": 11,
            "componentType": 5125,
            "count": 6,
            "max": [
                3
            ],
            "min": [
                0
            ],
            "name": "mesh11_idx_accessor",
            "type": "SCALAR"
        },
        {
            "bufferView": 12,
            "componentType": 5126,
            "count": 4,
            "max": [
                -0.012931913137435913,
                -0.01846497319638729,
                0.014999999664723873
            ],
            "min": [
                -0.04399409145116806,
                -0.03639873117208481,
                0.001500000013038516
            ],
            "name": "mesh12_coord_accessor",
            "type": "VEC3"
        },
        {
            "bufferView": 13,
            "componentType": 5126,
            "count": 4,
            "max": [
                -0.5,
                -0.8660253882408142,
                -0.0
            ],
            "min": [
                -0.5,
                -0.8660253882408142,
                -0.0
            ],
            "name": "mesh12_norm_accessor",
            "type": "VEC3"
        },
        {
            "bufferView": 14,
            "componentType": 5125,
            "count": 6,
            "max": [
                3
            ],
            "min": [
                0
            ],
            "name": "mesh12_idx_accessor",
            "type": "SCALAR"
        },
        {
            "bufferView": 15,
            "componentType": 5126,
            "count": 4,
            "max": [
                -0.04399409145116806,
                0.009398729540407658,
                0.014999999664723873
            ],
            "min": [
                -0.059697285294532776,
                -0.01846497319638729,
                0.001500000013038516
            ],
            "name": "mesh13_coord_accessor",
            "type": "VEC3"
        },
        {
            "bufferView": 16,
            "componentType": 5126,
            "count": 4,
            "max": [
                -0.8711763024330139,
                -0.49097031354904175,
                0.0
            ],
            "min": [
                -0.8711763024330139,
                -0.49097031354904175,
                0.0
            ],
            "name": "mesh13_norm_accessor",
            "type": "VEC3"
        },
        {
            "bufferView": 17,
            "componentType": 5125,
            "count": 6,
            "max": [
                3
            ],
            "min": [
                0
            ],
            "name": "mesh13_idx_accessor",
            "type": "SCALAR"
        },
        {
            "bufferView": 18,
            "componentType": 5126,
            "count": 4,
            "max": [
                -0.0025946402456611395,
                0.029398730024695396,
                0.014999999664723873
            ],
            "min": [
                -0.025056269019842148,
                0.0030443130526691675,
                0.001500000013038516
            ],
            "name": "mesh14_coord_accessor",
            "type": "VEC3"
        },
        {
            "bufferView": 19,
            "componentType": 5126,
            "count": 4,
            "max": [
                0.7610782980918884,
                0.6486600637435913,
                -0.0
            ],
            "min": [
                0.7610782980918884,
                0.6486600637435913,
                -0.0
            ],
            "name": "mesh14_norm_accessor",
            "type": "VEC3"
        },
        {
            "bufferView": 20,
            "componentType": 5125,
            "count": 6,
            "max": [
                3
            ],
            "min": [
                0
            ],
            "name": "mesh14_idx_accessor",
            "type": "SCALAR"
        },
        {
            "bufferView": 21,
            "componentType": 5126,
            "count": 4,
            "max": [
                -0.025056269019842148,
                0.029398730024695396,
                0.001500000013038516
            ],
            "min": [
                -0.059697285294532776,
                0.009398729540407658,
                -0.046701349318027496
            ],
            "name": "mesh15_coord_accessor",
            "type": "VEC3"
        },
        {
            "bufferView": 22,
            "componentType": 5126,
            "count": 4,
            "max": [
                0.5,
                -0.8660253882408142,
                0.0
            ],
            "min": [
                0.5,
                -0.8660253882408142,
                0.0
            ],
            "name": "mesh15_norm_accessor",
            "type": "VEC3"
        },
        {
            "bufferView": 23,
            "componentType": 5125,
            "count": 6,
            "max": [
                3
            ],
            "min": [
                0
            ],
            "name": "mesh15_idx_accessor",
            "type": "SCALAR"
        },
        {
            "bufferView": 24,
            "componentType": 5126,
            "count": 4,
            "max": [
                -0.025056269019842148,
                0.09045352041721344,
                -0.046701349318027496
            ],
            "min": [
                -0.09494728595018387,
                0.009398729540407658,
                -0.046701349318027496
            ],
            "name": "mesh16_coord_accessor",
            "type": "VEC3"
        },
        {
            "bufferView": 25,
            "componentType": 5126,
            "count": 4,
            "max": [
                0.0,
                0.0,
                -1.0
            ],
            "min": [
                0.0,
                0.0,
                -1.0
            ],
            "name": "mesh16_norm_accessor",
            "type": "VEC3"
        },
        {
            "bufferView": 26,
            "componentType": 5125,
            "count": 6,
            "max": [
                3
            ],
            "min": [
                0
            ],
            "name": "mesh16_idx_accessor",
            "type": "SCALAR"
        },
        {
            "bufferView": 27,
            "componentType": 5126,
            "count": 4,
            "max": [
                -0.06030626967549324,
                0.09045352041721344,
                0.014999999664723873
            ],
            "min": [
                -0.09494728595018387,
                0.07045351713895798,
                -0.046701349318027496
            ],
            "name": "mesh17_coord_accessor",
            "type": "VEC3"
        },
        {
            "bufferView": 28,
            "componentType": 5126,
            "count": 4,
            "max": [
                -0.5,
                0.8660253882408142,
                -0.0
            ],
            "min": [
                -0.5,
                0.8660253882408142,
                -0.0
            ],
            "name": "mesh17_norm_accessor",
            "type": "VEC3"
        },
        {
            "bufferView": 29,
            "componentType": 5125,
            "count": 6,
            "max": [
                3
            ],
            "min": [
                0
            ],
            "name": "mesh17_idx_accessor",
            "type": "SCALAR"
        },
        {
            "bufferView": 30,
            "componentType": 5126,
            "count": 116,
            "max": [
                -0.022404411807656288,
                0.01772896759212017,
                0.004999999888241291
            ],
            "min": [
                -0.030404413118958473,
                0.009740700013935566,
                0.001500000013038516
            ],
            "name": "mesh18_coord_accessor",
            "type": "VEC3"
        },
        {
            "bufferView": 31,
            "componentType": 5126,
            "count": 116,
            "max": [
                1.0,
                0.9985334277153015,
                0.0
            ],
            "min": [
                -1.0,
                -0.9985334277153015,
                0.0
            ],
            "name": "mesh18_norm_accessor",
            "type": "VEC3"
        },
        {
            "bufferView": 32,
            "componentType": 5125,
            "count": 348,
            "max": [
                115
            ],
            "min": [
                0
            ],
            "name": "mesh18_idx_accessor",
            "type": "SCALAR"
        },
        {
            "bufferView": 33,
            "componentType": 5126,
            "count": 116,
            "max": [
                -0.022404411807656288,
                0.01772896759212017,
                0.004999999888241291
            ],
            "min": [
                -0.030404413118958473,
                0.009740700013935566,
                0.004999999888241291
            ],
            "name": "mesh19_coord_accessor",
            "type": "VEC3"
        },
        {
            "bufferView": 34,
            "componentType": 5126,
            "count": 116,
            "max": [
                0.0,
                0.0,
                -1.0
            ],
            "min": [
                0.0,
                0.0,
                -1.0
            ],
            "name": "mesh19_norm_accessor",
            "type": "VEC3"
        },
        {
            "bufferView": 35,
            "componentType": 5125,
            "count": 348,
            "max": [
                115
            ],
            "min": [
                0
            ],
            "name": "mesh19_idx_accessor",
            "type": "SCALAR"
        },
        {
            "bufferView": 36,
            "componentType": 5126,
            "count": 116,
            "max": [
                -0.02485441230237484,
                0.015282560139894485,
                0.014999999664723873
            ],
            "min": [
                -0.02795441262423992,
                0.012187106534838676,
                0.004999999888241291
            ],
            "name": "mesh20_coord_accessor",
            "type": "VEC3"
        },
        {
            "bufferView": 37,
            "componentType": 5126,
            "count": 116,
            "max": [
                1.0,
                0.9985334277153015,
                0.0
            ],
            "min": [
                -1.0,
                -0.9985334277153015,
                0.0
            ],
            "name": "mesh20_norm_accessor",
            "type": "VEC3"
        },
        {
            "bufferView": 38,
            "componentType": 5125,
            "count": 348,
            "max": [
                115
            ],
            "min": [
                0
            ],
            "name": "mesh20_idx_accessor",
            "type": "SCALAR"
        },
        {
            "bufferView": 39,
            "componentType": 5126,
            "count": 116,
            "max": [
                -0.038278866559267044,
                -0.0011691950494423509,
                0.004999999888241291
            ],
            "min": [
                -0.04627886787056923,
                -0.009157462045550346,
                0.001500000013038516
            ],
            "name": "mesh21_coord_accessor",
            "type": "VEC3"
        },
        {
            "bufferView": 40,
            "componentType": 5126,
            "count": 116,
            "max": [
                1.0,
                0.9985334277153015,
                0.0
            ],
            "min": [
                -1.0,
                -0.9985334277153015,
                0.0
            ],
            "name": "mesh21_norm_accessor",
            "type": "VEC3"
        },
        {
            "bufferView": 41,
            "componentType": 5125,
            "count": 348,
            "max": [
                115
            ],
            "min": [
                0
            ],
            "name": "mesh21_idx_accessor",
            "type": "SCALAR"
        },
        {
            "bufferView": 42,
            "componentType": 5126,
            "count": 116,
            "max": [
                -0.038278866559267044,
                -0.0011691950494423509,
                0.004999999888241291
            ],
            "min": [
                -0.04627886787056923,
                -0.009157462045550346,
                0.004999999888241291
            ],
            "name": "mesh22_coord_accessor",
            "type": "VEC3"
        },
        {
            "bufferView": 43,
            "componentType": 5126,
            "count": 116,
            "max": [
                0.0,
                0.0,
                -1.0
            ],
            "min": [
                0.0,
                0.0,
                -1.0
            ],
            "name": "mesh22_norm_accessor",
            "type": "VEC3"
        },
        {
            "bufferView": 44,
            "componentType": 5125,
            "count": 348,
            "max": [
                115
            ],
            "min": [
                0
            ],
            "name": "mesh22_idx_accessor",
            "type": "SCALAR"
        },
        {
            "bufferView": 45,
            "componentType": 5126,
            "count": 116,
            "max": [
                -0.040728867053985596,
                -0.003615601919591427,
                0.014999999664723873
            ],
            "min": [
                -0.04382886737585068,
                -0.006711055524647236,
                0.004999999888241291
            ],
            "name": "mesh23_coord_accessor",
            "type": "VEC3"
        },
        {
            "bufferView": 46,
            "componentType": 5126,
            "count": 116,
            "max": [
                1.0,
                0.9985334277153015,
                0.0
            ],
            "min": [
                -1.0,
                -0.9985334277153015,
                0.0
            ],
            "name": "mesh23_norm_accessor",
            "type": "VEC3"
        },
        {
            "bufferView": 47,
            "componentType": 5125,
            "count": 348,
            "max": [
                115
            ],
            "min": [
                0
            ],
            "name": "mesh23_idx_accessor",
            "type": "SCALAR"
        },
        {
            "bufferView": 48,
            "componentType": 5126,
            "count": 259,
            "max": [
                -0.0013391324318945408,
                0.09045352041721344,
                0.014999999664723873
            ],
            "min": [
                -0.09494728595018387,
                -0.03639873117208481,
                0.014999999664723873
            ],
            "name": "mesh24_coord_accessor",
            "type": "VEC3"
        },
        {
            "bufferView": 49,
            "componentType": 5126,
            "count": 259,
            "max": [
                0.0,
                0.0,
                1.0
            ],
            "min": [
                0.0,
                0.0,
                1.0
            ],
            "name": "mesh24_norm_accessor",
            "type": "VEC3"
        },
        {
            "bufferView": 50,
            "componentType": 5125,
            "count": 795,
            "max": [
                258
            ],
            "min": [
                0
            ],
            "name": "mesh24_idx_accessor",
            "type": "SCALAR"
        },
        {
            "bufferView": 51,
            "componentType": 5126,
            "count": 116,
            "max": [
                -0.01646498776972294,
                -0.014883862808346748,
                0.004999999888241291
            ],
            "min": [
                -0.024464989081025124,
                -0.02287212945520878,
                0.001500000013038516
            ],
            "name": "mesh25_coord_accessor",
            "type": "VEC3"
        },
        {
            "bufferView": 52,
            "componentType": 5126,
            "count": 116,
            "max": [
                1.0,
                0.9985334277153015,
                0.0
            ],
            "min": [
                -1.0,
                -0.9985334277153015,
                0.0
            ],
            "name": "mesh25_norm_accessor",
            "type": "VEC3"
        },
        {
            "bufferView": 53,
            "componentType": 5125,
            "count": 348,
            "max": [
                115
            ],
            "min": [
                0
            ],
            "name": "mesh25_idx_accessor",
            "type": "SCALAR"
        },
        {
            "bufferView": 54,
            "componentType": 5126,
            "count": 116,
            "max": [
                -0.01646498776972294,
                -0.014883862808346748,
                0.004999999888241291
            ],
            "min": [
                -0.024464989081025124,
                -0.02287212945520878,
                0.004999999888241291
            ],
            "name": "mesh26_coord_accessor",
            "type": "VEC3"
        },
        {
            "bufferView": 55,
            "componentType": 5126,
            "count": 116,
            "max": [
                0.0,
                0.0,
                -1.0
            ],
            "min": [
                0.0,
                0.0,
                -1.0
            ],
            "name": "mesh26_norm_accessor",
            "type": "VEC3"
        },
        {
            "bufferView": 56,
            "componentType": 5125,
            "count": 348,
            "max": [
                115
            ],
            "min": [
                0
            ],
            "name": "mesh26_idx_accessor",
            "type": "SCALAR"
        },
        {
            "bufferView": 57,
            "componentType": 5126,
            "count": 116,
            "max": [
                -0.01891498826444149,
                -0.017330270260572433,
                0.014999999664723873
            ],
            "min": [
                -0.022014988586306572,
                -0.020425722002983093,
                0.004999999888241291
            ],
            "name": "mesh27_coord_accessor",
            "type": "VEC3"
        },
        {
            "bufferView": 58,
            "componentType": 5126,
            "count": 116,
            "max": [
                1.0,
                0.9985334277153015,
                0.0
            ],
            "min": [
                -1.0,
                -0.9985334277153015,
                0.0
            ],
            "name": "mesh27_norm_accessor",
            "type": "VEC3"
        },
        {
            "bufferView": 59,
            "componentType": 5125,
            "count": 348,
            "max": [
                115
            ],
            "min": [
                0
            ],
            "name": "mesh27_idx_accessor",
            "type": "SCALAR"
        },
        {
            "bufferView": 60,
            "componentType": 5126,
            "count": 9,
            "max": [
                -0.059697285294532776,
                0.07045351713895798,
                0.014999999664723873
            ],
            "min": [
                -0.09494728595018387,
                0.009398729540407658,
                -0.046701349318027496
            ],
            "name": "mesh28_coord_accessor",
            "type": "VEC3"
        },
        {
            "bufferView": 61,
            "componentType": 5126,
            "count": 9,
            "max": [
                -0.8660253882408142,
                -0.5,
                0.0
            ],
            "min": [
                -0.8660253882408142,
                -0.5,
                0.0
            ],
            "name": "mesh28_norm_accessor",
            "type": "VEC3"
        },
        {
            "bufferView": 62,
            "componentType": 5125,
            "count": 27,
            "max": [
                8
            ],
            "min": [
                0
            ],
            "name": "mesh28_idx_accessor",
            "type": "SCALAR"
        },
        {
            "bufferView": 63,
            "componentType": 5126,
            "count": 4,
            "max": [
                -0.07486715912818909,
                0.04567372053861618,
                -0.011701349169015884
            ],
            "min": [
                -0.07919728755950928,
                0.04317371919751167,
                -0.036701347678899765
            ],
            "name": "mesh29_coord_accessor",
            "type": "VEC3"
        },
        {
            "bufferView": 64,
            "componentType": 5126,
            "count": 4,
            "max": [
                0.5,
                -0.8660253882408142,
                0.0
            ],
            "min": [
                0.5,
                -0.8660253882408142,
                0.0
            ],
            "name": "mesh29_norm_accessor",
            "type": "VEC3"
        },
        {
            "bufferView": 65,
            "componentType": 5125,
            "count": 6,
            "max": [
                3
            ],
            "min": [
                0
            ],
            "name": "mesh29_idx_accessor",
            "type": "SCALAR"
        },
        {
            "bufferView": 66,
            "componentType": 5126,
            "count": 4,
            "max": [
                -0.07486715912818909,
                0.0642932653427124,
                -0.011701349169015884
            ],
            "min": [
                -0.08561715483665466,
                0.04567372053861618,
                -0.036701347678899765
            ],
            "name": "mesh30_coord_accessor",
            "type": "VEC3"
        },
        {
            "bufferView": 67,
            "componentType": 5126,
            "count": 4,
            "max": [
                0.8660253882408142,
                0.5,
                -0.0
            ],
            "min": [
                0.8660253882408142,
                0.5,
                -0.0
            ],
            "name": "mesh30_norm_accessor",
            "type": "VEC3"
        },
        {
            "bufferView": 68,
            "componentType": 5125,
            "count": 6,
            "max": [
                3
            ],
            "min": [
                0
            ],
            "name": "mesh30_idx_accessor",
            "type": "SCALAR"
        },
        {
            "bufferView": 69,
            "componentType": 5126,
            "count": 4,
            "max": [
                -0.055306266993284225,
                0.08179326355457306,
                -0.011701349169015884
            ],
            "min": [
                -0.08561715483665466,
                0.0642932653427124,
                -0.036701347678899765
            ],
            "name": "mesh31_coord_accessor",
            "type": "VEC3"
        },
        {
            "bufferView": 70,
            "componentType": 5126,
            "count": 4,
            "max": [
                0.5,
                -0.8660253882408142,
                0.0
            ],
            "min": [
                0.5,
                -0.8660253882408142,
                0.0
            ],
            "name": "mesh31_norm_accessor",
            "type": "VEC3"
        },
        {
            "bufferView": 71,
            "componentType": 5125,
            "count": 6,
            "max": [
                3
            ],
            "min": [
                0
            ],
            "name": "mesh31_idx_accessor",
            "type": "SCALAR"
        },
        {
            "bufferView": 72,
            "componentType": 5126,
            "count": 9,
            "max": [
                -0.025056269019842148,
                0.09045352041721344,
                0.014999999664723873
            ],
            "min": [
                -0.06030626967549324,
                0.029398730024695396,
                -0.046701349318027496
            ],
            "name": "mesh32_coord_accessor",
            "type": "VEC3"
        },
        {
            "bufferView": 73,
            "componentType": 5126,
            "count": 9,
            "max": [
                0.8660253882408142,
                0.5,
                -0.0
            ],
            "min": [
                0.8660253882408142,
                0.5,
                -0.0
            ],
            "name": "mesh32_norm_accessor",
            "type": "VEC3"
        },
        {
            "bufferView": 74,
            "componentType": 5125,
            "count": 27,
            "max": [
                8
            ],
            "min": [
                0
            ],
            "name": "mesh32_idx_accessor",
            "type": "SCALAR"
        },
        {
            "bufferView": 75,
            "componentType": 5126,
            "count": 8,
            "max": [
                -0.03255626931786537,
                0.08179326355457306,
                -0.036701347678899765
            ],
            "min": [
                -0.08561715483665466,
                0.024889111518859863,
                -0.036701347678899765
            ],
            "name": "mesh33_coord_accessor",
            "type": "VEC3"
        },
        {
            "bufferView": 76,
            "componentType": 5126,
            "count": 8,
            "max": [
                -0.0,
                -0.0,
                1.0
            ],
            "min": [
                -0.0,
                -0.0,
                1.0
            ],
            "name": "mesh33_norm_accessor",
            "type": "VEC3"
        },
        {
            "bufferView": 77,
            "componentType": 5125,
            "count": 18,
            "max": [
                7
            ],
            "min": [
                0
            ],
            "name": "mesh33_idx_accessor",
            "type": "SCALAR"
        },
        {
            "bufferView": 78,
            "componentType": 5126,
            "count": 8,
            "max": [
                -0.03255626931786537,
                0.08179326355457306,
                -0.011701349169015884
            ],
            "min": [
                -0.08561715483665466,
                0.024889111518859863,
                -0.011701349169015884
            ],
            "name": "mesh34_coord_accessor",
            "type": "VEC3"
        },
        {
            "bufferView": 79,
            "componentType": 5126,
            "count": 8,
            "max": [
                0.0,
                0.0,
                -1.0
            ],
            "min": [
                0.0,
                0.0,
                -1.0
            ],
            "name": "mesh34_norm_accessor",
            "type": "VEC3"
        },
        {
            "bufferView": 80,
            "componentType": 5125,
            "count": 18,
            "max": [
                7
            ],
            "min": [
                0
            ],
            "name": "mesh34_idx_accessor",
            "type": "SCALAR"
        },
        {
            "bufferView": 81,
            "componentType": 5126,
            "count": 4,
            "max": [
                -0.07186716049909592,
                0.04047756642103195,
                -0.011701349169015884
            ],
            "min": [
                -0.07619728147983551,
                0.03797756880521774,
                -0.036701347678899765
            ],
            "name": "mesh35_coord_accessor",
            "type": "VEC3"
        },
        {
            "bufferView": 82,
            "componentType": 5126,
            "count": 4,
            "max": [
                -0.5,
                0.8660253882408142,
                -0.0
            ],
            "min": [
                -0.5,
                0.8660253882408142,
                -0.0
            ],
            "name": "mesh35_norm_accessor",
            "type": "VEC3"
        },
        {
            "bufferView": 83,
            "componentType": 5125,
            "count": 6,
            "max": [
                3
            ],
            "min": [
                0
            ],
            "name": "mesh35_idx_accessor",
            "type": "SCALAR"
        },
        {
            "bufferView": 84,
            "componentType": 5126,
            "count": 4,
            "max": [
                -0.06286715716123581,
                0.04047756642103195,
                -0.011701349169015884
            ],
            "min": [
                -0.07186716049909592,
                0.024889111518859863,
                -0.036701347678899765
            ],
            "name": "mesh36_coord_accessor",
            "type": "VEC3"
        },
        {
            "bufferView": 85,
            "componentType": 5126,
            "count": 4,
            "max": [
                0.8660253882408142,
                0.5,
                -0.0
            ],
            "min": [
                0.8660253882408142,
                0.5,
                -0.0
            ],
            "name": "mesh36_norm_accessor",
            "type": "VEC3"
        },
        {
            "bufferView": 86,
            "componentType": 5125,
            "count": 6,
            "max": [
                3
            ],
            "min": [
                0
            ],
            "name": "mesh36_idx_accessor",
            "type": "SCALAR"
        },
        {
            "bufferView": 87,
            "componentType": 5126,
            "count": 4,
            "max": [
                -0.03255626931786537,
                0.04238910973072052,
                -0.011701349169015884
            ],
            "min": [
                -0.06286715716123581,
                0.024889111518859863,
                -0.036701347678899765
            ],
            "name": "mesh37_coord_accessor",
            "type": "VEC3"
        },
        {
            "bufferView": 88,
            "componentType": 5126,
            "count": 4,
            "max": [
                -0.5,
                0.8660253882408142,
                -0.0
            ],
            "min": [
                -0.5,
                0.8660253882408142,
                -0.0
            ],
            "name": "mesh37_norm_accessor",
            "type": "VEC3"
        },
        {
            "bufferView": 89,
            "componentType": 5125,
            "count": 6,
            "max": [
                3
            ],
            "min": [
                0
            ],
            "name": "mesh37_idx_accessor",
            "type": "SCALAR"
        }
    ],
    "asset": {
        "generator": "ONSHAPE BY PTC INC, 1.221",
        "version": "2.0"
    },
    "bufferViews": [
        {
            "buffer": 0,
            "byteLength": 1392,
            "name": "mesh8_coord_bufferView",
            "target": 34962
        },
        {
            "buffer": 0,
            "byteLength": 1392,
            "byteOffset": 1392,
            "name": "mesh8_norm_bufferView",
            "target": 34962
        },
        {
            "buffer": 0,
            "byteLength": 1392,
            "byteOffset": 2784,
            "name": "mesh8_idx_bufferView",
            "target": 34963
        },
        {
            "buffer": 0,
            "byteLength": 3084,
            "byteOffset": 4176,
            "name": "mesh9_coord_bufferView",
            "target": 34962
        },
        {
            "buffer": 0,
            "byteLength": 3084,
            "byteOffset": 7260,
            "name": "mesh9_norm_bufferView",
            "target": 34962
        },
        {
            "buffer": 0,
            "byteLength": 3156,
            "byteOffset": 10344,
            "name": "mesh9_idx_bufferView",
            "target": 34963
        },
        {
            "buffer": 0,
            "byteLength": 504,
            "byteOffset": 13500,
            "name": "mesh10_coord_bufferView",
            "target": 34962
        },
        {
            "buffer": 0,
            "byteLength": 504,
            "byteOffset": 14004,
            "name": "mesh10_norm_bufferView",
            "target": 34962
        },
        {
            "buffer": 0,
            "byteLength": 480,
            "byteOffset": 14508,
            "name": "mesh10_idx_bufferView",
            "target": 34963
        },
        {
            "buffer": 0,
            "byteLength": 48,
            "byteOffset": 14988,
            "name": "mesh11_coord_bufferView",
            "target": 34962
        },
        {
            "buffer": 0,
            "byteLength": 48,
            "byteOffset": 15036,
            "name": "mesh11_norm_bufferView",
            "target": 34962
        },
        {
            "buffer": 0,
            "byteLength": 24,
            "byteOffset": 15084,
            "name": "mesh11_idx_bufferView",
            "target": 34963
        },
        {
            "buffer": 0,
            "byteLength": 48,
            "byteOffset": 15108,
            "name": "mesh12_coord_bufferView",
            "target": 34962
        },
        {
            "buffer": 0,
            "byteLength": 48,
            "byteOffset": 15156,
            "name": "mesh12_norm_bufferView",
            "target": 34962
        },
        {
            "buffer": 0,
            "byteLength": 24,
            "byteOffset": 15204,
            "name": "mesh12_idx_bufferView",
            "target": 34963
        },
        {
            "buffer": 0,
            "byteLength": 48,
            "byteOffset": 15228,
            "name": "mesh13_coord_bufferView",
            "target": 34962
        },
        {
            "buffer": 0,
            "byteLength": 48,
            "byteOffset": 15276,
            "name": "mesh13_norm_bufferView",
            "target": 34962
        },
        {
            "buffer": 0,
            "byteLength": 24,
            "byteOffset": 15324,
            "name": "mesh13_idx_bufferView",
            "target": 34963
        },
        {
            "buffer": 0,
            "byteLength": 48,
            "byteOffset": 15348,
            "name": "mesh14_coord_bufferView",
            "target": 34962
        },
        {
            "buffer": 0,
            "byteLength": 48,
            "byteOffset": 15396,
            "name": "mesh14_norm_bufferView",
            "target": 34962
        },
        {
            "buffer": 0,
            "byteLength": 24,
            "byteOffset": 15444,
            "name": "mesh14_idx_bufferView",
            "target": 34963
        },
        {
            "buffer": 0,
            "byteLength": 48,
            "byteOffset": 15468,
            "name": "mesh15_coord_bufferView",
            "target": 34962
        },
        {
            "buffer": 0,
            "byteLength": 48,
            "byteOffset": 15516,
            "name": "mesh15_norm_bufferView",
            "target": 34962
        },
        {
            "buffer": 0,
            "byteLength": 24,
            "byteOffset": 15564,
            "name": "mesh15_idx_bufferView",
            "target": 34963
        },
        {
            "buffer": 0,
            "byteLength": 48,
            "byteOffset": 15588,
            "name": "mesh16_coord_bufferView",
            "target": 34962
        },
        {
            "buffer": 0,
            "byteLength": 48,
            "byteOffset": 15636,
            "name": "mesh16_norm_bufferView",
            "target": 34962
        },
        {
            "buffer": 0,
            "byteLength": 24,
            "byteOffset": 15684,
            "name": "mesh16_idx_bufferView",
            "target": 34963
        },
        {
            "buffer": 0,
            "byteLength": 48,
            "byteOffset": 15708,
            "name": "mesh17_coord_bufferView",
            "target": 34962
        },
        {
            "buffer": 0,
            "byteLength": 48,
            "byteOffset": 15756,
            "name": "mesh17_norm_bufferView",
            "target": 34962
        },
        {
            "buffer": 0,
            "byteLength": 24,
            "byteOffset": 15804,
            "name": "mesh17_idx_bufferView",
            "target": 34963
        },
        {
            "buffer": 0,
            "byteLength": 1392,
            "byteOffset": 15828,
            "name": "mesh18_coord_bufferView",
            "target": 34962
        },
        {
            "buffer": 0,
            "byteLength": 1392,
            "byteOffset": 17220,
            "name": "mesh18_norm_bufferView",
            "target": 34962
        },
        {
            "buffer": 0,
            "byteLength": 1392,
            "byteOffset": 18612,
            "name": "mesh18_idx_bufferView",
            "target": 34963
        },
        {
            "buffer": 0,
            "byteLength": 1392,
            "byteOffset": 20004,
            "name": "mesh19_coord_bufferView",
            "target": 34962
        },
        {
            "buffer": 0,
            "byteLength": 1392,
            "byteOffset": 21396,
            "name": "mesh19_norm_bufferView",
            "target": 34962
        },
        {
            "buffer": 0,
            "byteLength": 1392,
            "byteOffset": 22788,
            "name": "mesh19_idx_bufferView",
            "target": 34963
        },
        {
            "buffer": 0,
            "byteLength": 1392,
            "byteOffset": 24180,
            "name": "mesh20_coord_bufferView",
            "target": 34962
        },
        {
            "buffer": 0,
            "byteLength": 1392,
            "byteOffset": 25572,
            "name": "mesh20_norm_bufferView",
            "target": 34962
        },
        {
            "buffer": 0,
            "byteLength": 1392,
            "byteOffset": 26964,
            "name": "mesh20_idx_bufferView",
            "target": 34963
        },
        {
            "buffer": 0,
            "byteLength": 1392,
            "byteOffset": 28356,
            "name": "mesh21_coord_bufferView",
            "target": 34962
        },
        {
            "buffer": 0,
            "byteLength": 1392,
            "byteOffset": 29748,
            "name": "mesh21_norm_bufferView",
            "target": 34962
        },
        {
            "buffer": 0,
            "byteLength": 1392,
            "byteOffset": 31140,
            "name": "mesh21_idx_bufferView",
            "target": 34963
        },
        {
            "buffer": 0,
            "byteLength": 1392,
            "byteOffset": 32532,
            "name": "mesh22_coord_bufferView",
            "target": 34962
        },
        {
            "buffer": 0,
            "byteLength": 1392,
            "byteOffset": 33924,
            "name": "mesh22_norm_bufferView",
            "target": 34962
        },
        {
            "buffer": 0,
            "byteLength": 1392,
            "byteOffset": 35316,
            "name": "mesh22_idx_bufferView",
            "target": 34963
        },
        {
            "buffer": 0,
            "byteLength": 1392,
            "byteOffset": 36708,
            "name": "mesh23_coord_bufferView",
            "target": 34962
        },
        {
            "buffer": 0,
            "byteLength": 1392,
            "byteOffset": 38100,
            "name": "mesh23_norm_bufferView",
            "target": 34962
        },
        {
            "buffer": 0,
            "byteLength": 1392,
            "byteOffset": 39492,
            "name": "mesh23_idx_bufferView",
            "target": 34963
        },
        {
            "buffer": 0,
            "byteLength": 3108,
            "byteOffset": 40884,
            "name": "mesh24_coord_bufferView",
            "target": 34962
        },
        {
            "buffer": 0,
            "byteLength": 3108,
            "byteOffset": 43992,
            "name": "mesh24_norm_bufferView",
            "target": 34962
        },
        {
            "buffer": 0,
            "byteLength": 3180,
            "byteOffset": 47100,
            "name": "mesh24_idx_bufferView",
            "target": 34963
        },
        {
            "buffer": 0,
            "byteLength": 1392,
            "byteOffset": 50280,
            "name": "mesh25_coord_bufferView",
            "target": 34962
        },
        {
            "buffer": 0,
            "byteLength": 1392,
            "byteOffset": 51672,
            "name": "mesh25_norm_bufferView",
            "target": 34962
        },
        {
            "buffer": 0,
            "byteLength": 1392,
            "byteOffset": 53064,
            "name": "mesh25_idx_bufferView",
            "target": 34963
        },
        {
            "buffer": 0,
            "byteLength": 1392,
            "byteOffset": 54456,
            "name": "mesh26_coord_bufferView",
            "target": 34962
        },
        {
            "buffer": 0,
            "byteLength": 1392,
            "byteOffset": 55848,
            "name": "mesh26_norm_bufferView",
            "target": 34962
        },
        {
            "buffer": 0,
            "byteLength": 1392,
            "byteOffset": 57240,
            "name": "mesh26_idx_bufferView",
            "target": 34963
        },
        {
            "buffer": 0,
            "byteLength": 1392,
            "byteOffset": 58632,
            "name": "mesh27_coord_bufferView",
            "target": 34962
        },
        {
            "buffer": 0,
            "byteLength": 1392,
            "byteOffset": 60024,
            "name": "mesh27_norm_bufferView",
            "target": 34962
        },
        {
            "buffer": 0,
            "byteLength": 1392,
            "byteOffset": 61416,
            "name": "mesh27_idx_bufferView",
            "target": 34963
        },
        {
            "buffer": 0,
            "byteLength": 108,
            "byteOffset": 62808,
            "name": "mesh28_coord_bufferView",
            "target": 34962
        },
        {
            "buffer": 0,
            "byteLength": 108,
            "byteOffset": 62916,
            "name": "mesh28_norm_bufferView",
            "target": 34962
        },
        {
            "buffer": 0,
            "byteLength": 108,
            "byteOffset": 63024,
            "name": "mesh28_idx_bufferView",
            "target": 34963
        },
        {
            "buffer": 0,
            "byteLength": 48,
            "byteOffset": 63132,
            "name": "mesh29_coord_bufferView",
            "target": 34962
        },
        {
            "buffer": 0,
            "byteLength": 48,
            "byteOffset": 63180,
            "name": "mesh29_norm_bufferView",
            "target": 34962
        },
        {
            "buffer": 0,
            "byteLength": 24,
            "byteOffset": 63228,
            "name": "mesh29_idx_bufferView",
            "target": 34963
        },
        {
            "buffer": 0,
            "byteLength": 48,
            "byteOffset": 63252,
            "name": "mesh30_coord_bufferView",
            "target": 34962
        },
        {
            "buffer": 0,
            "byteLength": 48,
            "byteOffset": 63300,
            "name": "mesh30_norm_bufferView",
            "target": 34962
        },
        {
            "buffer": 0,
            "byteLength": 24,
            "byteOffset": 63348,
            "name": "mesh30_idx_bufferView",
            "target": 34963
        },
        {
            "buffer": 0,
            "byteLength": 48,
            "byteOffset": 63372,
            "name": "mesh31_coord_bufferView",
            "target": 34962
        },
        {
            "buffer": 0,
            "byteLength": 48,
            "byteOffset": 63420,
            "name": "mesh31_norm_bufferView",
            "target": 34962
        },
        {
            "buffer": 0,
            "byteLength": 24,
            "byteOffset": 63468,
            "name": "mesh31_idx_bufferView",
            "target": 34963
        },
        {
            "buffer": 0,
            "byteLength": 108,
            "byteOffset": 63492,
            "name": "mesh32_coord_bufferView",
            "target": 34962
        },
        {
            "buffer": 0,
            "byteLength": 108,
            "byteOffset": 63600,
            "name": "mesh32_norm_bufferView",
            "target": 34962
        },
        {
            "buffer": 0,
            "byteLength": 108,
            "byteOffset": 63708,
            "name": "mesh32_idx_bufferView",
            "target": 34963
        },
        {
            "buffer": 0,
            "byteLength": 96,
            "byteOffset": 63816,
            "name": "mesh33_coord_bufferView",
            "target": 34962
        },
        {
            "buffer": 0,
            "byteLength": 96,
            "byteOffset": 63912,
            "name": "mesh33_norm_bufferView",
            "target": 34962
        },
        {
            "buffer": 0,
            "byteLength": 72,
            "byteOffset": 64008,
            "name": "mesh33_idx_bufferView",
            "target": 34963
        },
        {
            "buffer": 0,
            "byteLength": 96,
            "byteOffset": 64080,
            "name": "mesh34_coord_bufferView",
            "target": 34962
        },
        {
            "buffer": 0,
            "byteLength": 96,
            "byteOffset": 64176,
            "name": "mesh34_norm_bufferView",
            "target": 34962
        },
        {
            "buffer": 0,
            "byteLength": 72,
            "byteOffset": 64272,
            "name": "mesh34_idx_bufferView",
            "target": 34963
        },
        {
            "buffer": 0,
            "byteLength": 48,
            "byteOffset": 64344,
            "name": "mesh35_coord_bufferView",
            "target": 34962
        },
        {
            "buffer": 0,
            "byteLength": 48,
            "byteOffset": 64392,
            "name": "mesh35_norm_bufferView",
            "target": 34962
        },
        {
            "buffer": 0,
            "byteLength": 24,
            "byteOffset": 64440,
            "name": "mesh35_idx_bufferView",
            "target": 34963
        },
        {
            "buffer": 0,
            "byteLength": 48,
            "byteOffset": 64464,
            "name": "mesh36_coord_bufferView",
            "target": 34962
        },
        {
            "buffer": 0,
            "byteLength": 48,
            "byteOffset": 64512,
            "name": "mesh36_norm_bufferView",
            "target": 34962
        },
        {
            "buffer": 0,
            "byteLength": 24,
            "byteOffset": 64560,
            "name": "mesh36_idx_bufferView",
            "target": 34963
        },
        {
            "buffer": 0,
            "byteLength": 48,
            "byteOffset": 64584,
            "name": "mesh37_coord_bufferView",
            "target": 34962
        },
        {
            "buffer": 0,
            "byteLength": 48,
            "byteOffset": 64632,
            "name": "mesh37_norm_bufferView",
            "target": 34962
        },
        {
            "buffer": 0,
            "byteLength": 24,
            "byteOffset": 64680,
            "name": "mesh37_idx_bufferView",
            "target": 34963
        }
    ],
    "buffers": [
        {
            "byteLength": 64704,
            "name": "Total_buffer",
            "uri": "data:application/octet-stream;base64,"
        }
    ],
    "extensionsUsed": [
        "PTC_onshape_metadata"
    ],
    "materials": [
        {
            "doubleSided": true,
            "name": "0.231373_0.380392_0.705882_0.000000_0.000000",
            "pbrMetallicRoughness": {
                "baseColorFactor": [
                    0.23137255012989044,
                    0.3803921639919281,
                    0.7058823704719543,
                    1.0
                ],
                "metallicFactor": 0.0
            }
        },
        {
            "doubleSided": true,
            "name": "0.615686_0.811765_0.929412_0.000000_0.000000",
            "pbrMetallicRoughness": {
                "baseColorFactor": [
                    0.615686297416687,
                    0.8117647171020508,
                    0.929411768913269,
                    1.0
                ],
                "metallicFactor": 0.0
            }
        },
        {
            "doubleSided": true,
            "name": "0.647059_0.647059_0.647059_0.000000_0.000000",
            "pbrMetallicRoughness": {
                "baseColorFactor": [
                    0.6470588445663452,
                    0.6470588445663452,
                    0.6470588445663452,
                    1.0
                ],
                "metallicFactor": 0.0
            }
        }
    ],
    "meshes": [
        {
            "name": "mesh8_mesh",
            "primitives": [
                {
                    "attributes": {
                        "NORMAL": 1,
                        "POSITION": 0
                    },
                    "indices": 2,
                    "material": 1
                }
            ]
        },
        {
            "name": "mesh9_mesh",
            "primitives": [
                {
                    "attributes": {
                        "NORMAL": 4,
                        "POSITION": 3
                    },
                    "indices": 5,
                    "material": 1
                }
            ]
        },
        {
            "name": "mesh10_mesh",
            "primitives": [
                {
                    "attributes": {
                        "NORMAL": 7,
                        "POSITION": 6
                    },
                    "indices": 8,
                    "material": 1
                }
            ]
        },
        {
            "name": "mesh11_mesh",
            "primitives": [
                {
                    "attributes": {
                        "NORMAL": 10,
                        "POSITION": 9
                    },
                    "indices": 11,
                    "material": 1
                }
            ]
        },
        {
            "name": "mesh12_mesh",
            "primitives": [
                {
                    "attributes": {
                        "NORMAL": 13,
                        "POSITION": 12
                    },
                    "indices": 14,
                    "material": 1
                }
            ]
        },
        {
            "name": "mesh13_mesh",
            "primitives": [
                {
                    "attributes": {
                        "NORMAL": 16,
                        "POSITION": 15
                    },
                    "indices": 17,
                    "material": 1
                }
            ]
        },
        {
            "name": "mesh14_mesh",
            "primitives": [
                {
                    "attributes": {
                        "NORMAL": 19,
                        "POSITION": 18
                    },
                    "indices": 20,
                    "material": 1
                }
            ]
        },
        {
            "name": "mesh15_mesh",
            "primitives": [
                {
                    "attributes": {
                        "NORMAL": 22,
                        "POSITION": 21
                    },
                    "indices": 23,
                    "material": 1
                }
            ]
        },
        {
            "name": "mesh16_mesh",
            "primitives": [
                {
                    "attributes": {
                        "NORMAL": 25,
                        "POSITION": 24
                    },
                    "indices": 26,
                    "material": 1
                }
            ]
        },
        {
            "name": "mesh17_mesh",
            "primitives": [
                {
                    "attributes": {
                        "NORMAL": 28,
                        "POSITION": 27
                    },
                    "indices": 29,
                    "material": 1
                }
            ]
        },
        {
            "name": "mesh18_mesh",
            "primitives": [
                {
                    "attributes": {
                        "NORMAL": 31,
                        "POSITION": 30
                    },
                    "indices": 32,
                    "material": 1
                }
            ]
        },
        {
            "name": "mesh19_mesh",
            "primitives": [
                {
                    "attributes": {
                        "NORMAL": 34,
                        "POSITION": 33
                    },
                    "indices": 35,
                    "material": 1
                }
            ]
        },
        {
            "name": "mesh20_mesh",
            "primitives": [
                {
                    "attributes": {
                        "NORMAL": 37,
                        "POSITION": 36
                    },
                    "indices": 38,
                    "material": 1
                }
            ]
        },
        {
            "name": "mesh21_mesh",
            "primitives": [
                {
                    "attributes": {
                        "NORMAL": 40,
                        "POSITION": 39
                    },
                    "indices": 41,
                    "material": 1
                }
            ]
        },
        {
            "name": "mesh22_mesh",
            "primitives": [
                {
                    "attributes": {
                        "NORMAL": 43,
                        "POSITION": 42
                    },
                    "indices": 44,
                    "material": 1
                }
            ]
        },
        {
            "name": "mesh23_mesh",
            "primitives": [
                {
                    "attributes": {
                        "NORMAL": 46,
                        "POSITION": 45
                    },
                    "indices": 47,
                    "material": 1
                }
            ]
        },
        {
            "name": "mesh24_mesh",
            "primitives": [
                {
                    "attributes": {
                        "NORMAL": 49,
                        "POSITION": 48
                    },
                    "indices": 50,
                    "material": 1
                }
            ]
        },
        {
            "name": "mesh25_mesh",
            "primitives": [
                {
                    "attributes": {
                        "NORMAL": 52,
                        "POSITION": 51
                    },
                    "indices": 53,
                    "material": 1
                }
            ]
        },
        {
            "name": "mesh26_mesh",
            "primitives": [
                {
                    "attributes": {
                        "NORMAL": 55,
                        "POSITION": 54
                    },
                    "indices": 56,
                    "material": 1
                }
            ]
        },
        {
            "name": "mesh27_mesh",
            "primitives": [
                {
                    "attributes": {
                        "NORMAL": 58,
                        "POSITION": 57
                    },
                    "indices": 59,
                    "material": 1
                }
            ]
        },
        {
            "name": "mesh28_mesh",
            "primitives": [
                {
                    "attributes": {
                        "NORMAL": 61,
                        "POSITION": 60
                    },
                    "indices": 62,
                    "material": 1
                }
            ]
        },
        {
            "name": "mesh29_mesh",
            "primitives": [
                {
                    "attributes": {
                        "NORMAL": 64,
                        "POSITION": 63
                    },
                    "indices": 65,
                    "material": 1
                }
            ]
        },
        {
            "name": "mesh30_mesh",
            "primitives": [
                {
                    "attributes": {
                        "NORMAL": 67,
                        "POSITION": 66
                    },
                    "indices": 68,
                    "material": 1
                }
            ]
        },
        {
            "name": "mesh31_mesh",
            "primitives": [
                {
                    "attributes": {
                        "NORMAL": 70,
                        "POSITION": 69
                    },
                    "indices": 71,
                    "material": 1
                }
            ]
        },
        {
            "name": "mesh32_mesh",
            "primitives": [
                {
                    "attributes": {
                        "NORMAL": 73,
                        "POSITION": 72
                    },
                    "indices": 74,
                    "material": 1
                }
            ]
        },
        {
            "name": "mesh33_mesh",
            "primitives": [
                {
                    "attributes": {
                        "NORMAL": 76,
                        "POSITION": 75
                    },
                    "indices": 77,
                    "material": 1
                }
            ]
        },
        {
            "name": "mesh34_mesh",
            "primitives": [
                {
                    "attributes": {
                        "NORMAL": 79,
                        "POSITION": 78
                    },
                    "indices": 80,
                    "material": 1
                }
            ]
        },
        {
            "name": "mesh35_mesh",
            "primitives": [
                {
                    "attributes": {
                        "NORMAL": 82,
                        "POSITION": 81
                    },
                    "indices": 83,
                    "material": 1
                }
            ]
        },
        {
            "name": "mesh36_mesh",
            "primitives": [
                {
                    "attributes": {
                        "NORMAL": 85,
                        "POSITION": 84
                    },
                    "indices": 86,
                    "material": 1
                }
            ]
        },
        {
            "name": "mesh37_mesh",
            "primitives": [
                {
                    "attributes": {
                        "NORMAL": 88,
                        "POSITION": 87
                    },
                    "indices": 89,
                    "material": 1
                }
            ]
        }
    ],
    "nodes": [
        {
            "mesh": 0,
            "name": "mesh8"
        },
        {
            "mesh": 1,
            "name": "mesh9"
        },
        {
            "mesh": 2,
            "name": "mesh10"
        },
        {
            "mesh": 3,
            "name": "mesh11"
        },
        {
            "mesh": 4,
            "name": "mesh12"
        },
        {
            "mesh": 5,
            "name": "mesh13"
        },
        {
            "mesh": 6,
            "name": "mesh14"
        },
        {
            "mesh": 7,
            "name": "mesh15"
        },
        {
            "mesh": 8,
            "name": "mesh16"
        },
        {
            "mesh": 9,
            "name": "mesh17"
        },
        {
            "mesh": 10,
            "name": "mesh18"
        },
        {
            "mesh": 11,
            "name": "mesh19"
        },
        {
            "mesh": 12,
            "name": "mesh20"
        },
        {
            "mesh": 13,
            "name": "mesh21"
        },
        {
            "mesh": 14,
            "name": "mesh22"
        },
        {
            "mesh": 15,
            "name": "mesh23"
        },
        {
            "mesh": 16,
            "name": "mesh24"
        },
        {
            "mesh": 17,
            "name": "mesh25"
        },
        {
            "mesh": 18,
            "name": "mesh26"
        },
        {
            "mesh": 19,
            "name": "mesh27"
        },
        {
            "mesh": 20,
            "name": "mesh28"
        },
        {
            "mesh": 21,
            "name": "mesh29"
        },
        {
            "mesh": 22,
            "name": "mesh30"
        },
        {
            "mesh": 23,
            "name": "mesh31"
        },
        {
            "mesh": 24,
            "name": "mesh32"
        },
        {
            "mesh": 25,
            "name": "mesh33"
        },
        {
            "mesh": 26,
            "name": "mesh34"
        },
        {
            "mesh": 27,
            "name": "mesh35"
        },
        {
            "mesh": 28,
            "name": "mesh36"
        },
        {
            "mesh": 29,
            "name": "mesh37"
        }
    ],
    "scene": 0,
    "scenes": [
        {
            "name": "Root",
            "nodes": [
                0,
                1,
                2,
                3,
                4,
                5,
                6,
                7,
                8,
                9,
                10,
                11,
                12,
                13,
                14,
                15,
                16,
                17,
                18,
                19,
                20,
                21,
                22,
                23,
                24,
                25,
                26,
                27,
                28,
                29
            ]
        }
    ]
}