{
    "accessors": [
        {
            "bufferView": 0,
            "componentType": 5126,
            "count": 116,
            "max": [
                0.004000000189989805,
                0.003994133789092302,
                0.6603999733924866
            ],
            "min": [
                -0.004000000189989805,
                -0.003994133789092302,
                0.6223000288009644
            ],
            "name": "mesh60_coord_accessor",
            "type": "VEC3"
        },
        {
            "bufferView": 1,
            "componentType": 5126,
            "count": 116,
            "max": [
                1.0,
                0.9985334277153015,
                -0.0
            ],
            "min": [
                -1.0,
                -0.9985334277153015,
                -0.0
            ],
            "name": "mesh60_norm_accessor",
            "type": "VEC3"
        },
        {
            "bufferView": 2,
            "componentType": 5125,
            "count": 348,
            "max": [
                115
            ],
            "min": [
                0
            ],
            "name": "mesh60_idx_accessor",
            "type": "SCALAR"
        },
        {
            "bufferView": 3,
            "componentType": 5126,
            "count": 62,
            "max": [
                0.24695704877376556,
                0.24695704877376556,
                0.6603999733924866
            ],
            "min": [
                -0.24695704877376556,
                -0.24695704877376556,
                0.6603999733924866
            ],
            "name": "mesh61_coord_accessor",
            "type": "VEC3"
        },
        {
            "bufferView": 4,
            "componentType": 5126,
            "count": 62,
            "max": [
                0.0,
                0.0,
                1.0
            ],
            "min": [
                0.0,
                0.0,
                1.0
            ],
            "name": "mesh61_norm_accessor",
            "type": "VEC3"
        },
        {
            "bufferView": 5,
            "componentType": 5125,
            "count": 186,
            "max": [
                61
            ],
            "min": [
                0
            ],
            "name": "mesh61_idx_accessor",
            "type": "SCALAR"
        },
        {
            "bufferView": 6,
            "componentType": 5126,
            "count": 4,
            "max": [
                0.24695704877376556,
                0.24695704877376556,
                0.6603999733924866
            ],
            "min": [
                0.18409524857997894,
                0.18409524857997894,
                0.01269999984651804
            ],
            "name": "mesh62_coord_accessor",
            "type": "VEC3"
        },
        {
            "bufferView": 7,
            "componentType": 5126,
            "count": 4,
            "max": [
                0.7071067690849304,
                0.7071067690849304,
                0.0
            ],
            "min": [
                0.7071067690849304,
                0.7071067690849304,
                0.0
            ],
            "name": "mesh62_norm_accessor",
            "type": "VEC3"
        },
        {
            "bufferView": 8,
            "componentType": 5125,
            "count": 6,
            "max": [
                3
            ],
            "min": [
                0
            ],
            "name": "mesh62_idx_accessor",
            "type": "SCALAR"
        },
        {
            "bufferView": 9,
            "componentType": 5126,
            "count": 4,
            "max": [
                -0.18409524857997894,
                -0.18409524857997894,
                0.6603999733924866
            ],
            "min": [
                -0.24695704877376556,
                -0.24695704877376556,
                0.01269999984651804
            ],
            "name": "mesh63_coord_accessor",
            "type": "VEC3"
        },
        {
            "bufferView": 10,
            "componentType": 5126,
            "count": 4,
            "max": [
                -0.7071067690849304,
                -0.7071067690849304,
                0.0
            ],
            "min": [
                -0.7071067690849304,
                -0.7071067690849304,
                0.0
            ],
            "name": "mesh63_norm_accessor",
            "type": "VEC3"
        },
        {
            "bufferView": 11,
            "componentType": 5125,
            "count": 6,
            "max": [
                3
            ],
            "min": [
                0
            ],
            "name": "mesh63_idx_accessor",
            "type": "SCALAR"
        },
        {
            "bufferView": 12,
            "componentType": 5126,
            "count": 8,
            "max": [
                0.18409524857997894,
                0.24695704877376556,
                0.6603999733924866
            ],
            "min": [
                -0.24695704877376556,
                -0.18409524857997894,
                0.01269999984651804
            ],
            "name": "mesh64_coord_accessor",
            "type": "VEC3"
        },
        {
            "bufferView": 13,
            "componentType": 5126,
            "count": 8,
            "max": [
                -0.7071067690849304,
                0.7071067690849304,
                0.0
            ],
            "min": [
                -0.7071067690849304,
                0.7071067690849304,
                0.0
            ],
            "name": "mesh64_norm_accessor",
            "type": "VEC3"
        },
        {
            "bufferView": 14,
            "componentType": 5125,
            "count": 18,
            "max": [
                7
            ],
            "min": [
                0
            ],
            "name": "mesh64_idx_accessor",
            "type": "SCALAR"
        },
        {
            "bufferView": 15,
            "componentType": 5126,
            "count": 8,
            "max": [
                0.24695704877376556,
                0.18409524857997894,
                0.6603999733924866
            ],
            "min": [
                -0.18409524857997894,
                -0.24695704877376556,
                0.01269999984651804
            ],
            "name": "mesh65_coord_accessor",
            "type": "VEC3"
        },
        {
            "bufferView": 16,
            "componentType": 5126,
            "count": 8,
            "max": [
                0.7071067690849304,
                -0.7071067690849304,
                0.0
            ],
            "min": [
                0.7071067690849304,
                -0.7071067690849304,
                0.0
            ],
            "name": "mesh65_norm_accessor",
            "type": "VEC3"
        },
        {
            "bufferView": 17,
            "componentType": 5125,
            "count": 18,
            "max": [
                7
            ],
            "min": [
                0
            ],
            "name": "mesh65_idx_accessor",
            "type": "SCALAR"
        },
        {
            "bufferView": 18,
            "componentType": 5126,
            "count": 62,
            "max": [
                0.22001627087593079,
                0.22001627087593079,
                0.6223000288009644
            ],
            "min": [
                -0.22001627087593079,
                -0.22001627087593079,
                0.6223000288009644
            ],
            "name": "mesh66_coord_accessor",
            "type": "VEC3"
        },
        {
            "bufferView": 19,
            "componentType": 5126,
            "count": 62,
            "max": [
                -0.0,
                -0.0,
                -1.0
            ],
            "min": [
                -0.0,
                -0.0,
                -1.0
            ],
            "name": "mesh66_norm_accessor",
            "type": "VEC3"
        },
        {
            "bufferView": 20,
            "componentType": 5125,
            "count": 186,
            "max": [
                61
            ],
            "min": [
                0
            ],
            "name": "mesh66_idx_accessor",
            "type": "SCALAR"
        },
        {
            "bufferView": 21,
            "componentType": 5126,
            "count": 4,
            "max": [
                0.22001627087593079,
                0.22001627087593079,
                0.6223000288009644
            ],
            "min": [
                0.15715448558330536,
                0.15715448558330536,
                0.01269999984651804
            ],
            "name": "mesh67_coord_accessor",
            "type": "VEC3"
        },
        {
            "bufferView": 22,
            "componentType": 5126,
            "count": 4,
            "max": [
                -0.7071067690849304,
                -0.7071067690849304,
                0.0
            ],
            "min": [
                -0.7071067690849304,
                -0.7071067690849304,
                0.0
            ],
            "name": "mesh67_norm_accessor",
            "type": "VEC3"
        },
        {
            "bufferView": 23,
            "componentType": 5125,
            "count": 6,
            "max": [
                3
            ],
            "min": [
                0
            ],
            "name": "mesh67_idx_accessor",
            "type": "SCALAR"
        },
        {
            "bufferView": 24,
            "componentType": 5126,
            "count": 4,
            "max": [
                -0.15715448558330536,
                -0.15715448558330536,
                0.6223000288009644
            ],
            "min": [
                -0.22001627087593079,
                -0.22001627087593079,
                0.01269999984651804
            ],
            "name": "mesh68_coord_accessor",
            "type": "VEC3"
        },
        {
            "bufferView": 25,
            "componentType": 5126,
            "count": 4,
            "max": [
                0.7071067690849304,
                0.7071067690849304,
                0.0
            ],
            "min": [
                0.7071067690849304,
                0.7071067690849304,
                0.0
            ],
            "name": "mesh68_norm_accessor",
            "type": "VEC3"
        },
        {
            "bufferView": 26,
            "componentType": 5125,
            "count": 6,
            "max": [
                3
            ],
            "min": [
                0
            ],
            "name": "mesh68_idx_accessor",
            "type": "SCALAR"
        },
        {
            "bufferView": 27,
            "componentType": 5126,
            "count": 15,
            "max": [
                0.30480000376701355,
                0.30480000376701355,
                0.01269999984651804
            ],
            "min": [
                -0.30480000376701355,
                -0.30480000376701355,
                0.01269999984651804
            ],
            "name": "mesh69_coord_accessor",
            "type": "VEC3"
        },
        {
            "bufferView": 28,
            "componentType": 5126,
            "count": 15,
            "max": [
                0.0,
                0.0,
                1.0
            ],
            "min": [
                0.0,
                0.0,
                1.0
            ],
            "name": "mesh69_norm_accessor",
            "type": "VEC3"
        },
        {
            "bufferView": 29,
            "componentType": 5125,
            "count": 51,
            "max": [
                14
            ],
            "min": [
                0
            ],
            "name": "mesh69_idx_accessor",
            "type": "SCALAR"
        },
        {
            "bufferView": 30,
            "componentType": 5126,
            "count": 4,
            "max": [
                -0.30480000376701355,
                0.30480000376701355,
                0.01269999984651804
            ],
            "min": [
                -0.30480000376701355,
                -0.30480000376701355,
                -0.08889999985694885
            ],
            "name": "mesh70_coord_accessor",
            "type": "VEC3"
        },
        {
            "bufferView": 31,
            "componentType": 5126,
            "count": 4,
            "max": [
                -1.0,
                -0.0,
                -0.0
            ],
            "min": [
                -1.0,
                -0.0,
                -0.0
            ],
            "name": "mesh70_norm_accessor",
            "type": "VEC3"
        },
        {
            "bufferView": 32,
            "componentType": 5125,
            "count": 6,
            "max": [
                3
            ],
            "min": [
                0
            ],
            "name": "mesh70_idx_accessor",
            "type": "SCALAR"
        },
        {
            "bufferView": 33,
            "componentType": 5126,
            "count": 4,
            "max": [
                -0.26669999957084656,
                0.30480000376701355,
                -0.08889999985694885
            ],
            "min": [
                -0.30480000376701355,
                -0.30480000376701355,
                -0.08889999985694885
            ],
            "name": "mesh71_coord_accessor",
            "type": "VEC3"
        },
        {
            "bufferView": 34,
            "componentType": 5126,
            "count": 4,
            "max": [
                0.0,
                0.0,
                -1.0
            ],
            "min": [
                0.0,
                0.0,
                -1.0
            ],
            "name": "mesh71_norm_accessor",
            "type": "VEC3"
        },
        {
            "bufferView": 35,
            "componentType": 5125,
            "count": 6,
            "max": [
                3
            ],
            "min": [
                0
            ],
            "name": "mesh71_idx_accessor",
            "type": "SCALAR"
        },
        {
            "bufferView": 36,
            "componentType": 5126,
            "count": 4,
            "max": [
                -0.26669999957084656,
                0.30480000376701355,
                0.0
            ],
            "min": [
                -0.26669999957084656,
                -0.30480000376701355,
                -0.08889999985694885
            ],
            "name": "mesh72_coord_accessor",
            "type": "VEC3"
        },
        {
            "bufferView": 37,
            "componentType": 5126,
            "count": 4,
            "max": [
                1.0,
                0.0,
                0.0
            ],
            "min": [
                1.0,
                0.0,
                0.0
            ],
            "name": "mesh72_norm_accessor",
            "type": "VEC3"
        },
        {
            "bufferView": 38,
            "componentType": 5125,
            "count": 6,
            "max": [
                3
            ],
            "min": [
                0
            ],
            "name": "mesh72_idx_accessor",
            "type": "SCALAR"
        },
        {
            "bufferView": 39,
            "componentType": 5126,
            "count": 4,
            "max": [
                0.26669999957084656,
                0.30480000376701355,
                0.0
            ],
            "min": [
                -0.26669999957084656,
                -0.30480000376701355,
                0.0
            ],
            "name": "mesh73_coord_accessor",
            "type": "VEC3"
        },
        {
            "bufferView": 40,
            "componentType": 5126,
            "count": 4,
            "max": [
                0.0,
                0.0,
                -1.0
            ],
            "min": [
                0.0,
                0.0,
                -1.0
            ],
            "name": "mesh73_norm_accessor",
            "type": "VEC3"
        },
        {
            "bufferView": 41,
            "componentType": 5125,
            "count": 6,
            "max": [
                3
            ],
            "min": [
                0
            ],
            "name": "mesh73_idx_accessor",
            "type": "SCALAR"
        },
        {
            "bufferView": 42,
            "componentType": 5126,
            "count": 8,
            "max": [
                0.30480000376701355,
                0.30480000376701355,
                0.01269999984651804
            ],
            "min": [
                -0.30480000376701355,
                0.30480000376701355,
                -0.08889999985694885
            ],
            "name": "mesh74_coord_accessor",
            "type": "VEC3"
        },
        {
            "bufferView": 43,
            "componentType": 5126,
            "count": 8,
            "max": [
                -0.0,
                1.0,
                -0.0
            ],
            "min": [
                -0.0,
                1.0,
                -0.0
            ],
            "name": "mesh74_norm_accessor",
            "type": "VEC3"
        },
        {
            "bufferView": 44,
            "componentType": 5125,
            "count": 18,
            "max": [
                7
            ],
            "min": [
                0
            ],
            "name": "mesh74_idx_accessor",
            "type": "SCALAR"
        },
        {
            "bufferView": 45,
            "componentType": 5126,
            "count": 4,
            "max": [
                0.26669999957084656,
                0.30480000376701355,
                0.0
            ],
            "min": [
                0.26669999957084656,
                -0.30480000376701355,
                -0.08889999985694885
            ],
            "name": "mesh75_coord_accessor",
            "type": "VEC3"
        },
        {
            "bufferView": 46,
            "componentType": 5126,
            "count": 4,
            "max": [
                -1.0,
                1.8212320096710729e-16,
                0.0
            ],
            "min": [
                -1.0,
                1.8212320096710729e-16,
                0.0
            ],
            "name": "mesh75_norm_accessor",
            "type": "VEC3"
        },
        {
            "bufferView": 47,
            "componentType": 5125,
            "count": 6,
            "max": [
                3
            ],
            "min": [
                0
            ],
            "name": "mesh75_idx_accessor",
            "type": "SCALAR"
        },
        {
            "bufferView": 48,
            "componentType": 5126,
            "count": 4,
            "max": [
                0.30480000376701355,
                0.30480000376701355,
                -0.08889999985694885
            ],
            "min": [
                0.26669999957084656,
                -0.30480000376701355,
                -0.08889999985694885
            ],
            "name": "mesh76_coord_accessor",
            "type": "VEC3"
        },
        {
            "bufferView": 49,
            "componentType": 5126,
            "count": 4,
            "max": [
                0.0,
                0.0,
                -1.0
            ],
            "min": [
                0.0,
                0.0,
                -1.0
            ],
            "name": "mesh76_norm_accessor",
            "type": "VEC3"
        },
        {
            "bufferView": 50,
            "componentType": 5125,
            "count": 6,
            "max": [
                3
            ],
            "min": [
                0
            ],
            "name": "mesh76_idx_accessor",
            "type": "SCALAR"
        },
        {
            "bufferView": 51,
            "componentType": 5126,
            "count": 9,
            "max": [
                0.30480000376701355,
                -0.30480000376701355,
                0.01269999984651804
            ],
            "min": [
                -0.30480000376701355,
                -0.30480000376701355,
                -0.08889999985694885
            ],
            "name": "mesh77_coord_accessor",
            "type": "VEC3"
        },
        {
            "bufferView": 52,
            "componentType": 5126,
            "count": 9,
            "max": [
                0.0,
                -1.0,
                0.0
            ],
            "min": [
                0.0,
                -1.0,
                0.0
            ],
            "name": "mesh77_norm_accessor",
            "type": "VEC3"
        },
        {
            "bufferView": 53,
            "componentType": 5125,
            "count": 21,
            "max": [
                8
            ],
            "min": [
                0
            ],
            "name": "mesh77_idx_accessor",
            "type": "SCALAR"
        },
        {
            "bufferView": 54,
            "componentType": 5126,
            "count": 5,
            "max": [
                0.30480000376701355,
                0.30480000376701355,
                0.01269999984651804
            ],
            "min": [
                0.30480000376701355,
                -0.30480000376701355,
                -0.08889999985694885
            ],
            "name": "mesh78_coord_accessor",
            "type": "VEC3"
        },
        {
            "bufferView": 55,
            "componentType": 5126,
            "count": 5,
            "max": [
                1.0,
                0.0,
                0.0
            ],
            "min": [
                1.0,
                0.0,
                0.0
            ],
            "name": "mesh78_norm_accessor",
            "type": "VEC3"
        },
        {
            "bufferView": 56,
            "componentType": 5125,
            "count": 9,
            "max": [
                4
            ],
            "min": [
                0
            ],
            "name": "mesh78_idx_accessor",
            "type": "SCALAR"
        },
        {
            "bufferView": 57,
            "componentType": 5126,
            "count": 4,
            "max": [
                0.27785924077033997,
                -0.21499744057655334,
                0.16509999334812164
            ],
            "min": [
                0.21499744057655334,
                -0.27785924077033997,
                0.01269999984651804
            ],
            "name": "mesh79_coord_accessor",
            "type": "VEC3"
        },
        {
            "bufferView": 58,
            "componentType": 5126,
            "count": 4,
            "max": [
                -0.7071067690849304,
                0.7071067690849304,
                0.0
            ],
            "min": [
                -0.7071067690849304,
                0.7071067690849304,
                0.0
            ],
            "name": "mesh79_norm_accessor",
            "type": "VEC3"
        },
        {
            "bufferView": 59,
            "componentType": 5125,
            "count": 6,
            "max": [
                3
            ],
            "min": [
                0
            ],
            "name": "mesh79_idx_accessor",
            "type": "SCALAR"
        },
        {
            "bufferView": 60,
            "componentType": 5126,
            "count": 4,
            "max": [
                0.30480000376701355,
                -0.21499744057655334,
                0.16509999334812164
            ],
            "min": [
                0.27785924077033997,
                -0.24193820357322693,
                0.01269999984651804
            ],
            "name": "mesh80_coord_accessor",
            "type": "VEC3"
        },
        {
            "bufferView": 61,
            "componentType": 5126,
            "count": 4,
            "max": [
                0.7071067690849304,
                0.7071067690849304,
                0.0
            ],
            "min": [
                0.7071067690849304,
                0.7071067690849304,
                0.0
            ],
            "name": "mesh80_norm_accessor",
            "type": "VEC3"
        },
        {
            "bufferView": 62,
            "componentType": 5125,
            "count": 6,
            "max": [
                3
            ],
            "min": [
                0
            ],
            "name": "mesh80_idx_accessor",
            "type": "SCALAR"
        },
        {
            "bufferView": 63,
            "componentType": 5126,
            "count": 4,
            "max": [
                0.30480000376701355,
                -0.24193820357322693,
                0.16509999334812164
            ],
            "min": [
                0.24193820357322693,
                -0.30480000376701355,
                0.01269999984651804
            ],
            "name": "mesh81_coord_accessor",
            "type": "VEC3"
        },
        {
            "bufferView": 64,
            "componentType": 5126,
            "count": 4,
            "max": [
                0.7071067690849304,
                -0.7071067690849304,
                0.0
            ],
            "min": [
                0.7071067690849304,
                -0.7071067690849304,
                0.0
            ],
            "name": "mesh81_norm_accessor",
            "type": "VEC3"
        },
        {
            "bufferView": 65,
            "componentType": 5125,
            "count": 6,
            "max": [
                3
            ],
            "min": [
                0
            ],
            "name": "mesh81_idx_accessor",
            "type": "SCALAR"
        },
        {
            "bufferView": 66,
            "componentType": 5126,
            "count": 4,
            "max": [
                0.24193820357322693,
                -0.27785924077033997,
                0.16509999334812164
            ],
            "min": [
                0.21499744057655334,
                -0.30480000376701355,
                0.01269999984651804
            ],
            "name": "mesh82_coord_accessor",
            "type": "VEC3"
        },
        {
            "bufferView": 67,
            "componentType": 5126,
            "count": 4,
            "max": [
                -0.7071067690849304,
                -0.7071067690849304,
                0.0
            ],
            "min": [
                -0.7071067690849304,
                -0.7071067690849304,
                0.0
            ],
            "name": "mesh82_norm_accessor",
            "type": "VEC3"
        },
        {
            "bufferView": 68,
            "componentType": 5125,
            "count": 6,
            "max": [
                3
            ],
            "min": [
                0
            ],
            "name": "mesh82_idx_accessor",
            "type": "SCALAR"
        },
        {
            "bufferView": 69,
            "componentType": 5126,
            "count": 4,
            "max": [
                0.30480000376701355,
                -0.21499744057655334,
                0.16509999334812164
            ],
            "min": [
                0.21499744057655334,
                -0.30480000376701355,
                0.16509999334812164
            ],
            "name": "mesh83_coord_accessor",
            "type": "VEC3"
        },
        {
            "bufferView": 70,
            "componentType": 5126,
            "count": 4,
            "max": [
                0.0,
                0.0,
                1.0
            ],
            "min": [
                0.0,
                0.0,
                1.0
            ],
            "name": "mesh83_norm_accessor",
            "type": "VEC3"
        },
        {
            "bufferView": 71,
            "componentType": 5125,
            "count": 6,
            "max": [
                3
            ],
            "min": [
                0
            ],
            "name": "mesh83_idx_accessor",
            "type": "SCALAR"
        },
        {
            "bufferView": 72,
            "componentType": 5126,
            "count": 3,
            "max": [
                0.30480000376701355,
                -0.24193820357322693,
                0.01269999984651804
            ],
            "min": [
                0.24193820357322693,
                -0.30480000376701355,
                0.01269999984651804
            ],
            "name": "mesh84_coord_accessor",
            "type": "VEC3"
        },
        {
            "bufferView": 73,
            "componentType": 5126,
            "count": 3,
            "max": [
                0.0,
                0.0,
                1.0
            ],
            "min": [
                0.0,
                0.0,
                1.0
            ],
            "name": "mesh84_norm_accessor",
            "type": "VEC3"
        },
        {
            "bufferView": 74,
            "componentType": 5125,
            "count": 3,
            "max": [
                2
            ],
            "min": [
                0
            ],
            "name": "mesh84_idx_accessor",
            "type": "SCALAR"
        }
    ],
    "asset": {
        "generator": "ONSHAPE BY PTC INC, 1.221",
        "version": "2.0"
    },
    "bufferViews": [
        {
            "buffer": 0,
            "byteLength": 1392,
            "name": "mesh60_coord_bufferView",
            "target": 34962
        },
        {
            "buffer": 0,
            "byteLength": 1392,
            "byteOffset": 1392,
            "name": "mesh60_norm_bufferView",
            "target": 34962
        },
        {
            "buffer": 0,
            "byteLength": 1392,
            "byteOffset": 2784,
            "name": "mesh60_idx_bufferView",
            "target": 34963
        },
        {
            "buffer": 0,
            "byteLength": 744,
            "byteOffset": 4176,
            "name": "mesh61_coord_bufferView",
            "target": 34962
        },
        {
            "buffer": 0,
            "byteLength": 744,
            "byteOffset": 4920,
            "name": "mesh61_norm_bufferView",
            "target": 34962
        },
        {
            "buffer": 0,
            "byteLength": 744,
            "byteOffset": 5664,
            "name": "mesh61_idx_bufferView",
            "target": 34963
        },
        {
            "buffer": 0,
            "byteLength": 48,
            "byteOffset": 6408,
            "name": "mesh62_coord_bufferView",
            "target": 34962
        },
        {
            "buffer": 0,
            "byteLength": 48,
            "byteOffset": 6456,
            "name": "mesh62_norm_bufferView",
            "target": 34962
        },
        {
            "buffer": 0,
            "byteLength": 24,
            "byteOffset": 6504,
            "name": "mesh62_idx_bufferView",
            "target": 34963
        },
        {
            "buffer": 0,
            "byteLength": 48,
            "byteOffset": 6528,
            "name": "mesh63_coord_bufferView",
            "target": 34962
        },
        {
            "buffer": 0,
            "byteLength": 48,
            "byteOffset": 6576,
            "name": "mesh63_norm_bufferView",
            "target": 34962
        },
        {
            "buffer": 0,
            "byteLength": 24,
            "byteOffset": 6624,
            "name": "mesh63_idx_bufferView",
            "target": 34963
        },
        {
            "buffer": 0,
            "byteLength": 96,
            "byteOffset": 6648,
            "name": "mesh64_coord_bufferView",
            "target": 34962
        },
        {
            "buffer": 0,
            "byteLength": 96,
            "byteOffset": 6744,
            "name": "mesh64_norm_bufferView",
            "target": 34962
        },
        {
            "buffer": 0,
            "byteLength": 72,
            "byteOffset": 6840,
            "name": "mesh64_idx_bufferView",
            "target": 34963
        },
        {
            "buffer": 0,
            "byteLength": 96,
            "byteOffset": 6912,
            "name": "mesh65_coord_bufferView",
            "target": 34962
        },
        {
            "buffer": 0,
            "byteLength": 96,
            "byteOffset": 7008,
            "name": "mesh65_norm_bufferView",
            "target": 34962
        },
        {
            "buffer": 0,
            "byteLength": 72,
            "byteOffset": 7104,
            "name": "mesh65_idx_bufferView",
            "target": 34963
        },
        {
            "buffer": 0,
            "byteLength": 744,
            "byteOffset": 7176,
            "name": "mesh66_coord_bufferView",
            "target": 34962
        },
        {
            "buffer": 0,
            "byteLength": 744,
            "byteOffset": 7920,
            "name": "mesh66_norm_bufferView",
            "target": 34962
        },
        {
            "buffer": 0,
            "byteLength": 744,
            "byteOffset": 8664,
            "name": "mesh66_idx_bufferView",
            "target": 34963
        },
        {
            "buffer": 0,
            "byteLength": 48,
            "byteOffset": 9408,
            "name": "mesh67_coord_bufferView",
            "target": 34962
        },
        {
            "buffer": 0,
            "byteLength": 48,
            "byteOffset": 9456,
            "name": "mesh67_norm_bufferView",
            "target": 34962
        },
        {
            "buffer": 0,
            "byteLength": 24,
            "byteOffset": 9504,
            "name": "mesh67_idx_bufferView",
            "target": 34963
        },
        {
            "buffer": 0,
            "byteLength": 48,
            "byteOffset": 9528,
            "name": "mesh68_coord_bufferView",
            "target": 34962
        },
        {
            "buffer": 0,
            "byteLength": 48,
            "byteOffset": 9576,
            "name": "mesh68_norm_bufferView",
            "target": 34962
        },
        {
            "buffer": 0,
            "byteLength": 24,
            "byteOffset": 9624,
            "name": "mesh68_idx_bufferView",
            "target": 34963
        },
        {
            "buffer": 0,
            "byteLength": 180,
            "byteOffset": 9648,
            "name": "mesh69_coord_bufferView",
            "target": 34962
        },
        {
            "buffer": 0,
            "byteLength": 180,
            "byteOffset": 9828,
            "name": "mesh69_norm_bufferView",
            "target": 34962
        },
        {
            "buffer": 0,
            "byteLength": 204,
            "byteOffset": 10008,
            "name": "mesh69_idx_bufferView",
            "target": 34963
        },
        {
            "buffer": 0,
            "byteLength": 48,
            "byteOffset": 10212,
            "name": "mesh70_coord_bufferView",
            "target": 34962
        },
        {
            "buffer": 0,
            "byteLength": 48,
            "byteOffset": 10260,
            "name": "mesh70_norm_bufferView",
            "target": 34962
        },
        {
            "buffer": 0,
            "byteLength": 24,
            "byteOffset": 10308,
            "name": "mesh70_idx_bufferView",
            "target": 34963
        },
        {
            "buffer": 0,
            "byteLength": 48,
            "byteOffset": 10332,
            "name": "mesh71_coord_bufferView",
            "target": 34962
        },
        {
            "buffer": 0,
            "byteLength": 48,
            "byteOffset": 10380,
            "name": "mesh71_norm_bufferView",
            "target": 34962
        },
        {
            "buffer": 0,
            "byteLength": 24,
            "byteOffset": 10428,
            "name": "mesh71_idx_bufferView",
            "target": 34963
        },
        {
            "buffer": 0,
            "byteLength": 48,
            "byteOffset": 10452,
            "name": "mesh72_coord_bufferView",
            "target": 34962
        },
        {
            "buffer": 0,
            "byteLength": 48,
            "byteOffset": 10500,
            "name": "mesh72_norm_bufferView",
            "target": 34962
        },
        {
            "buffer": 0,
            "byteLength": 24,
            "byteOffset": 10548,
            "name": "mesh72_idx_bufferView",
            "target": 34963
        },
        {
            "buffer": 0,
            "byteLength": 48,
            "byteOffset": 10572,
            "name": "mesh73_coord_bufferView",
            "target": 34962
        },
        {
            "buffer": 0,
            "byteLength": 48,
            "byteOffset": 10620,
            "name": "mesh73_norm_bufferView",
            "target": 34962
        },
        {
            "buffer": 0,
            "byteLength": 24,
            "byteOffset": 10668,
            "name": "mesh73_idx_bufferView",
            "target": 34963
        },
        {
            "buffer": 0,
            "byteLength": 96,
            "byteOffset": 10692,
            "name": "mesh74_coord_bufferView",
            "target": 34962
        },
        {
            "buffer": 0,
            "byteLength": 96,
            "byteOffset": 10788,
            "name": "mesh74_norm_bufferView",
            "target": 34962
        },
        {
            "buffer": 0,
            "byteLength": 72,
            "byteOffset": 10884,
            "name": "mesh74_idx_bufferView",
            "target": 34963
        },
        {
            "buffer": 0,
            "byteLength": 48,
            "byteOffset": 10956,
            "name": "mesh75_coord_bufferView",
            "target": 34962
        },
        {
            "buffer": 0,
            "byteLength": 48,
            "byteOffset": 11004,
            "name": "mesh75_norm_bufferView",
            "target": 34962
        },
        {
            "buffer": 0,
            "byteLength": 24,
            "byteOffset": 11052,
            "name": "mesh75_idx_bufferView",
            "target": 34963
        },
        {
            "buffer": 0,
            "byteLength": 48,
            "byteOffset": 11076,
            "name": "mesh76_coord_bufferView",
            "target": 34962
        },
        {
            "buffer": 0,
            "byteLength": 48,
            "byteOffset": 11124,
            "name": "mesh76_norm_bufferView",
            "target": 34962
        },
        {
            "buffer": 0,
            "byteLength": 24,
            "byteOffset": 11172,
            "name": "mesh76_idx_bufferView",
            "target": 34963
        },
        {
            "buffer": 0,
            "byteLength": 108,
            "byteOffset": 11196,
            "name": "mesh77_coord_bufferView",
            "target": 34962
        },
        {
            "buffer": 0,
            "byteLength": 108,
            "byteOffset": 11304,
            "name": "mesh77_norm_bufferView",
            "target": 34962
        },
        {
            "buffer": 0,
            "byteLength": 84,
            "byteOffset": 11412,
            "name": "mesh77_idx_bufferView",
            "target": 34963
        },
        {
            "buffer": 0,
            "byteLength": 60,
            "byteOffset": 11496,
            "name": "mesh78_coord_bufferView",
            "target": 34962
        },
        {
            "buffer": 0,
            "byteLength": 60,
            "byteOffset": 11556,
            "name": "mesh78_norm_bufferView",
            "target": 34962
        },
        {
            "buffer": 0,
            "byteLength": 36,
            "byteOffset": 11616,
            "name": "mesh78_idx_bufferView",
            "target": 34963
        },
        {
            "buffer": 0,
            "byteLength": 48,
            "byteOffset": 11652,
            "name": "mesh79_coord_bufferView",
            "target": 34962
        },
        {
            "buffer": 0,
            "byteLength": 48,
            "byteOffset": 11700,
            "name": "mesh79_norm_bufferView",
            "target": 34962
        },
        {
            "buffer": 0,
            "byteLength": 24,
            "byteOffset": 11748,
            "name": "mesh79_idx_bufferView",
            "target": 34963
        },
        {
            "buffer": 0,
            "byteLength": 48,
            "byteOffset": 11772,
            "name": "mesh80_coord_bufferView",
            "target": 34962
        },
        {
            "buffer": 0,
            "byteLength": 48,
            "byteOffset": 11820,
            "name": "mesh80_norm_bufferView",
            "target": 34962
        },
        {
            "buffer": 0,
            "byteLength": 24,
            "byteOffset": 11868,
            "name": "mesh80_idx_bufferView",
            "target": 34963
        },
        {
            "buffer": 0,
            "byteLength": 48,
            "byteOffset": 11892,
            "name": "mesh81_coord_bufferView",
            "target": 34962
        },
        {
            "buffer": 0,
            "byteLength": 48,
            "byteOffset": 11940,
            "name": "mesh81_norm_bufferView",
            "target": 34962
        },
        {
            "buffer": 0,
            "byteLength": 24,
            "byteOffset": 11988,
            "name": "mesh81_idx_bufferView",
            "target": 34963
        },
        {
            "buffer": 0,
            "byteLength": 48,
            "byteOffset": 12012,
            "name": "mesh82_coord_bufferView",
            "target": 34962
        },
        {
            "buffer": 0,
            "byteLength": 48,
            "byteOffset": 12060,
            "name": "mesh82_norm_bufferView",
            "target": 34962
        },
        {
            "buffer": 0,
            "byteLength": 24,
            "byteOffset": 12108,
            "name": "mesh82_idx_bufferView",
            "target": 34963
        },
        {
            "buffer": 0,
            "byteLength": 48,
            "byteOffset": 12132,
            "name": "mesh83_coord_bufferView",
            "target": 34962
        },
        {
            "buffer": 0,
            "byteLength": 48,
            "byteOffset": 12180,
            "name": "mesh83_norm_bufferView",
            "target": 34962
        },
        {
            "buffer": 0,
            "byteLength": 24,
            "byteOffset": 12228,
            "name": "mesh83_idx_bufferView",
            "target": 34963
        },
        {
            "buffer": 0,
            "byteLength": 36,
            "byteOffset": 12252,
            "name": "mesh84_coord_bufferView",
            "target": 34962
        },
        {
            "buffer": 0,
            "byteLength": 36,
            "byteOffset": 12288,
            "name": "mesh84_norm_bufferView",
            "target": 34962
        },
        {
            "buffer": 0,
            "byteLength": 12,
            "byteOffset": 12324,
            "name": "mesh84_idx_bufferView",
            "target": 34963
        }
    ],
    "buffers": [
        {
            "byteLength": 12336,
            "name": "Total_buffer",
            "uri": "data:application/octet-stream;base64,"
        }
    ],
    "extensionsUsed": [
        "PTC_onshape_metadata"
    ],
    "materials": [
        {
            "doubleSided": true,
            "name": "0.231373_0.380392_0.705882_0.000000_0.000000",
            "pbrMetallicRoughness": {
                "baseColorFactor": [
                    0.23137255012989044,
                    0.3803921639919281,
                    0.7058823704719543,
                    1.0
                ],
                "metallicFactor": 0.0
            }
        },
        {
            "doubleSided": true,
            "name": "0.615686_0.811765_0.929412_0.000000_0.000000",
            "pbrMetallicRoughness": {
                "baseColorFactor": [
                    0.615686297416687,
                    0.8117647171020508,
                    0.929411768913269,
                    1.0
                ],
                "metallicFactor": 0.0
            }
        },
        {
            "doubleSided": true,
            "name": "0.647059_0.647059_0.647059_0.000000_0.000000",
            "pbrMetallicRoughness": {
                "baseColorFactor": [
                    0.6470588445663452,
                    0.6470588445663452,
                    0.6470588445663452,
                    1.0
                ],
                "metallicFactor": 0.0
            }
        }
    ],
    "meshes": [
        {
            "name": "mesh60_mesh",
            "primitives": [
                {
                    "attributes": {
                        "NORMAL": 1,
                        "POSITION": 0
                    },
                    "indices": 2,
                    "material": 1
                }
            ]
        },
        {
            "name": "mesh61_mesh",
            "primitives": [
                {
                    "attributes": {
                        "NORMAL": 4,
                        "POSITION": 3
                    },
                    "indices": 5,
                    "material": 1
                }
            ]
        },
        {
            "name": "mesh62_mesh",
            "primitives": [
                {
                    "attributes": {
                        "NORMAL": 7,
                        "POSITION": 6
                    },
                    "indices": 8,
                    "material": 1
                }
            ]
        },
        {
            "name": "mesh63_mesh",
            "primitives": [
                {
                    "attributes": {
                        "NORMAL": 10,
                        "POSITION": 9
                    },
                    "indices": 11,
                    "material": 1
                }
            ]
        },
        {
            "name": "mesh64_mesh",
            "primitives": [
                {
                    "attributes": {
                        "NORMAL": 13,
                        "POSITION": 12
                    },
                    "indices": 14,
                    "material": 1
                }
            ]
        },
        {
            "name": "mesh65_mesh",
            "primitives": [
                {
                    "attributes": {
                        "NORMAL": 16,
                        "POSITION": 15
                    },
                    "indices": 17,
                    "material": 1
                }
            ]
        },
        {
            "name": "mesh66_mesh",
            "primitives": [
                {
                    "attributes": {
                        "NORMAL": 19,
                        "POSITION": 18
                    },
                    "indices": 20,
                    "material": 1
                }
            ]
        },
        {
            "name": "mesh67_mesh",
            "primitives": [
                {
                    "attributes": {
                        "NORMAL": 22,
                        "POSITION": 21
                    },
                    "indices": 23,
                    "material": 1
                }
            ]
        },
        {
            "name": "mesh68_mesh",
            "primitives": [
                {
                    "attributes": {
                        "NORMAL": 25,
                        "POSITION": 24
                    },
                    "indices": 26,
                    "material": 1
                }
            ]
        },
        {
            "name": "mesh69_mesh",
            "primitives": [
                {
                    "attributes": {
                        "NORMAL": 28,
                        "POSITION": 27
                    },
                    "indices": 29,
                    "material": 1
                }
            ]
        },
        {
            "name": "mesh70_mesh",
            "primitives": [
                {
                    "attributes": {
                        "NORMAL": 31,
                        "POSITION": 30
                    },
                    "indices": 32,
                    "material": 1
                }
            ]
        },
        {
            "name": "mesh71_mesh",
            "primitives": [
                {
                    "attributes": {
                        "NORMAL": 34,
                        "POSITION": 33
                    },
                    "indices": 35,
                    "material": 1
                }
            ]
        },
        {
            "name": "mesh72_mesh",
            "primitives": [
                {
                    "attributes": {
                        "NORMAL": 37,
                        "POSITION": 36
                    },
                    "indices": 38,
                    "material": 1
                }
            ]
        },
        {
            "name": "mesh73_mesh",
            "primitives": [
                {
                    "attributes": {
                        "NORMAL": 40,
                        "POSITION": 39
                    },
                    "indices": 41,
                    "material": 1
                }
            ]
        },
        {
            "name": "mesh74_mesh",
            "primitives": [
                {
                    "attributes": {
                        "NORMAL": 43,
                        "POSITION": 42
                    },
                    "indices": 44,
                    "material": 1
                }
            ]
        },
        {
            "name": "mesh75_mesh",
            "primitives": [
                {
                    "attributes": {
                        "NORMAL": 46,
                        "POSITION": 45
                    },
                    "indices": 47,
                    "material": 1
                }
            ]
        },
        {
            "name": "mesh76_mesh",
            "primitives": [
                {
                    "attributes": {
                        "NORMAL": 49,
                        "POSITION": 48
                    },
                    "indices": 50,
                    "material": 1
                }
            ]
        },
        {
            "name": "mesh77_mesh",
            "primitives": [
                {
                    "attributes": {
                        "NORMAL": 52,
                        "POSITION": 51
                    },
                    "indices": 53,
                    "material": 1
                }
            ]
        },
        {
            "name": "mesh78_mesh",
            "primitives": [
                {
                    "attributes": {
                        "NORMAL": 55,
                        "POSITION": 54
                    },
                    "indices": 56,
                    "material": 1
                }
            ]
        },
        {
            "name": "mesh79_mesh",
            "primitives": [
                {
                    "attributes": {
                        "NORMAL": 58,
                        "POSITION": 57
                    },
                    "indices": 59,
                    "material": 1
                }
            ]
        },
        {
            "name": "mesh80_mesh",
            "primitives": [
                {
                    "attributes": {
                        "NORMAL": 61,
                        "POSITION": 60
                    },
                    "indices": 62,
                    "material": 1
                }
            ]
        },
        {
            "name": "mesh81_mesh",
            "primitives": [
                {
                    "attributes": {
                        "NORMAL": 64,
                        "POSITION": 63
                    },
                    "indices": 65,
                    "material": 1
                }
            ]
        },
        {
            "name": "mesh82_mesh",
            "primitives": [
                {
                    "attributes": {
                        "NORMAL": 67,
                        "POSITION": 66
                    },
                    "indices": 68,
                    "material": 1
                }
            ]
        },
        {
            "name": "mesh83_mesh",
            "primitives": [
                {
                    "attributes": {
                        "NORMAL": 70,
                        "POSITION": 69
                    },
                    "indices": 71,
                    "material": 1
                }
            ]
        },
        {
            "name": "mesh84_mesh",
            "primitives": [
                {
                    "attributes": {
                        "NORMAL": 73,
                        "POSITION": 72
                    },
                    "indices": 74,
                    "material": 1
                }
            ]
        }
    ],
    "nodes": [
        {
            "mesh": 0,
            "name": "mesh60"
        },
        {
            "mesh": 1,
            "name": "mesh61"
        },
        {
            "mesh": 2,
            "name": "mesh62"
        },
        {
            "mesh": 3,
            "name": "mesh63"
        },
        {
            "mesh": 4,
            "name": "mesh64"
        },
        {
            "mesh": 5,
            "name": "mesh65"
        },
        {
            "mesh": 6,
            "name": "mesh66"
        },
        {
            "mesh": 7,
            "name": "mesh67"
        },
        {
            "mesh": 8,
            "name": "mesh68"
        },
        {
            "mesh": 9,
            "name": "mesh69"
        },
        {
            "mesh": 10,
            "name": "mesh70"
        },
        {
            "mesh": 11,
            "name": "mesh71"
        },
        {
            "mesh": 12,
            "name": "mesh72"
        },
        {
            "mesh": 13,
            "name": "mesh73"
        },
        {
            "mesh": 14,
            "name": "mesh74"
        },
        {
            "mesh": 15,
            "name": "mesh75"
        },
        {
            "mesh": 16,
            "name": "mesh76"
        },
        {
            "mesh": 17,
            "name": "mesh77"
        },
        {
            "mesh": 18,
            "name": "mesh78"
        },
        {
            "mesh": 19,
            "name": "mesh79"
        },
        {
            "mesh": 20,
            "name": "mesh80"
        },
        {
            "mesh": 21,
            "name": "mesh81"
        },
        {
            "mesh": 22,
            "name": "mesh82"
        },
        {
            "mesh": 23,
            "name": "mesh83"
        },
        {
            "mesh": 24,
            "name": "mesh84"
        }
    ],
    "scene": 0,
    "scenes": [
        {
            "name": "Root",
            "nodes": [
                0,
                1,
                2,
                3,
                4,
                5,
                6,
                7,
                8,
                9,
                10,
                11,
                12,
                13,
                14,
                15,
                16,
                17,
                18,
                19,
                20,
                21,
                22,
                23,
                24
            ]
        }
    ]
}