{
    "accessors": [
        {
            "bufferView": 0,
            "componentType": 5126,
            "count": 116,
            "max": [
                0.1548963338136673,
                0.023380126804113388,
                0.0024999999441206455
            ],
            "min": [
                0.14990366995334625,
                0.019050000235438347,
                -0.0024999999441206455
            ],
            "name": "mesh41_coord_accessor",
            "type": "VEC3"
        },
        {
            "bufferView": 1,
            "componentType": 5126,
            "count": 116,
            "max": [
                0.8660253882408142,
                0.5,
                0.8660253882408142
            ],
            "min": [
                -0.8660253882408142,
                0.5,
                -0.8660253882408142
            ],
            "name": "mesh41_norm_accessor",
            "type": "VEC3"
        },
        {
            "bufferView": 2,
            "componentType": 5125,
            "count": 174,
            "max": [
                115
            ],
            "min": [
                0
            ],
            "name": "mesh41_idx_accessor",
            "type": "SCALAR"
        },
        {
            "bufferView": 3,
            "componentType": 5126,
            "count": 116,
            "max": [
                0.1548963338136673,
                0.019050000235438347,
                0.0024999999441206455
            ],
            "min": [
                0.14990366995334625,
                0.01269999984651804,
                -0.0024999999441206455
            ],
            "name": "mesh42_coord_accessor",
            "type": "VEC3"
        },
        {
            "bufferView": 4,
            "componentType": 5126,
            "count": 116,
            "max": [
                0.9985334277153015,
                0.0,
                1.0
            ],
            "min": [
                -0.9985334277153015,
                0.0,
                -1.0
            ],
            "name": "mesh42_norm_accessor",
            "type": "VEC3"
        },
        {
            "bufferView": 5,
            "componentType": 5125,
            "count": 348,
            "max": [
                115
            ],
            "min": [
                0
            ],
            "name": "mesh42_idx_accessor",
            "type": "SCALAR"
        },
        {
            "bufferView": 6,
            "componentType": 5126,
            "count": 116,
            "max": [
                0.15539559721946716,
                0.01269999984651804,
                0.003000000026077032
            ],
            "min": [
                0.1494044065475464,
                0.01269999984651804,
                -0.003000000026077032
            ],
            "name": "mesh43_coord_accessor",
            "type": "VEC3"
        },
        {
            "bufferView": 7,
            "componentType": 5126,
            "count": 116,
            "max": [
                -0.0,
                1.0,
                -0.0
            ],
            "min": [
                -0.0,
                1.0,
                -0.0
            ],
            "name": "mesh43_norm_accessor",
            "type": "VEC3"
        },
        {
            "bufferView": 8,
            "componentType": 5125,
            "count": 348,
            "max": [
                115
            ],
            "min": [
                0
            ],
            "name": "mesh43_idx_accessor",
            "type": "SCALAR"
        },
        {
            "bufferView": 9,
            "componentType": 5126,
            "count": 120,
            "max": [
                0.15539559721946716,
                0.01269999984651804,
                0.003000000026077032
            ],
            "min": [
                0.1494044065475464,
                0.006000000052154064,
                -0.003000000026077032
            ],
            "name": "mesh44_coord_accessor",
            "type": "VEC3"
        },
        {
            "bufferView": 10,
            "componentType": 5126,
            "count": 120,
            "max": [
                0.9985334277153015,
                0.0,
                1.0
            ],
            "min": [
                -0.9985334277153015,
                0.0,
                -1.0
            ],
            "name": "mesh44_norm_accessor",
            "type": "VEC3"
        },
        {
            "bufferView": 11,
            "componentType": 5125,
            "count": 360,
            "max": [
                119
            ],
            "min": [
                0
            ],
            "name": "mesh44_idx_accessor",
            "type": "SCALAR"
        },
        {
            "bufferView": 12,
            "componentType": 5126,
            "count": 469,
            "max": [
                0.16438239812850952,
                0.006000000052154064,
                0.012000000104308128
            ],
            "min": [
                -0.01198240090161562,
                0.006000000052154064,
                -0.012000000104308128
            ],
            "name": "mesh45_coord_accessor",
            "type": "VEC3"
        },
        {
            "bufferView": 13,
            "componentType": 5126,
            "count": 469,
            "max": [
                -0.0,
                1.0,
                -0.0
            ],
            "min": [
                -0.0,
                1.0,
                -0.0
            ],
            "name": "mesh45_norm_accessor",
            "type": "VEC3"
        },
        {
            "bufferView": 14,
            "componentType": 5125,
            "count": 1515,
            "max": [
                468
            ],
            "min": [
                0
            ],
            "name": "mesh45_idx_accessor",
            "type": "SCALAR"
        },
        {
            "bufferView": 15,
            "componentType": 5126,
            "count": 72,
            "max": [
                0.16438239812850952,
                0.006000000052154064,
                0.012000000104308128
            ],
            "min": [
                0.15240000188350677,
                -0.006000000052154064,
                -0.012000000104308128
            ],
            "name": "mesh46_coord_accessor",
            "type": "VEC3"
        },
        {
            "bufferView": 16,
            "componentType": 5126,
            "count": 72,
            "max": [
                0.9985334277153015,
                0.0,
                1.0
            ],
            "min": [
                0.0,
                0.0,
                -1.0
            ],
            "name": "mesh46_norm_accessor",
            "type": "VEC3"
        },
        {
            "bufferView": 17,
            "componentType": 5125,
            "count": 210,
            "max": [
                71
            ],
            "min": [
                0
            ],
            "name": "mesh46_idx_accessor",
            "type": "SCALAR"
        },
        {
            "bufferView": 18,
            "componentType": 5126,
            "count": 10,
            "max": [
                0.15240000188350677,
                0.006000000052154064,
                0.012000000104308128
            ],
            "min": [
                0.0,
                -0.006000000052154064,
                0.012000000104308128
            ],
            "name": "mesh47_coord_accessor",
            "type": "VEC3"
        },
        {
            "bufferView": 19,
            "componentType": 5126,
            "count": 10,
            "max": [
                0.0,
                0.0,
                1.0
            ],
            "min": [
                0.0,
                0.0,
                1.0
            ],
            "name": "mesh47_norm_accessor",
            "type": "VEC3"
        },
        {
            "bufferView": 20,
            "componentType": 5125,
            "count": 24,
            "max": [
                9
            ],
            "min": [
                0
            ],
            "name": "mesh47_idx_accessor",
            "type": "SCALAR"
        },
        {
            "bufferView": 21,
            "componentType": 5126,
            "count": 78,
            "max": [
                0.0,
                0.006000000052154064,
                0.012000000104308128
            ],
            "min": [
                -0.01198240090161562,
                -0.006000000052154064,
                -0.012000000104308128
            ],
            "name": "mesh48_coord_accessor",
            "type": "VEC3"
        },
        {
            "bufferView": 22,
            "componentType": 5126,
            "count": 78,
            "max": [
                1.2246468525851679e-16,
                0.0,
                1.0
            ],
            "min": [
                -0.9985334277153015,
                0.0,
                -1.0
            ],
            "name": "mesh48_norm_accessor",
            "type": "VEC3"
        },
        {
            "bufferView": 23,
            "componentType": 5125,
            "count": 228,
            "max": [
                77
            ],
            "min": [
                0
            ],
            "name": "mesh48_idx_accessor",
            "type": "SCALAR"
        },
        {
            "bufferView": 24,
            "componentType": 5126,
            "count": 10,
            "max": [
                0.15240000188350677,
                0.006000000052154064,
                -0.012000000104308128
            ],
            "min": [
                0.0,
                -0.006000000052154064,
                -0.012000000104308128
            ],
            "name": "mesh49_coord_accessor",
            "type": "VEC3"
        },
        {
            "bufferView": 25,
            "componentType": 5126,
            "count": 10,
            "max": [
                5.691350030222103e-17,
                -0.0,
                -1.0
            ],
            "min": [
                5.691350030222103e-17,
                -0.0,
                -1.0
            ],
            "name": "mesh49_norm_accessor",
            "type": "VEC3"
        },
        {
            "bufferView": 26,
            "componentType": 5125,
            "count": 24,
            "max": [
                9
            ],
            "min": [
                0
            ],
            "name": "mesh49_idx_accessor",
            "type": "SCALAR"
        },
        {
            "bufferView": 27,
            "componentType": 5126,
            "count": 116,
            "max": [
                0.008348019793629646,
                0.006000000052154064,
                0.0013500000350177288
            ],
            "min": [
                0.005651979707181454,
                -0.006000000052154064,
                -0.0013500000350177288
            ],
            "name": "mesh50_coord_accessor",
            "type": "VEC3"
        },
        {
            "bufferView": 28,
            "componentType": 5126,
            "count": 116,
            "max": [
                0.9985334277153015,
                -0.0,
                1.0
            ],
            "min": [
                -0.9985334277153015,
                -0.0,
                -1.0
            ],
            "name": "mesh50_norm_accessor",
            "type": "VEC3"
        },
        {
            "bufferView": 29,
            "componentType": 5125,
            "count": 348,
            "max": [
                115
            ],
            "min": [
                0
            ],
            "name": "mesh50_idx_accessor",
            "type": "SCALAR"
        },
        {
            "bufferView": 30,
            "componentType": 5126,
            "count": 116,
            "max": [
                0.0013480201596394181,
                0.006000000052154064,
                0.008349999785423279
            ],
            "min": [
                -0.0013480201596394181,
                -0.006000000052154064,
                0.0056500001810491085
            ],
            "name": "mesh51_coord_accessor",
            "type": "VEC3"
        },
        {
            "bufferView": 31,
            "componentType": 5126,
            "count": 116,
            "max": [
                0.9985334277153015,
                -0.0,
                1.0
            ],
            "min": [
                -0.9985334277153015,
                -0.0,
                -1.0
            ],
            "name": "mesh51_norm_accessor",
            "type": "VEC3"
        },
        {
            "bufferView": 32,
            "componentType": 5125,
            "count": 348,
            "max": [
                115
            ],
            "min": [
                0
            ],
            "name": "mesh51_idx_accessor",
            "type": "SCALAR"
        },
        {
            "bufferView": 33,
            "componentType": 5126,
            "count": 116,
            "max": [
                -0.005651979707181454,
                0.006000000052154064,
                0.0013500000350177288
            ],
            "min": [
                -0.008348019793629646,
                -0.006000000052154064,
                -0.0013500000350177288
            ],
            "name": "mesh52_coord_accessor",
            "type": "VEC3"
        },
        {
            "bufferView": 34,
            "componentType": 5126,
            "count": 116,
            "max": [
                0.9985334277153015,
                -0.0,
                1.0
            ],
            "min": [
                -0.9985334277153015,
                -0.0,
                -1.0
            ],
            "name": "mesh52_norm_accessor",
            "type": "VEC3"
        },
        {
            "bufferView": 35,
            "componentType": 5125,
            "count": 348,
            "max": [
                115
            ],
            "min": [
                0
            ],
            "name": "mesh52_idx_accessor",
            "type": "SCALAR"
        },
        {
            "bufferView": 36,
            "componentType": 5126,
            "count": 116,
            "max": [
                0.0013480201596394181,
                0.006000000052154064,
                -0.0056500001810491085
            ],
            "min": [
                -0.0013480201596394181,
                -0.006000000052154064,
                -0.008349999785423279
            ],
            "name": "mesh53_coord_accessor",
            "type": "VEC3"
        },
        {
            "bufferView": 37,
            "componentType": 5126,
            "count": 116,
            "max": [
                0.9985334277153015,
                -0.0,
                1.0
            ],
            "min": [
                -0.9985334277153015,
                -0.0,
                -1.0
            ],
            "name": "mesh53_norm_accessor",
            "type": "VEC3"
        },
        {
            "bufferView": 38,
            "componentType": 5125,
            "count": 348,
            "max": [
                115
            ],
            "min": [
                0
            ],
            "name": "mesh53_idx_accessor",
            "type": "SCALAR"
        },
        {
            "bufferView": 39,
            "componentType": 5126,
            "count": 136,
            "max": [
                0.003494866890832782,
                0.006000000052154064,
                0.0035000001080334187
            ],
            "min": [
                -0.003494866890832782,
                -0.006000000052154064,
                -0.0035000001080334187
            ],
            "name": "mesh54_coord_accessor",
            "type": "VEC3"
        },
        {
            "bufferView": 40,
            "componentType": 5126,
            "count": 136,
            "max": [
                0.9985334277153015,
                -0.0,
                1.0
            ],
            "min": [
                -0.9985334277153015,
                -0.0,
                -1.0
            ],
            "name": "mesh54_norm_accessor",
            "type": "VEC3"
        },
        {
            "bufferView": 41,
            "componentType": 5125,
            "count": 408,
            "max": [
                135
            ],
            "min": [
                0
            ],
            "name": "mesh54_idx_accessor",
            "type": "SCALAR"
        },
        {
            "bufferView": 42,
            "componentType": 5126,
            "count": 469,
            "max": [
                0.16438239812850952,
                -0.006000000052154064,
                0.012000000104308128
            ],
            "min": [
                -0.01198240090161562,
                -0.006000000052154064,
                -0.012000000104308128
            ],
            "name": "mesh55_coord_accessor",
            "type": "VEC3"
        },
        {
            "bufferView": 43,
            "componentType": 5126,
            "count": 469,
            "max": [
                0.0,
                -1.0,
                0.0
            ],
            "min": [
                0.0,
                -1.0,
                0.0
            ],
            "name": "mesh55_norm_accessor",
            "type": "VEC3"
        },
        {
            "bufferView": 44,
            "componentType": 5125,
            "count": 1515,
            "max": [
                468
            ],
            "min": [
                0
            ],
            "name": "mesh55_idx_accessor",
            "type": "SCALAR"
        },
        {
            "bufferView": 45,
            "componentType": 5126,
            "count": 120,
            "max": [
                0.15539559721946716,
                -0.006000000052154064,
                0.003000000026077032
            ],
            "min": [
                0.1494044065475464,
                -0.01269999984651804,
                -0.003000000026077032
            ],
            "name": "mesh56_coord_accessor",
            "type": "VEC3"
        },
        {
            "bufferView": 46,
            "componentType": 5126,
            "count": 120,
            "max": [
                0.9985334277153015,
                0.0,
                1.0
            ],
            "min": [
                -0.9985334277153015,
                0.0,
                -1.0
            ],
            "name": "mesh56_norm_accessor",
            "type": "VEC3"
        },
        {
            "bufferView": 47,
            "componentType": 5125,
            "count": 360,
            "max": [
                119
            ],
            "min": [
                0
            ],
            "name": "mesh56_idx_accessor",
            "type": "SCALAR"
        },
        {
            "bufferView": 48,
            "componentType": 5126,
            "count": 116,
            "max": [
                0.15539559721946716,
                -0.01269999984651804,
                0.003000000026077032
            ],
            "min": [
                0.1494044065475464,
                -0.01269999984651804,
                -0.003000000026077032
            ],
            "name": "mesh57_coord_accessor",
            "type": "VEC3"
        },
        {
            "bufferView": 49,
            "componentType": 5126,
            "count": 116,
            "max": [
                0.0,
                -1.0,
                0.0
            ],
            "min": [
                0.0,
                -1.0,
                0.0
            ],
            "name": "mesh57_norm_accessor",
            "type": "VEC3"
        },
        {
            "bufferView": 50,
            "componentType": 5125,
            "count": 348,
            "max": [
                115
            ],
            "min": [
                0
            ],
            "name": "mesh57_idx_accessor",
            "type": "SCALAR"
        },
        {
            "bufferView": 51,
            "componentType": 5126,
            "count": 116,
            "max": [
                0.1548963338136673,
                -0.01269999984651804,
                0.0024999999441206455
            ],
            "min": [
                0.14990366995334625,
                -0.019050000235438347,
                -0.0024999999441206455
            ],
            "name": "mesh58_coord_accessor",
            "type": "VEC3"
        },
        {
            "bufferView": 52,
            "componentType": 5126,
            "count": 116,
            "max": [
                0.9985334277153015,
                0.0,
                1.0
            ],
            "min": [
                -0.9985334277153015,
                0.0,
                -1.0
            ],
            "name": "mesh58_norm_accessor",
            "type": "VEC3"
        },
        {
            "bufferView": 53,
            "componentType": 5125,
            "count": 348,
            "max": [
                115
            ],
            "min": [
                0
            ],
            "name": "mesh58_idx_accessor",
            "type": "SCALAR"
        },
        {
            "bufferView": 54,
            "componentType": 5126,
            "count": 116,
            "max": [
                0.1548963338136673,
                -0.019050000235438347,
                0.0024999999441206455
            ],
            "min": [
                0.14990366995334625,
                -0.023380126804113388,
                -0.0024999999441206455
            ],
            "name": "mesh59_coord_accessor",
            "type": "VEC3"
        },
        {
            "bufferView": 55,
            "componentType": 5126,
            "count": 116,
            "max": [
                0.8660253882408142,
                -0.5,
                0.8660253882408142
            ],
            "min": [
                -0.8660253882408142,
                -0.5,
                -0.8660253882408142
            ],
            "name": "mesh59_norm_accessor",
            "type": "VEC3"
        },
        {
            "bufferView": 56,
            "componentType": 5125,
            "count": 174,
            "max": [
                115
            ],
            "min": [
                0
            ],
            "name": "mesh59_idx_accessor",
            "type": "SCALAR"
        }
    ],
    "asset": {
        "generator": "ONSHAPE BY PTC INC, 1.221",
        "version": "2.0"
    },
    "bufferViews": [
        {
            "buffer": 0,
            "byteLength": 1392,
            "name": "mesh41_coord_bufferView",
            "target": 34962
        },
        {
            "buffer": 0,
            "byteLength": 1392,
            "byteOffset": 1392,
            "name": "mesh41_norm_bufferView",
            "target": 34962
        },
        {
            "buffer": 0,
            "byteLength": 696,
            "byteOffset": 2784,
            "name": "mesh41_idx_bufferView",
            "target": 34963
        },
        {
            "buffer": 0,
            "byteLength": 1392,
            "byteOffset": 3480,
            "name": "mesh42_coord_bufferView",
            "target": 34962
        },
        {
            "buffer": 0,
            "byteLength": 1392,
            "byteOffset": 4872,
            "name": "mesh42_norm_bufferView",
            "target": 34962
        },
        {
            "buffer": 0,
            "byteLength": 1392,
            "byteOffset": 6264,
            "name": "mesh42_idx_bufferView",
            "target": 34963
        },
        {
            "buffer": 0,
            "byteLength": 1392,
            "byteOffset": 7656,
            "name": "mesh43_coord_bufferView",
            "target": 34962
        },
        {
            "buffer": 0,
            "byteLength": 1392,
            "byteOffset": 9048,
            "name": "mesh43_norm_bufferView",
            "target": 34962
        },
        {
            "buffer": 0,
            "byteLength": 1392,
            "byteOffset": 10440,
            "name": "mesh43_idx_bufferView",
            "target": 34963
        },
        {
            "buffer": 0,
            "byteLength": 1440,
            "byteOffset": 11832,
            "name": "mesh44_coord_bufferView",
            "target": 34962
        },
        {
            "buffer": 0,
            "byteLength": 1440,
            "byteOffset": 13272,
            "name": "mesh44_norm_bufferView",
            "target": 34962
        },
        {
            "buffer": 0,
            "byteLength": 1440,
            "byteOffset": 14712,
            "name": "mesh44_idx_bufferView",
            "target": 34963
        },
        {
            "buffer": 0,
            "byteLength": 5628,
            "byteOffset": 16152,
            "name": "mesh45_coord_bufferView",
            "target": 34962
        },
        {
            "buffer": 0,
            "byteLength": 5628,
            "byteOffset": 21780,
            "name": "mesh45_norm_bufferView",
            "target": 34962
        },
        {
            "buffer": 0,
            "byteLength": 6060,
            "byteOffset": 27408,
            "name": "mesh45_idx_bufferView",
            "target": 34963
        },
        {
            "buffer": 0,
            "byteLength": 864,
            "byteOffset": 33468,
            "name": "mesh46_coord_bufferView",
            "target": 34962
        },
        {
            "buffer": 0,
            "byteLength": 864,
            "byteOffset": 34332,
            "name": "mesh46_norm_bufferView",
            "target": 34962
        },
        {
            "buffer": 0,
            "byteLength": 840,
            "byteOffset": 35196,
            "name": "mesh46_idx_bufferView",
            "target": 34963
        },
        {
            "buffer": 0,
            "byteLength": 120,
            "byteOffset": 36036,
            "name": "mesh47_coord_bufferView",
            "target": 34962
        },
        {
            "buffer": 0,
            "byteLength": 120,
            "byteOffset": 36156,
            "name": "mesh47_norm_bufferView",
            "target": 34962
        },
        {
            "buffer": 0,
            "byteLength": 96,
            "byteOffset": 36276,
            "name": "mesh47_idx_bufferView",
            "target": 34963
        },
        {
            "buffer": 0,
            "byteLength": 936,
            "byteOffset": 36372,
            "name": "mesh48_coord_bufferView",
            "target": 34962
        },
        {
            "buffer": 0,
            "byteLength": 936,
            "byteOffset": 37308,
            "name": "mesh48_norm_bufferView",
            "target": 34962
        },
        {
            "buffer": 0,
            "byteLength": 912,
            "byteOffset": 38244,
            "name": "mesh48_idx_bufferView",
            "target": 34963
        },
        {
            "buffer": 0,
            "byteLength": 120,
            "byteOffset": 39156,
            "name": "mesh49_coord_bufferView",
            "target": 34962
        },
        {
            "buffer": 0,
            "byteLength": 120,
            "byteOffset": 39276,
            "name": "mesh49_norm_bufferView",
            "target": 34962
        },
        {
            "buffer": 0,
            "byteLength": 96,
            "byteOffset": 39396,
            "name": "mesh49_idx_bufferView",
            "target": 34963
        },
        {
            "buffer": 0,
            "byteLength": 1392,
            "byteOffset": 39492,
            "name": "mesh50_coord_bufferView",
            "target": 34962
        },
        {
            "buffer": 0,
            "byteLength": 1392,
            "byteOffset": 40884,
            "name": "mesh50_norm_bufferView",
            "target": 34962
        },
        {
            "buffer": 0,
            "byteLength": 1392,
            "byteOffset": 42276,
            "name": "mesh50_idx_bufferView",
            "target": 34963
        },
        {
            "buffer": 0,
            "byteLength": 1392,
            "byteOffset": 43668,
            "name": "mesh51_coord_bufferView",
            "target": 34962
        },
        {
            "buffer": 0,
            "byteLength": 1392,
            "byteOffset": 45060,
            "name": "mesh51_norm_bufferView",
            "target": 34962
        },
        {
            "buffer": 0,
            "byteLength": 1392,
            "byteOffset": 46452,
            "name": "mesh51_idx_bufferView",
            "target": 34963
        },
        {
            "buffer": 0,
            "byteLength": 1392,
            "byteOffset": 47844,
            "name": "mesh52_coord_bufferView",
            "target": 34962
        },
        {
            "buffer": 0,
            "byteLength": 1392,
            "byteOffset": 49236,
            "name": "mesh52_norm_bufferView",
            "target": 34962
        },
        {
            "buffer": 0,
            "byteLength": 1392,
            "byteOffset": 50628,
            "name": "mesh52_idx_bufferView",
            "target": 34963
        },
        {
            "buffer": 0,
            "byteLength": 1392,
            "byteOffset": 52020,
            "name": "mesh53_coord_bufferView",
            "target": 34962
        },
        {
            "buffer": 0,
            "byteLength": 1392,
            "byteOffset": 53412,
            "name": "mesh53_norm_bufferView",
            "target": 34962
        },
        {
            "buffer": 0,
            "byteLength": 1392,
            "byteOffset": 54804,
            "name": "mesh53_idx_bufferView",
            "target": 34963
        },
        {
            "buffer": 0,
            "byteLength": 1632,
            "byteOffset": 56196,
            "name": "mesh54_coord_bufferView",
            "target": 34962
        },
        {
            "buffer": 0,
            "byteLength": 1632,
            "byteOffset": 57828,
            "name": "mesh54_norm_bufferView",
            "target": 34962
        },
        {
            "buffer": 0,
            "byteLength": 1632,
            "byteOffset": 59460,
            "name": "mesh54_idx_bufferView",
            "target": 34963
        },
        {
            "buffer": 0,
            "byteLength": 5628,
            "byteOffset": 61092,
            "name": "mesh55_coord_bufferView",
            "target": 34962
        },
        {
            "buffer": 0,
            "byteLength": 5628,
            "byteOffset": 66720,
            "name": "mesh55_norm_bufferView",
            "target": 34962
        },
        {
            "buffer": 0,
            "byteLength": 6060,
            "byteOffset": 72348,
            "name": "mesh55_idx_bufferView",
            "target": 34963
        },
        {
            "buffer": 0,
            "byteLength": 1440,
            "byteOffset": 78408,
            "name": "mesh56_coord_bufferView",
            "target": 34962
        },
        {
            "buffer": 0,
            "byteLength": 1440,
            "byteOffset": 79848,
            "name": "mesh56_norm_bufferView",
            "target": 34962
        },
        {
            "buffer": 0,
            "byteLength": 1440,
            "byteOffset": 81288,
            "name": "mesh56_idx_bufferView",
            "target": 34963
        },
        {
            "buffer": 0,
            "byteLength": 1392,
            "byteOffset": 82728,
            "name": "mesh57_coord_bufferView",
            "target": 34962
        },
        {
            "buffer": 0,
            "byteLength": 1392,
            "byteOffset": 84120,
            "name": "mesh57_norm_bufferView",
            "target": 34962
        },
        {
            "buffer": 0,
            "byteLength": 1392,
            "byteOffset": 85512,
            "name": "mesh57_idx_bufferView",
            "target": 34963
        },
        {
            "buffer": 0,
            "byteLength": 1392,
            "byteOffset": 86904,
            "name": "mesh58_coord_bufferView",
            "target": 34962
        },
        {
            "buffer": 0,
            "byteLength": 1392,
            "byteOffset": 88296,
            "name": "mesh58_norm_bufferView",
            "target": 34962
        },
        {
            "buffer": 0,
            "byteLength": 1392,
            "byteOffset": 89688,
            "name": "mesh58_idx_bufferView",
            "target": 34963
        },
        {
            "buffer": 0,
            "byteLength": 1392,
            "byteOffset": 91080,
            "name": "mesh59_coord_bufferView",
            "target": 34962
        },
        {
            "buffer": 0,
            "byteLength": 1392,
            "byteOffset": 92472,
            "name": "mesh59_norm_bufferView",
            "target": 34962
        },
        {
            "buffer": 0,
            "byteLength": 696,
            "byteOffset": 93864,
            "name": "mesh59_idx_bufferView",
            "target": 34963
        }
    ],
    "buffers": [
        {
            "byteLength": 94560,
            "name": "Total_buffer",
            "uri": "data:application/octet-stream;base64,"
        }
    ],
    "extensionsUsed": [
        "PTC_onshape_metadata"
    ],
    "materials": [
        {
            "doubleSided": true,
            "name": "0.231373_0.380392_0.705882_0.000000_0.000000",
            "pbrMetallicRoughness": {
                "baseColorFactor": [
                    0.23137255012989044,
                    0.3803921639919281,
                    0.7058823704719543,
                    1.0
                ],
                "metallicFactor": 0.0
            }
        },
        {
            "doubleSided": true,
            "name": "0.615686_0.811765_0.929412_0.000000_0.000000",
            "pbrMetallicRoughness": {
                "baseColorFactor": [
                    0.615686297416687,
                    0.8117647171020508,
                    0.929411768913269,
                    1.0
                ],
                "metallicFactor": 0.0
            }
        },
        {
            "doubleSided": true,
            "name": "0.647059_0.647059_0.647059_0.000000_0.000000",
            "pbrMetallicRoughness": {
                "baseColorFactor": [
                    0.6470588445663452,
                    0.6470588445663452,
                    0.6470588445663452,
                    1.0
                ],
                "metallicFactor": 0.0
            }
        }
    ],
    "meshes": [
        {
            "name": "mesh41_mesh",
            "primitives": [
                {
                    "attributes": {
                        "NORMAL": 1,
                        "POSITION": 0
                    },
                    "indices": 2,
                    "material": 1
                }
            ]
        },
        {
            "name": "mesh42_mesh",
            "primitives": [
                {
                    "attributes": {
                        "NORMAL": 4,
                        "POSITION": 3
                    },
                    "indices": 5,
                    "material": 1
                }
            ]
        },
        {
            "name": "mesh43_mesh",
            "primitives": [
                {
                    "attributes": {
                        "NORMAL": 7,
                        "POSITION": 6
                    },
                    "indices": 8,
                    "material": 1
                }
            ]
        },
        {
            "name": "mesh44_mesh",
            "primitives": [
                {
                    "attributes": {
                        "NORMAL": 10,
                        "POSITION": 9
                    },
                    "indices": 11,
                    "material": 1
                }
            ]
        },
        {
            "name": "mesh45_mesh",
            "primitives": [
                {
                    "attributes": {
                        "NORMAL": 13,
                        "POSITION": 12
                    },
                    "indices": 14,
                    "material": 1
                }
            ]
        },
        {
            "name": "mesh46_mesh",
            "primitives": [
                {
                    "attributes": {
                        "NORMAL": 16,
                        "POSITION": 15
                    },
                    "indices": 17,
                    "material": 1
                }
            ]
        },
        {
            "name": "mesh47_mesh",
            "primitives": [
                {
                    "attributes": {
                        "NORMAL": 19,
                        "POSITION": 18
                    },
                    "indices": 20,
                    "material": 1
                }
            ]
        },
        {
            "name": "mesh48_mesh",
            "primitives": [
                {
                    "attributes": {
                        "NORMAL": 22,
                        "POSITION": 21
                    },
                    "indices": 23,
                    "material": 1
                }
            ]
        },
        {
            "name": "mesh49_mesh",
            "primitives": [
                {
                    "attributes": {
                        "NORMAL": 25,
                        "POSITION": 24
                    },
                    "indices": 26,
                    "material": 1
                }
            ]
        },
        {
            "name": "mesh50_mesh",
            "primitives": [
                {
                    "attributes": {
                        "NORMAL": 28,
                        "POSITION": 27
                    },
                    "indices": 29,
                    "material": 1
                }
            ]
        },
        {
            "name": "mesh51_mesh",
            "primitives": [
                {
                    "attributes": {
                        "NORMAL": 31,
                        "POSITION": 30
                    },
                    "indices": 32,
                    "material": 1
                }
            ]
        },
        {
            "name": "mesh52_mesh",
            "primitives": [
                {
                    "attributes": {
                        "NORMAL": 34,
                        "POSITION": 33
                    },
                    "indices": 35,
                    "material": 1
                }
            ]
        },
        {
            "name": "mesh53_mesh",
            "primitives": [
                {
                    "attributes": {
                        "NORMAL": 37,
                        "POSITION": 36
                    },
                    "indices": 38,
                    "material": 1
                }
            ]
        },
        {
            "name": "mesh54_mesh",
            "primitives": [
                {
                    "attributes": {
                        "NORMAL": 40,
                        "POSITION": 39
                    },
                    "indices": 41,
                    "material": 1
                }
            ]
        },
        {
            "name": "mesh55_mesh",
            "primitives": [
                {
                    "attributes": {
                        "NORMAL": 43,
                        "POSITION": 42
                    },
                    "indices": 44,
                    "material": 1
                }
            ]
        },
        {
            "name": "mesh56_mesh",
            "primitives": [
                {
                    "attributes": {
                        "NORMAL": 46,
                        "POSITION": 45
                    },
                    "indices": 47,
                    "material": 1
                }
            ]
        },
        {
            "name": "mesh57_mesh",
            "primitives": [
                {
                    "attributes": {
                        "NORMAL": 49,
                        "POSITION": 48
                    },
                    "indices": 50,
                    "material": 1
                }
            ]
        },
        {
            "name": "mesh58_mesh",
            "primitives": [
                {
                    "attributes": {
                        "NORMAL": 52,
                        "POSITION": 51
                    },
                    "indices": 53,
                    "material": 1
                }
            ]
        },
        {
            "name": "mesh59_mesh",
            "primitives": [
                {
                    "attributes": {
                        "NORMAL": 55,
                        "POSITION": 54
                    },
                    "indices": 56,
                    "material": 1
                }
            ]
        }
    ],
    "nodes": [
        {
            "mesh": 0,
            "name": "mesh41"
        },
        {
            "mesh": 1,
            "name": "mesh42"
        },
        {
            "mesh": 2,
            "name": "mesh43"
        },
        {
            "mesh": 3,
            "name": "mesh44"
        },
        {
            "mesh": 4,
            "name": "mesh45"
        },
        {
            "mesh": 5,
            "name": "mesh46"
        },
        {
            "mesh": 6,
            "name": "mesh47"
        },
        {
            "mesh": 7,
            "name": "mesh48"
        },
        {
            "mesh": 8,
            "name": "mesh49"
        },
        {
            "mesh": 9,
            "name": "mesh50"
        },
        {
            "mesh": 10,
            "name": "mesh51"
        },
        {
            "mesh": 11,
            "name": "mesh52"
        },
        {
            "mesh": 12,
            "name": "mesh53"
        },
        {
            "mesh": 13,
            "name": "mesh54"
        },
        {
            "mesh": 14,
            "name": "mesh55"
        },
        {
            "mesh": 15,
            "name": "mesh56"
        },
        {
            "mesh": 16,
            "name": "mesh57"
        },
        {
            "mesh": 17,
            "name": "mesh58"
        },
        {
            "mesh": 18,
            "name": "mesh59"
        }
    ],
    "scene": 0,
    "scenes": [
        {
            "name": "Root",
            "nodes": [
                0,
                1,
                2,
                3,
                4,
                5,
                6,
                7,
                8,
                9,
                10,
                11,
                12,
                13,
                14,
                15,
                16,
                17,
                18
            ]
        }
    ]
}