{
    "accessors": [
        {
            "bufferView": 0,
            "componentType": 5126,
            "count": 116,
            "max": [
                -0.013709936290979385,
                0.034912481904029846,
                0.011500000022351742
            ],
            "min": [
                -0.018036888912320137,
                0.029914313927292824,
                0.006500000134110451
            ],
            "name": "mesh123_coord_accessor",
            "type": "VEC3"
        },
        {
            "bufferView": 1,
            "componentType": 5126,
            "count": 116,
            "max": [
                1.0,
                0.8660253882408142,
                0.8660253882408142
            ],
            "min": [
                -0.5,
                -4.807406960546706e-16,
                -0.8660253882408142
            ],
            "name": "mesh123_norm_accessor",
            "type": "VEC3"
        },
        {
            "bufferView": 2,
            "componentType": 5125,
            "count": 174,
            "max": [
                115
            ],
            "min": [
                0
            ],
            "name": "mesh123_idx_accessor",
            "type": "SCALAR"
        },
        {
            "bufferView": 3,
            "componentType": 5126,
            "count": 116,
            "max": [
                -0.013713112100958824,
                0.032410647720098495,
                0.011500000022351742
            ],
            "min": [
                -0.021211888641119003,
                0.02441505342721939,
                0.006500000134110451
            ],
            "name": "mesh124_coord_accessor",
            "type": "VEC3"
        },
        {
            "bufferView": 4,
            "componentType": 5126,
            "count": 116,
            "max": [
                0.8647553324699402,
                0.49926671385765076,
                1.0
            ],
            "min": [
                -0.8647553324699402,
                -0.49926671385765076,
                -1.0
            ],
            "name": "mesh124_norm_accessor",
            "type": "VEC3"
        },
        {
            "bufferView": 5,
            "componentType": 5125,
            "count": 348,
            "max": [
                115
            ],
            "min": [
                0
            ],
            "name": "mesh124_idx_accessor",
            "type": "SCALAR"
        },
        {
            "bufferView": 6,
            "componentType": 5126,
            "count": 116,
            "max": [
                -0.01645573414862156,
                0.027161018922924995,
                0.012000000104308128
            ],
            "min": [
                -0.021644266322255135,
                0.02416541986167431,
                0.006000000052154064
            ],
            "name": "mesh125_coord_accessor",
            "type": "VEC3"
        },
        {
            "bufferView": 7,
            "componentType": 5126,
            "count": 116,
            "max": [
                0.5,
                0.8660253882408142,
                -0.0
            ],
            "min": [
                0.5,
                0.8660253882408142,
                -0.0
            ],
            "name": "mesh125_norm_accessor",
            "type": "VEC3"
        },
        {
            "bufferView": 8,
            "componentType": 5125,
            "count": 348,
            "max": [
                115
            ],
            "min": [
                0
            ],
            "name": "mesh125_idx_accessor",
            "type": "SCALAR"
        },
        {
            "bufferView": 9,
            "componentType": 5126,
            "count": 116,
            "max": [
                -0.01645573414862156,
                0.027161018922924995,
                0.012000000104308128
            ],
            "min": [
                -0.02549426630139351,
                0.017497023567557335,
                0.006000000052154064
            ],
            "name": "mesh126_coord_accessor",
            "type": "VEC3"
        },
        {
            "bufferView": 10,
            "componentType": 5126,
            "count": 116,
            "max": [
                0.8647553324699402,
                0.49926671385765076,
                1.0
            ],
            "min": [
                -0.8647553324699402,
                -0.49926671385765076,
                -1.0
            ],
            "name": "mesh126_norm_accessor",
            "type": "VEC3"
        },
        {
            "bufferView": 11,
            "componentType": 5125,
            "count": 348,
            "max": [
                115
            ],
            "min": [
                0
            ],
            "name": "mesh126_idx_accessor",
            "type": "SCALAR"
        },
        {
            "bufferView": 12,
            "componentType": 5126,
            "count": 90,
            "max": [
                -0.00882475171238184,
                0.023488223552703857,
                0.017999999225139618
            ],
            "min": [
                -0.030682798475027084,
                0.010868475772440434,
                0.0
            ],
            "name": "mesh127_coord_accessor",
            "type": "VEC3"
        },
        {
            "bufferView": 13,
            "componentType": 5126,
            "count": 90,
            "max": [
                0.5,
                0.8660253882408142,
                -0.0
            ],
            "min": [
                0.5,
                0.8660253882408142,
                -0.0
            ],
            "name": "mesh127_norm_accessor",
            "type": "VEC3"
        },
        {
            "bufferView": 14,
            "componentType": 5125,
            "count": 270,
            "max": [
                89
            ],
            "min": [
                0
            ],
            "name": "mesh127_idx_accessor",
            "type": "SCALAR"
        },
        {
            "bufferView": 15,
            "componentType": 5126,
            "count": 11,
            "max": [
                -0.00882475171238184,
                0.018994823098182678,
                0.017999999225139618
            ],
            "min": [
                -0.027899999171495438,
                0.002208221470937133,
                0.017999999225139618
            ],
            "name": "mesh128_coord_accessor",
            "type": "VEC3"
        },
        {
            "bufferView": 16,
            "componentType": 5126,
            "count": 11,
            "max": [
                0.0,
                0.0,
                1.0
            ],
            "min": [
                0.0,
                0.0,
                1.0
            ],
            "name": "mesh128_norm_accessor",
            "type": "VEC3"
        },
        {
            "bufferView": 17,
            "componentType": 5125,
            "count": 27,
            "max": [
                10
            ],
            "min": [
                0
            ],
            "name": "mesh128_idx_accessor",
            "type": "SCALAR"
        },
        {
            "bufferView": 18,
            "componentType": 5126,
            "count": 60,
            "max": [
                -0.02290000021457672,
                0.023488223552703857,
                0.017999999225139618
            ],
            "min": [
                -0.0356827974319458,
                0.010334569960832596,
                0.0
            ],
            "name": "mesh129_coord_accessor",
            "type": "VEC3"
        },
        {
            "bufferView": 19,
            "componentType": 5126,
            "count": 60,
            "max": [
                5.570700113053078e-16,
                0.49926671385765076,
                1.0
            ],
            "min": [
                -0.8647553324699402,
                -3.2162452459154583e-16,
                -1.0
            ],
            "name": "mesh129_norm_accessor",
            "type": "VEC3"
        },
        {
            "bufferView": 20,
            "componentType": 5125,
            "count": 174,
            "max": [
                59
            ],
            "min": [
                0
            ],
            "name": "mesh129_idx_accessor",
            "type": "SCALAR"
        },
        {
            "bufferView": 21,
            "componentType": 5126,
            "count": 90,
            "max": [
                -0.01382475160062313,
                0.014827970415353775,
                0.017999999225139618
            ],
            "min": [
                -0.0356827974319458,
                0.002208221470937133,
                0.0
            ],
            "name": "mesh130_coord_accessor",
            "type": "VEC3"
        },
        {
            "bufferView": 22,
            "componentType": 5126,
            "count": 90,
            "max": [
                -0.5,
                -0.8660253882408142,
                0.0
            ],
            "min": [
                -0.5,
                -0.8660253882408142,
                0.0
            ],
            "name": "mesh130_norm_accessor",
            "type": "VEC3"
        },
        {
            "bufferView": 23,
            "componentType": 5125,
            "count": 270,
            "max": [
                89
            ],
            "min": [
                0
            ],
            "name": "mesh130_idx_accessor",
            "type": "SCALAR"
        },
        {
            "bufferView": 24,
            "componentType": 5126,
            "count": 116,
            "max": [
                -0.0253057349473238,
                0.01183236949145794,
                0.012000000104308128
            ],
            "min": [
                -0.03434426710009575,
                0.0021683741360902786,
                0.006000000052154064
            ],
            "name": "mesh131_coord_accessor",
            "type": "VEC3"
        },
        {
            "bufferView": 25,
            "componentType": 5126,
            "count": 116,
            "max": [
                0.8647553324699402,
                0.49926671385765076,
                1.0
            ],
            "min": [
                -0.8647553324699402,
                -0.49926671385765076,
                -1.0
            ],
            "name": "mesh131_norm_accessor",
            "type": "VEC3"
        },
        {
            "bufferView": 26,
            "componentType": 5125,
            "count": 348,
            "max": [
                115
            ],
            "min": [
                0
            ],
            "name": "mesh131_idx_accessor",
            "type": "SCALAR"
        },
        {
            "bufferView": 27,
            "componentType": 5126,
            "count": 116,
            "max": [
                -0.029155734926462173,
                0.00516397412866354,
                0.012000000104308128
            ],
            "min": [
                -0.03434426710009575,
                0.0021683741360902786,
                0.006000000052154064
            ],
            "name": "mesh132_coord_accessor",
            "type": "VEC3"
        },
        {
            "bufferView": 28,
            "componentType": 5126,
            "count": 116,
            "max": [
                -0.5,
                -0.8660253882408142,
                0.0
            ],
            "min": [
                -0.5,
                -0.8660253882408142,
                0.0
            ],
            "name": "mesh132_norm_accessor",
            "type": "VEC3"
        },
        {
            "bufferView": 29,
            "componentType": 5125,
            "count": 348,
            "max": [
                115
            ],
            "min": [
                0
            ],
            "name": "mesh132_idx_accessor",
            "type": "SCALAR"
        },
        {
            "bufferView": 30,
            "componentType": 5126,
            "count": 116,
            "max": [
                -0.029588112607598305,
                0.004914341028779745,
                0.011500000022351742
            ],
            "min": [
                -0.037086889147758484,
                -0.0030812539625912905,
                0.006500000134110451
            ],
            "name": "mesh133_coord_accessor",
            "type": "VEC3"
        },
        {
            "bufferView": 31,
            "componentType": 5126,
            "count": 116,
            "max": [
                0.8647553324699402,
                0.49926671385765076,
                1.0
            ],
            "min": [
                -0.8647553324699402,
                -0.49926671385765076,
                -1.0
            ],
            "name": "mesh133_norm_accessor",
            "type": "VEC3"
        },
        {
            "bufferView": 32,
            "componentType": 5125,
            "count": 348,
            "max": [
                115
            ],
            "min": [
                0
            ],
            "name": "mesh133_idx_accessor",
            "type": "SCALAR"
        },
        {
            "bufferView": 33,
            "componentType": 5126,
            "count": 116,
            "max": [
                -0.03276311233639717,
                -0.0005849203444086015,
                0.011500000022351742
            ],
            "min": [
                -0.03709006309509277,
                -0.005583086982369423,
                0.006500000134110451
            ],
            "name": "mesh134_coord_accessor",
            "type": "VEC3"
        },
        {
            "bufferView": 34,
            "componentType": 5126,
            "count": 116,
            "max": [
                0.5,
                4.807406960546706e-16,
                0.8660253882408142
            ],
            "min": [
                -1.0,
                -0.8660253882408142,
                -0.8660253882408142
            ],
            "name": "mesh134_norm_accessor",
            "type": "VEC3"
        },
        {
            "bufferView": 35,
            "componentType": 5125,
            "count": 174,
            "max": [
                115
            ],
            "min": [
                0
            ],
            "name": "mesh134_idx_accessor",
            "type": "SCALAR"
        },
        {
            "bufferView": 36,
            "componentType": 5126,
            "count": 50,
            "max": [
                0.027899999171495438,
                0.018994823098182678,
                0.0
            ],
            "min": [
                -0.027899999171495438,
                -0.029329393059015274,
                0.0
            ],
            "name": "mesh135_coord_accessor",
            "type": "VEC3"
        },
        {
            "bufferView": 37,
            "componentType": 5126,
            "count": 50,
            "max": [
                -0.0,
                -0.0,
                -1.0
            ],
            "min": [
                -0.0,
                -0.0,
                -1.0
            ],
            "name": "mesh135_norm_accessor",
            "type": "VEC3"
        },
        {
            "bufferView": 38,
            "componentType": 5125,
            "count": 144,
            "max": [
                49
            ],
            "min": [
                0
            ],
            "name": "mesh135_idx_accessor",
            "type": "SCALAR"
        },
        {
            "bufferView": 39,
            "componentType": 5126,
            "count": 60,
            "max": [
                0.004999999888241291,
                -0.029329393059015274,
                0.017999999225139618
            ],
            "min": [
                -0.004999999888241291,
                -0.03831619396805763,
                0.0
            ],
            "name": "mesh136_coord_accessor",
            "type": "VEC3"
        },
        {
            "bufferView": 40,
            "componentType": 5126,
            "count": 60,
            "max": [
                -0.0,
                1.2246468525851679e-16,
                1.0
            ],
            "min": [
                -0.0,
                -0.9985334277153015,
                -1.0
            ],
            "name": "mesh136_norm_accessor",
            "type": "VEC3"
        },
        {
            "bufferView": 41,
            "componentType": 5125,
            "count": 174,
            "max": [
                59
            ],
            "min": [
                0
            ],
            "name": "mesh136_idx_accessor",
            "type": "SCALAR"
        },
        {
            "bufferView": 42,
            "componentType": 5126,
            "count": 90,
            "max": [
                0.004999999888241291,
                -0.013076696544885635,
                0.017999999225139618
            ],
            "min": [
                0.004999999888241291,
                -0.03831619396805763,
                0.0
            ],
            "name": "mesh137_coord_accessor",
            "type": "VEC3"
        },
        {
            "bufferView": 43,
            "componentType": 5126,
            "count": 90,
            "max": [
                1.0,
                0.0,
                0.0
            ],
            "min": [
                1.0,
                0.0,
                0.0
            ],
            "name": "mesh137_norm_accessor",
            "type": "VEC3"
        },
        {
            "bufferView": 44,
            "componentType": 5125,
            "count": 270,
            "max": [
                89
            ],
            "min": [
                0
            ],
            "name": "mesh137_idx_accessor",
            "type": "SCALAR"
        },
        {
            "bufferView": 45,
            "componentType": 5126,
            "count": 90,
            "max": [
                -0.004999999888241291,
                -0.013076696544885635,
                0.017999999225139618
            ],
            "min": [
                -0.004999999888241291,
                -0.03831619396805763,
                0.0
            ],
            "name": "mesh138_coord_accessor",
            "type": "VEC3"
        },
        {
            "bufferView": 46,
            "componentType": 5126,
            "count": 90,
            "max": [
                -1.0,
                -0.0,
                -0.0
            ],
            "min": [
                -1.0,
                -0.0,
                -0.0
            ],
            "name": "mesh138_norm_accessor",
            "type": "VEC3"
        },
        {
            "bufferView": 47,
            "componentType": 5125,
            "count": 270,
            "max": [
                89
            ],
            "min": [
                0
            ],
            "name": "mesh138_idx_accessor",
            "type": "SCALAR"
        },
        {
            "bufferView": 48,
            "componentType": 5126,
            "count": 60,
            "max": [
                0.0356827974319458,
                0.023488223552703857,
                0.017999999225139618
            ],
            "min": [
                0.02290000021457672,
                0.010334569960832596,
                0.0
            ],
            "name": "mesh139_coord_accessor",
            "type": "VEC3"
        },
        {
            "bufferView": 49,
            "componentType": 5126,
            "count": 60,
            "max": [
                0.8647553324699402,
                0.49926671385765076,
                1.0
            ],
            "min": [
                -1.0605752472130298e-16,
                -6.123234262925839e-17,
                -1.0
            ],
            "name": "mesh139_norm_accessor",
            "type": "VEC3"
        },
        {
            "bufferView": 50,
            "componentType": 5125,
            "count": 174,
            "max": [
                59
            ],
            "min": [
                0
            ],
            "name": "mesh139_idx_accessor",
            "type": "SCALAR"
        },
        {
            "bufferView": 51,
            "componentType": 5126,
            "count": 11,
            "max": [
                0.027899999171495438,
                0.018994823098182678,
                0.017999999225139618
            ],
            "min": [
                0.00882475171238184,
                0.002208221470937133,
                0.017999999225139618
            ],
            "name": "mesh140_coord_accessor",
            "type": "VEC3"
        },
        {
            "bufferView": 52,
            "componentType": 5126,
            "count": 11,
            "max": [
                0.0,
                0.0,
                1.0
            ],
            "min": [
                0.0,
                0.0,
                1.0
            ],
            "name": "mesh140_norm_accessor",
            "type": "VEC3"
        },
        {
            "bufferView": 53,
            "componentType": 5125,
            "count": 27,
            "max": [
                10
            ],
            "min": [
                0
            ],
            "name": "mesh140_idx_accessor",
            "type": "SCALAR"
        },
        {
            "bufferView": 54,
            "componentType": 5126,
            "count": 90,
            "max": [
                0.030682798475027084,
                0.023488223552703857,
                0.017999999225139618
            ],
            "min": [
                0.00882475171238184,
                0.010868475772440434,
                0.0
            ],
            "name": "mesh141_coord_accessor",
            "type": "VEC3"
        },
        {
            "bufferView": 55,
            "componentType": 5126,
            "count": 90,
            "max": [
                -0.5,
                0.8660253882408142,
                0.0
            ],
            "min": [
                -0.5,
                0.8660253882408142,
                0.0
            ],
            "name": "mesh141_norm_accessor",
            "type": "VEC3"
        },
        {
            "bufferView": 56,
            "componentType": 5125,
            "count": 270,
            "max": [
                89
            ],
            "min": [
                0
            ],
            "name": "mesh141_idx_accessor",
            "type": "SCALAR"
        },
        {
            "bufferView": 57,
            "componentType": 5126,
            "count": 90,
            "max": [
                0.0356827974319458,
                0.014827970415353775,
                0.017999999225139618
            ],
            "min": [
                0.01382475160062313,
                0.002208221470937133,
                0.0
            ],
            "name": "mesh142_coord_accessor",
            "type": "VEC3"
        },
        {
            "bufferView": 58,
            "componentType": 5126,
            "count": 90,
            "max": [
                0.5,
                -0.8660253882408142,
                -0.0
            ],
            "min": [
                0.5,
                -0.8660253882408142,
                -0.0
            ],
            "name": "mesh142_norm_accessor",
            "type": "VEC3"
        },
        {
            "bufferView": 59,
            "componentType": 5125,
            "count": 270,
            "max": [
                89
            ],
            "min": [
                0
            ],
            "name": "mesh142_idx_accessor",
            "type": "SCALAR"
        },
        {
            "bufferView": 60,
            "componentType": 5126,
            "count": 116,
            "max": [
                -0.004999999888241291,
                -0.026333793997764587,
                0.012000000104308128
            ],
            "min": [
                -0.01269999984651804,
                -0.03232499212026596,
                0.006000000052154064
            ],
            "name": "mesh143_coord_accessor",
            "type": "VEC3"
        },
        {
            "bufferView": 61,
            "componentType": 5126,
            "count": 116,
            "max": [
                0.0,
                0.9985334277153015,
                1.0
            ],
            "min": [
                0.0,
                -0.9985334277153015,
                -1.0
            ],
            "name": "mesh143_norm_accessor",
            "type": "VEC3"
        },
        {
            "bufferView": 62,
            "componentType": 5125,
            "count": 348,
            "max": [
                115
            ],
            "min": [
                0
            ],
            "name": "mesh143_idx_accessor",
            "type": "SCALAR"
        },
        {
            "bufferView": 63,
            "componentType": 5126,
            "count": 116,
            "max": [
                -0.01269999984651804,
                -0.026333793997764587,
                0.012000000104308128
            ],
            "min": [
                -0.01269999984651804,
                -0.03232499212026596,
                0.006000000052154064
            ],
            "name": "mesh144_coord_accessor",
            "type": "VEC3"
        },
        {
            "bufferView": 64,
            "componentType": 5126,
            "count": 116,
            "max": [
                -1.0,
                -0.0,
                -0.0
            ],
            "min": [
                -1.0,
                -0.0,
                -0.0
            ],
            "name": "mesh144_norm_accessor",
            "type": "VEC3"
        },
        {
            "bufferView": 65,
            "componentType": 5125,
            "count": 348,
            "max": [
                115
            ],
            "min": [
                0
            ],
            "name": "mesh144_idx_accessor",
            "type": "SCALAR"
        },
        {
            "bufferView": 66,
            "componentType": 5126,
            "count": 116,
            "max": [
                -0.01269999984651804,
                -0.026833059266209602,
                0.011500000022351742
            ],
            "min": [
                -0.019050000235438347,
                -0.031825728714466095,
                0.006500000134110451
            ],
            "name": "mesh145_coord_accessor",
            "type": "VEC3"
        },
        {
            "bufferView": 67,
            "componentType": 5126,
            "count": 116,
            "max": [
                0.0,
                0.9985334277153015,
                1.0
            ],
            "min": [
                0.0,
                -0.9985334277153015,
                -1.0
            ],
            "name": "mesh145_norm_accessor",
            "type": "VEC3"
        },
        {
            "bufferView": 68,
            "componentType": 5125,
            "count": 348,
            "max": [
                115
            ],
            "min": [
                0
            ],
            "name": "mesh145_idx_accessor",
            "type": "SCALAR"
        },
        {
            "bufferView": 69,
            "componentType": 5126,
            "count": 116,
            "max": [
                -0.019050000235438347,
                -0.026833059266209602,
                0.011500000022351742
            ],
            "min": [
                -0.023380126804113388,
                -0.031825728714466095,
                0.006500000134110451
            ],
            "name": "mesh146_coord_accessor",
            "type": "VEC3"
        },
        {
            "bufferView": 70,
            "componentType": 5126,
            "count": 116,
            "max": [
                -0.5,
                0.8660253882408142,
                0.8660253882408142
            ],
            "min": [
                -0.5,
                -0.8660253882408142,
                -0.8660253882408142
            ],
            "name": "mesh146_norm_accessor",
            "type": "VEC3"
        },
        {
            "bufferView": 71,
            "componentType": 5125,
            "count": 174,
            "max": [
                115
            ],
            "min": [
                0
            ],
            "name": "mesh146_idx_accessor",
            "type": "SCALAR"
        },
        {
            "bufferView": 72,
            "componentType": 5126,
            "count": 116,
            "max": [
                0.01269999984651804,
                -0.026333793997764587,
                0.012000000104308128
            ],
            "min": [
                0.004999999888241291,
                -0.03232499212026596,
                0.006000000052154064
            ],
            "name": "mesh147_coord_accessor",
            "type": "VEC3"
        },
        {
            "bufferView": 73,
            "componentType": 5126,
            "count": 116,
            "max": [
                0.0,
                0.9985334277153015,
                1.0
            ],
            "min": [
                0.0,
                -0.9985334277153015,
                -1.0
            ],
            "name": "mesh147_norm_accessor",
            "type": "VEC3"
        },
        {
            "bufferView": 74,
            "componentType": 5125,
            "count": 348,
            "max": [
                115
            ],
            "min": [
                0
            ],
            "name": "mesh147_idx_accessor",
            "type": "SCALAR"
        },
        {
            "bufferView": 75,
            "componentType": 5126,
            "count": 116,
            "max": [
                0.01269999984651804,
                -0.026333793997764587,
                0.012000000104308128
            ],
            "min": [
                0.01269999984651804,
                -0.03232499212026596,
                0.006000000052154064
            ],
            "name": "mesh148_coord_accessor",
            "type": "VEC3"
        },
        {
            "bufferView": 76,
            "componentType": 5126,
            "count": 116,
            "max": [
                1.0,
                0.0,
                0.0
            ],
            "min": [
                1.0,
                0.0,
                0.0
            ],
            "name": "mesh148_norm_accessor",
            "type": "VEC3"
        },
        {
            "bufferView": 77,
            "componentType": 5125,
            "count": 348,
            "max": [
                115
            ],
            "min": [
                0
            ],
            "name": "mesh148_idx_accessor",
            "type": "SCALAR"
        },
        {
            "bufferView": 78,
            "componentType": 5126,
            "count": 116,
            "max": [
                0.019050000235438347,
                -0.026833059266209602,
                0.011500000022351742
            ],
            "min": [
                0.01269999984651804,
                -0.031825728714466095,
                0.006500000134110451
            ],
            "name": "mesh149_coord_accessor",
            "type": "VEC3"
        },
        {
            "bufferView": 79,
            "componentType": 5126,
            "count": 116,
            "max": [
                0.0,
                0.9985334277153015,
                1.0
            ],
            "min": [
                0.0,
                -0.9985334277153015,
                -1.0
            ],
            "name": "mesh149_norm_accessor",
            "type": "VEC3"
        },
        {
            "bufferView": 80,
            "componentType": 5125,
            "count": 348,
            "max": [
                115
            ],
            "min": [
                0
            ],
            "name": "mesh149_idx_accessor",
            "type": "SCALAR"
        },
        {
            "bufferView": 81,
            "componentType": 5126,
            "count": 116,
            "max": [
                0.023380126804113388,
                -0.026833059266209602,
                0.011500000022351742
            ],
            "min": [
                0.019050000235438347,
                -0.031825728714466095,
                0.006500000134110451
            ],
            "name": "mesh150_coord_accessor",
            "type": "VEC3"
        },
        {
            "bufferView": 82,
            "componentType": 5126,
            "count": 116,
            "max": [
                0.5,
                0.8660253882408142,
                0.8660253882408142
            ],
            "min": [
                0.5,
                -0.8660253882408142,
                -0.8660253882408142
            ],
            "name": "mesh150_norm_accessor",
            "type": "VEC3"
        },
        {
            "bufferView": 83,
            "componentType": 5125,
            "count": 174,
            "max": [
                115
            ],
            "min": [
                0
            ],
            "name": "mesh150_idx_accessor",
            "type": "SCALAR"
        },
        {
            "bufferView": 84,
            "componentType": 5126,
            "count": 116,
            "max": [
                0.03434426710009575,
                0.01183236949145794,
                0.012000000104308128
            ],
            "min": [
                0.0253057349473238,
                0.0021683741360902786,
                0.006000000052154064
            ],
            "name": "mesh151_coord_accessor",
            "type": "VEC3"
        },
        {
            "bufferView": 85,
            "componentType": 5126,
            "count": 116,
            "max": [
                0.8647553324699402,
                0.49926671385765076,
                1.0
            ],
            "min": [
                -0.8647553324699402,
                -0.49926671385765076,
                -1.0
            ],
            "name": "mesh151_norm_accessor",
            "type": "VEC3"
        },
        {
            "bufferView": 86,
            "componentType": 5125,
            "count": 348,
            "max": [
                115
            ],
            "min": [
                0
            ],
            "name": "mesh151_idx_accessor",
            "type": "SCALAR"
        },
        {
            "bufferView": 87,
            "componentType": 5126,
            "count": 116,
            "max": [
                0.03434426710009575,
                0.00516397412866354,
                0.012000000104308128
            ],
            "min": [
                0.029155734926462173,
                0.0021683741360902786,
                0.006000000052154064
            ],
            "name": "mesh152_coord_accessor",
            "type": "VEC3"
        },
        {
            "bufferView": 88,
            "componentType": 5126,
            "count": 116,
            "max": [
                0.5,
                -0.8660253882408142,
                -0.0
            ],
            "min": [
                0.5,
                -0.8660253882408142,
                -0.0
            ],
            "name": "mesh152_norm_accessor",
            "type": "VEC3"
        },
        {
            "bufferView": 89,
            "componentType": 5125,
            "count": 348,
            "max": [
                115
            ],
            "min": [
                0
            ],
            "name": "mesh152_idx_accessor",
            "type": "SCALAR"
        },
        {
            "bufferView": 90,
            "componentType": 5126,
            "count": 116,
            "max": [
                0.037086889147758484,
                0.004914341028779745,
                0.011500000022351742
            ],
            "min": [
                0.029588112607598305,
                -0.0030812539625912905,
                0.006500000134110451
            ],
            "name": "mesh153_coord_accessor",
            "type": "VEC3"
        },
        {
            "bufferView": 91,
            "componentType": 5126,
            "count": 116,
            "max": [
                0.8647553324699402,
                0.49926671385765076,
                1.0
            ],
            "min": [
                -0.8647553324699402,
                -0.49926671385765076,
                -1.0
            ],
            "name": "mesh153_norm_accessor",
            "type": "VEC3"
        },
        {
            "bufferView": 92,
            "componentType": 5125,
            "count": 348,
            "max": [
                115
            ],
            "min": [
                0
            ],
            "name": "mesh153_idx_accessor",
            "type": "SCALAR"
        },
        {
            "bufferView": 93,
            "componentType": 5126,
            "count": 116,
            "max": [
                0.03709006309509277,
                -0.0005849203444086015,
                0.011500000022351742
            ],
            "min": [
                0.03276311233639717,
                -0.005583086982369423,
                0.006500000134110451
            ],
            "name": "mesh154_coord_accessor",
            "type": "VEC3"
        },
        {
            "bufferView": 94,
            "componentType": 5126,
            "count": 116,
            "max": [
                1.0,
                -6.347073518804486e-32,
                0.8660253882408142
            ],
            "min": [
                -0.5,
                -0.8660253882408142,
                -0.8660253882408142
            ],
            "name": "mesh154_norm_accessor",
            "type": "VEC3"
        },
        {
            "bufferView": 95,
            "componentType": 5125,
            "count": 174,
            "max": [
                115
            ],
            "min": [
                0
            ],
            "name": "mesh154_idx_accessor",
            "type": "SCALAR"
        },
        {
            "bufferView": 96,
            "componentType": 5126,
            "count": 116,
            "max": [
                0.02549426630139351,
                0.027161018922924995,
                0.012000000104308128
            ],
            "min": [
                0.01645573414862156,
                0.017497023567557335,
                0.006000000052154064
            ],
            "name": "mesh155_coord_accessor",
            "type": "VEC3"
        },
        {
            "bufferView": 97,
            "componentType": 5126,
            "count": 116,
            "max": [
                0.8647553324699402,
                0.49926671385765076,
                1.0
            ],
            "min": [
                -0.8647553324699402,
                -0.49926671385765076,
                -1.0
            ],
            "name": "mesh155_norm_accessor",
            "type": "VEC3"
        },
        {
            "bufferView": 98,
            "componentType": 5125,
            "count": 348,
            "max": [
                115
            ],
            "min": [
                0
            ],
            "name": "mesh155_idx_accessor",
            "type": "SCALAR"
        },
        {
            "bufferView": 99,
            "componentType": 5126,
            "count": 116,
            "max": [
                0.021644266322255135,
                0.027161018922924995,
                0.012000000104308128
            ],
            "min": [
                0.01645573414862156,
                0.02416541986167431,
                0.006000000052154064
            ],
            "name": "mesh156_coord_accessor",
            "type": "VEC3"
        },
        {
            "bufferView": 100,
            "componentType": 5126,
            "count": 116,
            "max": [
                -0.5,
                0.8660253882408142,
                0.0
            ],
            "min": [
                -0.5,
                0.8660253882408142,
                0.0
            ],
            "name": "mesh156_norm_accessor",
            "type": "VEC3"
        },
        {
            "bufferView": 101,
            "componentType": 5125,
            "count": 348,
            "max": [
                115
            ],
            "min": [
                0
            ],
            "name": "mesh156_idx_accessor",
            "type": "SCALAR"
        },
        {
            "bufferView": 102,
            "componentType": 5126,
            "count": 116,
            "max": [
                0.021211888641119003,
                0.032410647720098495,
                0.011500000022351742
            ],
            "min": [
                0.013713112100958824,
                0.02441505342721939,
                0.006500000134110451
            ],
            "name": "mesh157_coord_accessor",
            "type": "VEC3"
        },
        {
            "bufferView": 103,
            "componentType": 5126,
            "count": 116,
            "max": [
                0.8647553324699402,
                0.49926671385765076,
                1.0
            ],
            "min": [
                -0.8647553324699402,
                -0.49926671385765076,
                -1.0
            ],
            "name": "mesh157_norm_accessor",
            "type": "VEC3"
        },
        {
            "bufferView": 104,
            "componentType": 5125,
            "count": 348,
            "max": [
                115
            ],
            "min": [
                0
            ],
            "name": "mesh157_idx_accessor",
            "type": "SCALAR"
        },
        {
            "bufferView": 105,
            "componentType": 5126,
            "count": 116,
            "max": [
                0.018036888912320137,
                0.034912481904029846,
                0.011500000022351742
            ],
            "min": [
                0.013709936290979385,
                0.029914313927292824,
                0.006500000134110451
            ],
            "name": "mesh158_coord_accessor",
            "type": "VEC3"
        },
        {
            "bufferView": 106,
            "componentType": 5126,
            "count": 116,
            "max": [
                0.5,
                0.8660253882408142,
                0.8660253882408142
            ],
            "min": [
                -1.0,
                6.347073518804486e-32,
                -0.8660253882408142
            ],
            "name": "mesh158_norm_accessor",
            "type": "VEC3"
        },
        {
            "bufferView": 107,
            "componentType": 5125,
            "count": 174,
            "max": [
                115
            ],
            "min": [
                0
            ],
            "name": "mesh158_idx_accessor",
            "type": "SCALAR"
        },
        {
            "bufferView": 108,
            "componentType": 5126,
            "count": 120,
            "max": [
                0.013999995775520802,
                0.013979488052427769,
                0.0243500005453825
            ],
            "min": [
                -0.013999995775520802,
                -0.01348443515598774,
                0.0
            ],
            "name": "mesh159_coord_accessor",
            "type": "VEC3"
        },
        {
            "bufferView": 109,
            "componentType": 5126,
            "count": 120,
            "max": [
                0.9999997019767761,
                0.9985348582267761,
                -0.0
            ],
            "min": [
                -0.9999997019767761,
                -0.9631739258766174,
                -0.0
            ],
            "name": "mesh159_norm_accessor",
            "type": "VEC3"
        },
        {
            "bufferView": 110,
            "componentType": 5125,
            "count": 354,
            "max": [
                119
            ],
            "min": [
                0
            ],
            "name": "mesh159_idx_accessor",
            "type": "SCALAR"
        },
        {
            "bufferView": 111,
            "componentType": 5126,
            "count": 58,
            "max": [
                0.010499735362827778,
                0.010484461672604084,
                0.017999999225139618
            ],
            "min": [
                -0.010499735362827778,
                -0.029329393059015274,
                0.017999999225139618
            ],
            "name": "mesh160_coord_accessor",
            "type": "VEC3"
        },
        {
            "bufferView": 112,
            "componentType": 5126,
            "count": 58,
            "max": [
                0.0,
                0.0,
                1.0
            ],
            "min": [
                0.0,
                0.0,
                1.0
            ],
            "name": "mesh160_norm_accessor",
            "type": "VEC3"
        },
        {
            "bufferView": 113,
            "componentType": 5125,
            "count": 168,
            "max": [
                57
            ],
            "min": [
                0
            ],
            "name": "mesh160_idx_accessor",
            "type": "SCALAR"
        },
        {
            "bufferView": 114,
            "componentType": 5126,
            "count": 104,
            "max": [
                0.010499735362827778,
                0.010484461672604084,
                0.0243500005453825
            ],
            "min": [
                -0.010499735362827778,
                -0.009802039712667465,
                0.017999999225139618
            ],
            "name": "mesh161_coord_accessor",
            "type": "VEC3"
        },
        {
            "bufferView": 115,
            "componentType": 5126,
            "count": 104,
            "max": [
                0.99997478723526,
                0.9335275888442993,
                -0.0
            ],
            "min": [
                -0.99997478723526,
                -0.9985201358795166,
                -0.0
            ],
            "name": "mesh161_norm_accessor",
            "type": "VEC3"
        },
        {
            "bufferView": 116,
            "componentType": 5125,
            "count": 306,
            "max": [
                103
            ],
            "min": [
                0
            ],
            "name": "mesh161_idx_accessor",
            "type": "SCALAR"
        },
        {
            "bufferView": 117,
            "componentType": 5126,
            "count": 106,
            "max": [
                0.013999995775520802,
                0.013979488052427769,
                0.0243500005453825
            ],
            "min": [
                -0.013999995775520802,
                -0.01348443515598774,
                0.0243500005453825
            ],
            "name": "mesh162_coord_accessor",
            "type": "VEC3"
        },
        {
            "bufferView": 118,
            "componentType": 5126,
            "count": 106,
            "max": [
                0.0,
                0.0,
                1.0
            ],
            "min": [
                0.0,
                0.0,
                1.0
            ],
            "name": "mesh162_norm_accessor",
            "type": "VEC3"
        },
        {
            "bufferView": 119,
            "componentType": 5125,
            "count": 312,
            "max": [
                105
            ],
            "min": [
                0
            ],
            "name": "mesh162_idx_accessor",
            "type": "SCALAR"
        },
        {
            "bufferView": 120,
            "componentType": 5126,
            "count": 4,
            "max": [
                0.0037643080577254295,
                -0.009802039712667465,
                0.0243500005453825
            ],
            "min": [
                0.0037643080577254295,
                -0.01348443515598774,
                0.017999999225139618
            ],
            "name": "mesh163_coord_accessor",
            "type": "VEC3"
        },
        {
            "bufferView": 121,
            "componentType": 5126,
            "count": 4,
            "max": [
                -1.0,
                0.0,
                0.0
            ],
            "min": [
                -1.0,
                0.0,
                0.0
            ],
            "name": "mesh163_norm_accessor",
            "type": "VEC3"
        },
        {
            "bufferView": 122,
            "componentType": 5125,
            "count": 6,
            "max": [
                3
            ],
            "min": [
                0
            ],
            "name": "mesh163_idx_accessor",
            "type": "SCALAR"
        },
        {
            "bufferView": 123,
            "componentType": 5126,
            "count": 4,
            "max": [
                -0.0037643080577254295,
                -0.009802039712667465,
                0.0243500005453825
            ],
            "min": [
                -0.0037643080577254295,
                -0.01348443515598774,
                0.017999999225139618
            ],
            "name": "mesh164_coord_accessor",
            "type": "VEC3"
        },
        {
            "bufferView": 124,
            "componentType": 5126,
            "count": 4,
            "max": [
                1.0,
                -0.0,
                -0.0
            ],
            "min": [
                1.0,
                -0.0,
                -0.0
            ],
            "name": "mesh164_norm_accessor",
            "type": "VEC3"
        },
        {
            "bufferView": 125,
            "componentType": 5125,
            "count": 6,
            "max": [
                3
            ],
            "min": [
                0
            ],
            "name": "mesh164_idx_accessor",
            "type": "SCALAR"
        }
    ],
    "asset": {
        "generator": "ONSHAPE BY PTC INC, 1.221",
        "version": "2.0"
    },
    "bufferViews": [
        {
            "buffer": 0,
            "byteLength": 1392,
            "name": "mesh123_coord_bufferView",
            "target": 34962
        },
        {
            "buffer": 0,
            "byteLength": 1392,
            "byteOffset": 1392,
            "name": "mesh123_norm_bufferView",
            "target": 34962
        },
        {
            "buffer": 0,
            "byteLength": 696,
            "byteOffset": 2784,
            "name": "mesh123_idx_bufferView",
            "target": 34963
        },
        {
            "buffer": 0,
            "byteLength": 1392,
            "byteOffset": 3480,
            "name": "mesh124_coord_bufferView",
            "target": 34962
        },
        {
            "buffer": 0,
            "byteLength": 1392,
            "byteOffset": 4872,
            "name": "mesh124_norm_bufferView",
            "target": 34962
        },
        {
            "buffer": 0,
            "byteLength": 1392,
            "byteOffset": 6264,
            "name": "mesh124_idx_bufferView",
            "target": 34963
        },
        {
            "buffer": 0,
            "byteLength": 1392,
            "byteOffset": 7656,
            "name": "mesh125_coord_bufferView",
            "target": 34962
        },
        {
            "buffer": 0,
            "byteLength": 1392,
            "byteOffset": 9048,
            "name": "mesh125_norm_bufferView",
            "target": 34962
        },
        {
            "buffer": 0,
            "byteLength": 1392,
            "byteOffset": 10440,
            "name": "mesh125_idx_bufferView",
            "target": 34963
        },
        {
            "buffer": 0,
            "byteLength": 1392,
            "byteOffset": 11832,
            "name": "mesh126_coord_bufferView",
            "target": 34962
        },
        {
            "buffer": 0,
            "byteLength": 1392,
            "byteOffset": 13224,
            "name": "mesh126_norm_bufferView",
            "target": 34962
        },
        {
            "buffer": 0,
            "byteLength": 1392,
            "byteOffset": 14616,
            "name": "mesh126_idx_bufferView",
            "target": 34963
        },
        {
            "buffer": 0,
            "byteLength": 1080,
            "byteOffset": 16008,
            "name": "mesh127_coord_bufferView",
            "target": 34962
        },
        {
            "buffer": 0,
            "byteLength": 1080,
            "byteOffset": 17088,
            "name": "mesh127_norm_bufferView",
            "target": 34962
        },
        {
            "buffer": 0,
            "byteLength": 1080,
            "byteOffset": 18168,
            "name": "mesh127_idx_bufferView",
            "target": 34963
        },
        {
            "buffer": 0,
            "byteLength": 132,
            "byteOffset": 19248,
            "name": "mesh128_coord_bufferView",
            "target": 34962
        },
        {
            "buffer": 0,
            "byteLength": 132,
            "byteOffset": 19380,
            "name": "mesh128_norm_bufferView",
            "target": 34962
        },
        {
            "buffer": 0,
            "byteLength": 108,
            "byteOffset": 19512,
            "name": "mesh128_idx_bufferView",
            "target": 34963
        },
        {
            "buffer": 0,
            "byteLength": 720,
            "byteOffset": 19620,
            "name": "mesh129_coord_bufferView",
            "target": 34962
        },
        {
            "buffer": 0,
            "byteLength": 720,
            "byteOffset": 20340,
            "name": "mesh129_norm_bufferView",
            "target": 34962
        },
        {
            "buffer": 0,
            "byteLength": 696,
            "byteOffset": 21060,
            "name": "mesh129_idx_bufferView",
            "target": 34963
        },
        {
            "buffer": 0,
            "byteLength": 1080,
            "byteOffset": 21756,
            "name": "mesh130_coord_bufferView",
            "target": 34962
        },
        {
            "buffer": 0,
            "byteLength": 1080,
            "byteOffset": 22836,
            "name": "mesh130_norm_bufferView",
            "target": 34962
        },
        {
            "buffer": 0,
            "byteLength": 1080,
            "byteOffset": 23916,
            "name": "mesh130_idx_bufferView",
            "target": 34963
        },
        {
            "buffer": 0,
            "byteLength": 1392,
            "byteOffset": 24996,
            "name": "mesh131_coord_bufferView",
            "target": 34962
        },
        {
            "buffer": 0,
            "byteLength": 1392,
            "byteOffset": 26388,
            "name": "mesh131_norm_bufferView",
            "target": 34962
        },
        {
            "buffer": 0,
            "byteLength": 1392,
            "byteOffset": 27780,
            "name": "mesh131_idx_bufferView",
            "target": 34963
        },
        {
            "buffer": 0,
            "byteLength": 1392,
            "byteOffset": 29172,
            "name": "mesh132_coord_bufferView",
            "target": 34962
        },
        {
            "buffer": 0,
            "byteLength": 1392,
            "byteOffset": 30564,
            "name": "mesh132_norm_bufferView",
            "target": 34962
        },
        {
            "buffer": 0,
            "byteLength": 1392,
            "byteOffset": 31956,
            "name": "mesh132_idx_bufferView",
            "target": 34963
        },
        {
            "buffer": 0,
            "byteLength": 1392,
            "byteOffset": 33348,
            "name": "mesh133_coord_bufferView",
            "target": 34962
        },
        {
            "buffer": 0,
            "byteLength": 1392,
            "byteOffset": 34740,
            "name": "mesh133_norm_bufferView",
            "target": 34962
        },
        {
            "buffer": 0,
            "byteLength": 1392,
            "byteOffset": 36132,
            "name": "mesh133_idx_bufferView",
            "target": 34963
        },
        {
            "buffer": 0,
            "byteLength": 1392,
            "byteOffset": 37524,
            "name": "mesh134_coord_bufferView",
            "target": 34962
        },
        {
            "buffer": 0,
            "byteLength": 1392,
            "byteOffset": 38916,
            "name": "mesh134_norm_bufferView",
            "target": 34962
        },
        {
            "buffer": 0,
            "byteLength": 696,
            "byteOffset": 40308,
            "name": "mesh134_idx_bufferView",
            "target": 34963
        },
        {
            "buffer": 0,
            "byteLength": 600,
            "byteOffset": 41004,
            "name": "mesh135_coord_bufferView",
            "target": 34962
        },
        {
            "buffer": 0,
            "byteLength": 600,
            "byteOffset": 41604,
            "name": "mesh135_norm_bufferView",
            "target": 34962
        },
        {
            "buffer": 0,
            "byteLength": 576,
            "byteOffset": 42204,
            "name": "mesh135_idx_bufferView",
            "target": 34963
        },
        {
            "buffer": 0,
            "byteLength": 720,
            "byteOffset": 42780,
            "name": "mesh136_coord_bufferView",
            "target": 34962
        },
        {
            "buffer": 0,
            "byteLength": 720,
            "byteOffset": 43500,
            "name": "mesh136_norm_bufferView",
            "target": 34962
        },
        {
            "buffer": 0,
            "byteLength": 696,
            "byteOffset": 44220,
            "name": "mesh136_idx_bufferView",
            "target": 34963
        },
        {
            "buffer": 0,
            "byteLength": 1080,
            "byteOffset": 44916,
            "name": "mesh137_coord_bufferView",
            "target": 34962
        },
        {
            "buffer": 0,
            "byteLength": 1080,
            "byteOffset": 45996,
            "name": "mesh137_norm_bufferView",
            "target": 34962
        },
        {
            "buffer": 0,
            "byteLength": 1080,
            "byteOffset": 47076,
            "name": "mesh137_idx_bufferView",
            "target": 34963
        },
        {
            "buffer": 0,
            "byteLength": 1080,
            "byteOffset": 48156,
            "name": "mesh138_coord_bufferView",
            "target": 34962
        },
        {
            "buffer": 0,
            "byteLength": 1080,
            "byteOffset": 49236,
            "name": "mesh138_norm_bufferView",
            "target": 34962
        },
        {
            "buffer": 0,
            "byteLength": 1080,
            "byteOffset": 50316,
            "name": "mesh138_idx_bufferView",
            "target": 34963
        },
        {
            "buffer": 0,
            "byteLength": 720,
            "byteOffset": 51396,
            "name": "mesh139_coord_bufferView",
            "target": 34962
        },
        {
            "buffer": 0,
            "byteLength": 720,
            "byteOffset": 52116,
            "name": "mesh139_norm_bufferView",
            "target": 34962
        },
        {
            "buffer": 0,
            "byteLength": 696,
            "byteOffset": 52836,
            "name": "mesh139_idx_bufferView",
            "target": 34963
        },
        {
            "buffer": 0,
            "byteLength": 132,
            "byteOffset": 53532,
            "name": "mesh140_coord_bufferView",
            "target": 34962
        },
        {
            "buffer": 0,
            "byteLength": 132,
            "byteOffset": 53664,
            "name": "mesh140_norm_bufferView",
            "target": 34962
        },
        {
            "buffer": 0,
            "byteLength": 108,
            "byteOffset": 53796,
            "name": "mesh140_idx_bufferView",
            "target": 34963
        },
        {
            "buffer": 0,
            "byteLength": 1080,
            "byteOffset": 53904,
            "name": "mesh141_coord_bufferView",
            "target": 34962
        },
        {
            "buffer": 0,
            "byteLength": 1080,
            "byteOffset": 54984,
            "name": "mesh141_norm_bufferView",
            "target": 34962
        },
        {
            "buffer": 0,
            "byteLength": 1080,
            "byteOffset": 56064,
            "name": "mesh141_idx_bufferView",
            "target": 34963
        },
        {
            "buffer": 0,
            "byteLength": 1080,
            "byteOffset": 57144,
            "name": "mesh142_coord_bufferView",
            "target": 34962
        },
        {
            "buffer": 0,
            "byteLength": 1080,
            "byteOffset": 58224,
            "name": "mesh142_norm_bufferView",
            "target": 34962
        },
        {
            "buffer": 0,
            "byteLength": 1080,
            "byteOffset": 59304,
            "name": "mesh142_idx_bufferView",
            "target": 34963
        },
        {
            "buffer": 0,
            "byteLength": 1392,
            "byteOffset": 60384,
            "name": "mesh143_coord_bufferView",
            "target": 34962
        },
        {
            "buffer": 0,
            "byteLength": 1392,
            "byteOffset": 61776,
            "name": "mesh143_norm_bufferView",
            "target": 34962
        },
        {
            "buffer": 0,
            "byteLength": 1392,
            "byteOffset": 63168,
            "name": "mesh143_idx_bufferView",
            "target": 34963
        },
        {
            "buffer": 0,
            "byteLength": 1392,
            "byteOffset": 64560,
            "name": "mesh144_coord_bufferView",
            "target": 34962
        },
        {
            "buffer": 0,
            "byteLength": 1392,
            "byteOffset": 65952,
            "name": "mesh144_norm_bufferView",
            "target": 34962
        },
        {
            "buffer": 0,
            "byteLength": 1392,
            "byteOffset": 67344,
            "name": "mesh144_idx_bufferView",
            "target": 34963
        },
        {
            "buffer": 0,
            "byteLength": 1392,
            "byteOffset": 68736,
            "name": "mesh145_coord_bufferView",
            "target": 34962
        },
        {
            "buffer": 0,
            "byteLength": 1392,
            "byteOffset": 70128,
            "name": "mesh145_norm_bufferView",
            "target": 34962
        },
        {
            "buffer": 0,
            "byteLength": 1392,
            "byteOffset": 71520,
            "name": "mesh145_idx_bufferView",
            "target": 34963
        },
        {
            "buffer": 0,
            "byteLength": 1392,
            "byteOffset": 72912,
            "name": "mesh146_coord_bufferView",
            "target": 34962
        },
        {
            "buffer": 0,
            "byteLength": 1392,
            "byteOffset": 74304,
            "name": "mesh146_norm_bufferView",
            "target": 34962
        },
        {
            "buffer": 0,
            "byteLength": 696,
            "byteOffset": 75696,
            "name": "mesh146_idx_bufferView",
            "target": 34963
        },
        {
            "buffer": 0,
            "byteLength": 1392,
            "byteOffset": 76392,
            "name": "mesh147_coord_bufferView",
            "target": 34962
        },
        {
            "buffer": 0,
            "byteLength": 1392,
            "byteOffset": 77784,
            "name": "mesh147_norm_bufferView",
            "target": 34962
        },
        {
            "buffer": 0,
            "byteLength": 1392,
            "byteOffset": 79176,
            "name": "mesh147_idx_bufferView",
            "target": 34963
        },
        {
            "buffer": 0,
            "byteLength": 1392,
            "byteOffset": 80568,
            "name": "mesh148_coord_bufferView",
            "target": 34962
        },
        {
            "buffer": 0,
            "byteLength": 1392,
            "byteOffset": 81960,
            "name": "mesh148_norm_bufferView",
            "target": 34962
        },
        {
            "buffer": 0,
            "byteLength": 1392,
            "byteOffset": 83352,
            "name": "mesh148_idx_bufferView",
            "target": 34963
        },
        {
            "buffer": 0,
            "byteLength": 1392,
            "byteOffset": 84744,
            "name": "mesh149_coord_bufferView",
            "target": 34962
        },
        {
            "buffer": 0,
            "byteLength": 1392,
            "byteOffset": 86136,
            "name": "mesh149_norm_bufferView",
            "target": 34962
        },
        {
            "buffer": 0,
            "byteLength": 1392,
            "byteOffset": 87528,
            "name": "mesh149_idx_bufferView",
            "target": 34963
        },
        {
            "buffer": 0,
            "byteLength": 1392,
            "byteOffset": 88920,
            "name": "mesh150_coord_bufferView",
            "target": 34962
        },
        {
            "buffer": 0,
            "byteLength": 1392,
            "byteOffset": 90312,
            "name": "mesh150_norm_bufferView",
            "target": 34962
        },
        {
            "buffer": 0,
            "byteLength": 696,
            "byteOffset": 91704,
            "name": "mesh150_idx_bufferView",
            "target": 34963
        },
        {
            "buffer": 0,
            "byteLength": 1392,
            "byteOffset": 92400,
            "name": "mesh151_coord_bufferView",
            "target": 34962
        },
        {
            "buffer": 0,
            "byteLength": 1392,
            "byteOffset": 93792,
            "name": "mesh151_norm_bufferView",
            "target": 34962
        },
        {
            "buffer": 0,
            "byteLength": 1392,
            "byteOffset": 95184,
            "name": "mesh151_idx_bufferView",
            "target": 34963
        },
        {
            "buffer": 0,
            "byteLength": 1392,
            "byteOffset": 96576,
            "name": "mesh152_coord_bufferView",
            "target": 34962
        },
        {
            "buffer": 0,
            "byteLength": 1392,
            "byteOffset": 97968,
            "name": "mesh152_norm_bufferView",
            "target": 34962
        },
        {
            "buffer": 0,
            "byteLength": 1392,
            "byteOffset": 99360,
            "name": "mesh152_idx_bufferView",
            "target": 34963
        },
        {
            "buffer": 0,
            "byteLength": 1392,
            "byteOffset": 100752,
            "name": "mesh153_coord_bufferView",
            "target": 34962
        },
        {
            "buffer": 0,
            "byteLength": 1392,
            "byteOffset": 102144,
            "name": "mesh153_norm_bufferView",
            "target": 34962
        },
        {
            "buffer": 0,
            "byteLength": 1392,
            "byteOffset": 103536,
            "name": "mesh153_idx_bufferView",
            "target": 34963
        },
        {
            "buffer": 0,
            "byteLength": 1392,
            "byteOffset": 104928,
            "name": "mesh154_coord_bufferView",
            "target": 34962
        },
        {
            "buffer": 0,
            "byteLength": 1392,
            "byteOffset": 106320,
            "name": "mesh154_norm_bufferView",
            "target": 34962
        },
        {
            "buffer": 0,
            "byteLength": 696,
            "byteOffset": 107712,
            "name": "mesh154_idx_bufferView",
            "target": 34963
        },
        {
            "buffer": 0,
            "byteLength": 1392,
            "byteOffset": 108408,
            "name": "mesh155_coord_bufferView",
            "target": 34962
        },
        {
            "buffer": 0,
            "byteLength": 1392,
            "byteOffset": 109800,
            "name": "mesh155_norm_bufferView",
            "target": 34962
        },
        {
            "buffer": 0,
            "byteLength": 1392,
            "byteOffset": 111192,
            "name": "mesh155_idx_bufferView",
            "target": 34963
        },
        {
            "buffer": 0,
            "byteLength": 1392,
            "byteOffset": 112584,
            "name": "mesh156_coord_bufferView",
            "target": 34962
        },
        {
            "buffer": 0,
            "byteLength": 1392,
            "byteOffset": 113976,
            "name": "mesh156_norm_bufferView",
            "target": 34962
        },
        {
            "buffer": 0,
            "byteLength": 1392,
            "byteOffset": 115368,
            "name": "mesh156_idx_bufferView",
            "target": 34963
        },
        {
            "buffer": 0,
            "byteLength": 1392,
            "byteOffset": 116760,
            "name": "mesh157_coord_bufferView",
            "target": 34962
        },
        {
            "buffer": 0,
            "byteLength": 1392,
            "byteOffset": 118152,
            "name": "mesh157_norm_bufferView",
            "target": 34962
        },
        {
            "buffer": 0,
            "byteLength": 1392,
            "byteOffset": 119544,
            "name": "mesh157_idx_bufferView",
            "target": 34963
        },
        {
            "buffer": 0,
            "byteLength": 1392,
            "byteOffset": 120936,
            "name": "mesh158_coord_bufferView",
            "target": 34962
        },
        {
            "buffer": 0,
            "byteLength": 1392,
            "byteOffset": 122328,
            "name": "mesh158_norm_bufferView",
            "target": 34962
        },
        {
            "buffer": 0,
            "byteLength": 696,
            "byteOffset": 123720,
            "name": "mesh158_idx_bufferView",
            "target": 34963
        },
        {
            "buffer": 0,
            "byteLength": 1440,
            "byteOffset": 124416,
            "name": "mesh159_coord_bufferView",
            "target": 34962
        },
        {
            "buffer": 0,
            "byteLength": 1440,
            "byteOffset": 125856,
            "name": "mesh159_norm_bufferView",
            "target": 34962
        },
        {
            "buffer": 0,
            "byteLength": 1416,
            "byteOffset": 127296,
            "name": "mesh159_idx_bufferView",
            "target": 34963
        },
        {
            "buffer": 0,
            "byteLength": 696,
            "byteOffset": 128712,
            "name": "mesh160_coord_bufferView",
            "target": 34962
        },
        {
            "buffer": 0,
            "byteLength": 696,
            "byteOffset": 129408,
            "name": "mesh160_norm_bufferView",
            "target": 34962
        },
        {
            "buffer": 0,
            "byteLength": 672,
            "byteOffset": 130104,
            "name": "mesh160_idx_bufferView",
            "target": 34963
        },
        {
            "buffer": 0,
            "byteLength": 1248,
            "byteOffset": 130776,
            "name": "mesh161_coord_bufferView",
            "target": 34962
        },
        {
            "buffer": 0,
            "byteLength": 1248,
            "byteOffset": 132024,
            "name": "mesh161_norm_bufferView",
            "target": 34962
        },
        {
            "buffer": 0,
            "byteLength": 1224,
            "byteOffset": 133272,
            "name": "mesh161_idx_bufferView",
            "target": 34963
        },
        {
            "buffer": 0,
            "byteLength": 1272,
            "byteOffset": 134496,
            "name": "mesh162_coord_bufferView",
            "target": 34962
        },
        {
            "buffer": 0,
            "byteLength": 1272,
            "byteOffset": 135768,
            "name": "mesh162_norm_bufferView",
            "target": 34962
        },
        {
            "buffer": 0,
            "byteLength": 1248,
            "byteOffset": 137040,
            "name": "mesh162_idx_bufferView",
            "target": 34963
        },
        {
            "buffer": 0,
            "byteLength": 48,
            "byteOffset": 138288,
            "name": "mesh163_coord_bufferView",
            "target": 34962
        },
        {
            "buffer": 0,
            "byteLength": 48,
            "byteOffset": 138336,
            "name": "mesh163_norm_bufferView",
            "target": 34962
        },
        {
            "buffer": 0,
            "byteLength": 24,
            "byteOffset": 138384,
            "name": "mesh163_idx_bufferView",
            "target": 34963
        },
        {
            "buffer": 0,
            "byteLength": 48,
            "byteOffset": 138408,
            "name": "mesh164_coord_bufferView",
            "target": 34962
        },
        {
            "buffer": 0,
            "byteLength": 48,
            "byteOffset": 138456,
            "name": "mesh164_norm_bufferView",
            "target": 34962
        },
        {
            "buffer": 0,
            "byteLength": 24,
            "byteOffset": 138504,
            "name": "mesh164_idx_bufferView",
            "target": 34963
        }
    ],
    "buffers": [
        {
            "byteLength": 138528,
            "name": "Total_buffer",
            "uri": "data:application/octet-stream;base64,"
        }
    ],
    "extensionsUsed": [
        "PTC_onshape_metadata"
    ],
    "materials": [
        {
            "doubleSided": true,
            "name": "0.231373_0.380392_0.705882_0.000000_0.000000",
            "pbrMetallicRoughness": {
                "baseColorFactor": [
                    0.23137255012989044,
                    0.3803921639919281,
                    0.7058823704719543,
                    1.0
                ],
                "metallicFactor": 0.0
            }
        },
        {
            "doubleSided": true,
            "name": "0.615686_0.811765_0.929412_0.000000_0.000000",
            "pbrMetallicRoughness": {
                "baseColorFactor": [
                    0.615686297416687,
                    0.8117647171020508,
                    0.929411768913269,
                    1.0
                ],
                "metallicFactor": 0.0
            }
        },
        {
            "doubleSided": true,
            "name": "0.647059_0.647059_0.647059_0.000000_0.000000",
            "pbrMetallicRoughness": {
                "baseColorFactor": [
                    0.6470588445663452,
                    0.6470588445663452,
                    0.6470588445663452,
                    1.0
                ],
                "metallicFactor": 0.0
            }
        }
    ],
    "meshes": [
        {
            "name": "mesh123_mesh",
            "primitives": [
                {
                    "attributes": {
                        "NORMAL": 1,
                        "POSITION": 0
                    },
                    "indices": 2,
                    "material": 1
                }
            ]
        },
        {
            "name": "mesh124_mesh",
            "primitives": [
                {
                    "attributes": {
                        "NORMAL": 4,
                        "POSITION": 3
                    },
                    "indices": 5,
                    "material": 1
                }
            ]
        },
        {
            "name": "mesh125_mesh",
            "primitives": [
                {
                    "attributes": {
                        "NORMAL": 7,
                        "POSITION": 6
                    },
                    "indices": 8,
                    "material": 1
                }
            ]
        },
        {
            "name": "mesh126_mesh",
            "primitives": [
                {
                    "attributes": {
                        "NORMAL": 10,
                        "POSITION": 9
                    },
                    "indices": 11,
                    "material": 1
                }
            ]
        },
        {
            "name": "mesh127_mesh",
            "primitives": [
                {
                    "attributes": {
                        "NORMAL": 13,
                        "POSITION": 12
                    },
                    "indices": 14,
                    "material": 1
                }
            ]
        },
        {
            "name": "mesh128_mesh",
            "primitives": [
                {
                    "attributes": {
                        "NORMAL": 16,
                        "POSITION": 15
                    },
                    "indices": 17,
                    "material": 1
                }
            ]
        },
        {
            "name": "mesh129_mesh",
            "primitives": [
                {
                    "attributes": {
                        "NORMAL": 19,
                        "POSITION": 18
                    },
                    "indices": 20,
                    "material": 1
                }
            ]
        },
        {
            "name": "mesh130_mesh",
            "primitives": [
                {
                    "attributes": {
                        "NORMAL": 22,
                        "POSITION": 21
                    },
                    "indices": 23,
                    "material": 1
                }
            ]
        },
        {
            "name": "mesh131_mesh",
            "primitives": [
                {
                    "attributes": {
                        "NORMAL": 25,
                        "POSITION": 24
                    },
                    "indices": 26,
                    "material": 1
                }
            ]
        },
        {
            "name": "mesh132_mesh",
            "primitives": [
                {
                    "attributes": {
                        "NORMAL": 28,
                        "POSITION": 27
                    },
                    "indices": 29,
                    "material": 1
                }
            ]
        },
        {
            "name": "mesh133_mesh",
            "primitives": [
                {
                    "attributes": {
                        "NORMAL": 31,
                        "POSITION": 30
                    },
                    "indices": 32,
                    "material": 1
                }
            ]
        },
        {
            "name": "mesh134_mesh",
            "primitives": [
                {
                    "attributes": {
                        "NORMAL": 34,
                        "POSITION": 33
                    },
                    "indices": 35,
                    "material": 1
                }
            ]
        },
        {
            "name": "mesh135_mesh",
            "primitives": [
                {
                    "attributes": {
                        "NORMAL": 37,
                        "POSITION": 36
                    },
                    "indices": 38,
                    "material": 1
                }
            ]
        },
        {
            "name": "mesh136_mesh",
            "primitives": [
                {
                    "attributes": {
                        "NORMAL": 40,
                        "POSITION": 39
                    },
                    "indices": 41,
                    "material": 1
                }
            ]
        },
        {
            "name": "mesh137_mesh",
            "primitives": [
                {
                    "attributes": {
                        "NORMAL": 43,
                        "POSITION": 42
                    },
                    "indices": 44,
                    "material": 1
                }
            ]
        },
        {
            "name": "mesh138_mesh",
            "primitives": [
                {
                    "attributes": {
                        "NORMAL": 46,
                        "POSITION": 45
                    },
                    "indices": 47,
                    "material": 1
                }
            ]
        },
        {
            "name": "mesh139_mesh",
            "primitives": [
                {
                    "attributes": {
                        "NORMAL": 49,
                        "POSITION": 48
                    },
                    "indices": 50,
                    "material": 1
                }
            ]
        },
        {
            "name": "mesh140_mesh",
            "primitives": [
                {
                    "attributes": {
                        "NORMAL": 52,
                        "POSITION": 51
                    },
                    "indices": 53,
                    "material": 1
                }
            ]
        },
        {
            "name": "mesh141_mesh",
            "primitives": [
                {
                    "attributes": {
                        "NORMAL": 55,
                        "POSITION": 54
                    },
                    "indices": 56,
                    "material": 1
                }
            ]
        },
        {
            "name": "mesh142_mesh",
            "primitives": [
                {
                    "attributes": {
                        "NORMAL": 58,
                        "POSITION": 57
                    },
                    "indices": 59,
                    "material": 1
                }
            ]
        },
        {
            "name": "mesh143_mesh",
            "primitives": [
                {
                    "attributes": {
                        "NORMAL": 61,
                        "POSITION": 60
                    },
                    "indices": 62,
                    "material": 1
                }
            ]
        },
        {
            "name": "mesh144_mesh",
            "primitives": [
                {
                    "attributes": {
                        "NORMAL": 64,
                        "POSITION": 63
                    },
                    "indices": 65,
                    "material": 1
                }
            ]
        },
        {
            "name": "mesh145_mesh",
            "primitives": [
                {
                    "attributes": {
                        "NORMAL": 67,
                        "POSITION": 66
                    },
                    "indices": 68,
                    "material": 1
                }
            ]
        },
        {
            "name": "mesh146_mesh",
            "primitives": [
                {
                    "attributes": {
                        "NORMAL": 70,
                        "POSITION": 69
                    },
                    "indices": 71,
                    "material": 1
                }
            ]
        },
        {
            "name": "mesh147_mesh",
            "primitives": [
                {
                    "attributes": {
                        "NORMAL": 73,
                        "POSITION": 72
                    },
                    "indices": 74,
                    "material": 1
                }
            ]
        },
        {
            "name": "mesh148_mesh",
            "primitives": [
                {
                    "attributes": {
                        "NORMAL": 76,
                        "POSITION": 75
                    },
                    "indices": 77,
                    "material": 1
                }
            ]
        },
        {
            "name": "mesh149_mesh",
            "primitives": [
                {
                    "attributes": {
                        "NORMAL": 79,
                        "POSITION": 78
                    },
                    "indices": 80,
                    "material": 1
                }
            ]
        },
        {
            "name": "mesh150_mesh",
            "primitives": [
                {
                    "attributes": {
                        "NORMAL": 82,
                        "POSITION": 81
                    },
                    "indices": 83,
                    "material": 1
                }
            ]
        },
        {
            "name": "mesh151_mesh",
            "primitives": [
                {
                    "attributes": {
                        "NORMAL": 85,
                        "POSITION": 84
                    },
                    "indices": 86,
                    "material": 1
                }
            ]
        },
        {
            "name": "mesh152_mesh",
            "primitives": [
                {
                    "attributes": {
                        "NORMAL": 88,
                        "POSITION": 87
                    },
                    "indices": 89,
                    "material": 1
                }
            ]
        },
        {
            "name": "mesh153_mesh",
            "primitives": [
                {
                    "attributes": {
                        "NORMAL": 91,
                        "POSITION": 90
                    },
                    "indices": 92,
                    "material": 1
                }
            ]
        },
        {
            "name": "mesh154_mesh",
            "primitives": [
                {
                    "attributes": {
                        "NORMAL": 94,
                        "POSITION": 93
                    },
                    "indices": 95,
                    "material": 1
                }
            ]
        },
        {
            "name": "mesh155_mesh",
            "primitives": [
                {
                    "attributes": {
                        "NORMAL": 97,
                        "POSITION": 96
                    },
                    "indices": 98,
                    "material": 1
                }
            ]
        },
        {
            "name": "mesh156_mesh",
            "primitives": [
                {
                    "attributes": {
                        "NORMAL": 100,
                        "POSITION": 99
                    },
                    "indices": 101,
                    "material": 1
                }
            ]
        },
        {
            "name": "mesh157_mesh",
            "primitives": [
                {
                    "attributes": {
                        "NORMAL": 103,
                        "POSITION": 102
                    },
                    "indices": 104,
                    "material": 1
                }
            ]
        },
        {
            "name": "mesh158_mesh",
            "primitives": [
                {
                    "attributes": {
                        "NORMAL": 106,
                        "POSITION": 105
                    },
                    "indices": 107,
                    "material": 1
                }
            ]
        },
        {
            "name": "mesh159_mesh",
            "primitives": [
                {
                    "attributes": {
                        "NORMAL": 109,
                        "POSITION": 108
                    },
                    "indices": 110,
                    "material": 1
                }
            ]
        },
        {
            "name": "mesh160_mesh",
            "primitives": [
                {
                    "attributes": {
                        "NORMAL": 112,
                        "POSITION": 111
                    },
                    "indices": 113,
                    "material": 1
                }
            ]
        },
        {
            "name": "mesh161_mesh",
            "primitives": [
                {
                    "attributes": {
                        "NORMAL": 115,
                        "POSITION": 114
                    },
                    "indices": 116,
                    "material": 1
                }
            ]
        },
        {
            "name": "mesh162_mesh",
            "primitives": [
                {
                    "attributes": {
                        "NORMAL": 118,
                        "POSITION": 117
                    },
                    "indices": 119,
                    "material": 1
                }
            ]
        },
        {
            "name": "mesh163_mesh",
            "primitives": [
                {
                    "attributes": {
                        "NORMAL": 121,
                        "POSITION": 120
                    },
                    "indices": 122,
                    "material": 1
                }
            ]
        },
        {
            "name": "mesh164_mesh",
            "primitives": [
                {
                    "attributes": {
                        "NORMAL": 124,
                        "POSITION": 123
                    },
                    "indices": 125,
                    "material": 1
                }
            ]
        }
    ],
    "nodes": [
        {
            "mesh": 0,
            "name": "mesh123"
        },
        {
            "mesh": 1,
            "name": "mesh124"
        },
        {
            "mesh": 2,
            "name": "mesh125"
        },
        {
            "mesh": 3,
            "name": "mesh126"
        },
        {
            "mesh": 4,
            "name": "mesh127"
        },
        {
            "mesh": 5,
            "name": "mesh128"
        },
        {
            "mesh": 6,
            "name": "mesh129"
        },
        {
            "mesh": 7,
            "name": "mesh130"
        },
        {
            "mesh": 8,
            "name": "mesh131"
        },
        {
            "mesh": 9,
            "name": "mesh132"
        },
        {
            "mesh": 10,
            "name": "mesh133"
        },
        {
            "mesh": 11,
            "name": "mesh134"
        },
        {
            "mesh": 12,
            "name": "mesh135"
        },
        {
            "mesh": 13,
            "name": "mesh136"
        },
        {
            "mesh": 14,
            "name": "mesh137"
        },
        {
            "mesh": 15,
            "name": "mesh138"
        },
        {
            "mesh": 16,
            "name": "mesh139"
        },
        {
            "mesh": 17,
            "name": "mesh140"
        },
        {
            "mesh": 18,
            "name": "mesh141"
        },
        {
            "mesh": 19,
            "name": "mesh142"
        },
        {
            "mesh": 20,
            "name": "mesh143"
        },
        {
            "mesh": 21,
            "name": "mesh144"
        },
        {
            "mesh": 22,
            "name": "mesh145"
        },
        {
            "mesh": 23,
            "name": "mesh146"
        },
        {
            "mesh": 24,
            "name": "mesh147"
        },
        {
            "mesh": 25,
            "name": "mesh148"
        },
        {
            "mesh": 26,
            "name": "mesh149"
        },
        {
            "mesh": 27,
            "name": "mesh150"
        },
        {
            "mesh": 28,
            "name": "mesh151"
        },
        {
            "mesh": 29,
            "name": "mesh152"
        },
        {
            "mesh": 30,
            "name": "mesh153"
        },
        {
            "mesh": 31,
            "name": "mesh154"
        },
        {
            "mesh": 32,
            "name": "mesh155"
        },
        {
            "mesh": 33,
            "name": "mesh156"
        },
        {
            "mesh": 34,
            "name": "mesh157"
        },
        {
            "mesh": 35,
            "name": "mesh158"
        },
        {
            "mesh": 36,
            "name": "mesh159"
        },
        {
            "mesh": 37,
            "name": "mesh160"
        },
        {
            "mesh": 38,
            "name": "mesh161"
        },
        {
            "mesh": 39,
            "name": "mesh162"
        },
        {
            "mesh": 40,
            "name": "mesh163"
        },
        {
            "mesh": 41,
            "name": "mesh164"
        }
    ],
    "scene": 0,
    "scenes": [
        {
            "name": "Root",
            "nodes": [
                0,
                1,
                2,
                3,
                4,
                5,
                6,
                7,
                8,
                9,
                10,
                11,
                12,
                13,
                14,
                15,
                16,
                17,
                18,
                19,
                20,
                21,
                22,
                23,
                24,
                25,
                26,
                27,
                28,
                29,
                30,
                31,
                32,
                33,
                34,
                35,
                36,
                37,
                38,
                39,
                40,
                41
            ]
        }
    ]
}