{
    "accessors": [
        {
            "bufferView": 0,
            "componentType": 5126,
            "count": 116,
            "max": [
                0.002951158909127116,
                -0.028524739667773247,
                0.0215000007301569
            ],
            "min": [
                -0.00014884115080349147,
                -0.031620193272829056,
                0.014999999664723873
            ],
            "name": "mesh85_coord_accessor",
            "type": "VEC3"
        },
        {
            "bufferView": 1,
            "componentType": 5126,
            "count": 116,
            "max": [
                1.0,
                0.9985334277153015,
                0.0
            ],
            "min": [
                -1.0,
                -0.9985334277153015,
                0.0
            ],
            "name": "mesh85_norm_accessor",
            "type": "VEC3"
        },
        {
            "bufferView": 2,
            "componentType": 5125,
            "count": 348,
            "max": [
                115
            ],
            "min": [
                0
            ],
            "name": "mesh85_idx_accessor",
            "type": "SCALAR"
        },
        {
            "bufferView": 3,
            "componentType": 5126,
            "count": 116,
            "max": [
                0.005401158705353737,
                -0.02607833221554756,
                0.0215000007301569
            ],
            "min": [
                -0.0025988412089645863,
                -0.03406659886240959,
                0.0215000007301569
            ],
            "name": "mesh86_coord_accessor",
            "type": "VEC3"
        },
        {
            "bufferView": 4,
            "componentType": 5126,
            "count": 116,
            "max": [
                0.0,
                0.0,
                1.0
            ],
            "min": [
                0.0,
                0.0,
                1.0
            ],
            "name": "mesh86_norm_accessor",
            "type": "VEC3"
        },
        {
            "bufferView": 5,
            "componentType": 5125,
            "count": 348,
            "max": [
                115
            ],
            "min": [
                0
            ],
            "name": "mesh86_idx_accessor",
            "type": "SCALAR"
        },
        {
            "bufferView": 6,
            "componentType": 5126,
            "count": 118,
            "max": [
                0.005401158705353737,
                -0.02607833221554756,
                0.02500000037252903
            ],
            "min": [
                -0.0025988412089645863,
                -0.03406659886240959,
                0.0215000007301569
            ],
            "name": "mesh87_coord_accessor",
            "type": "VEC3"
        },
        {
            "bufferView": 7,
            "componentType": 5126,
            "count": 118,
            "max": [
                1.0,
                0.9985334277153015,
                -0.0
            ],
            "min": [
                -1.0,
                -0.9985334277153015,
                -0.0
            ],
            "name": "mesh87_norm_accessor",
            "type": "VEC3"
        },
        {
            "bufferView": 8,
            "componentType": 5125,
            "count": 354,
            "max": [
                117
            ],
            "min": [
                0
            ],
            "name": "mesh87_idx_accessor",
            "type": "SCALAR"
        },
        {
            "bufferView": 9,
            "componentType": 5126,
            "count": 891,
            "max": [
                0.03798818215727806,
                0.047332488000392914,
                0.02500000037252903
            ],
            "min": [
                -0.059697285294532776,
                -0.05639873072504997,
                0.02500000037252903
            ],
            "name": "mesh88_coord_accessor",
            "type": "VEC3"
        },
        {
            "bufferView": 10,
            "componentType": 5126,
            "count": 891,
            "max": [
                0.0,
                0.0,
                1.0
            ],
            "min": [
                0.0,
                0.0,
                1.0
            ],
            "name": "mesh88_norm_accessor",
            "type": "VEC3"
        },
        {
            "bufferView": 11,
            "componentType": 5125,
            "count": 3048,
            "max": [
                890
            ],
            "min": [
                0
            ],
            "name": "mesh88_idx_accessor",
            "type": "SCALAR"
        },
        {
            "bufferView": 12,
            "componentType": 5126,
            "count": 24,
            "max": [
                0.03798818215727806,
                0.04699999839067459,
                0.02500000037252903
            ],
            "min": [
                0.03798818215727806,
                -0.028867512941360474,
                0.014999999664723873
            ],
            "name": "mesh89_coord_accessor",
            "type": "VEC3"
        },
        {
            "bufferView": 13,
            "componentType": 5126,
            "count": 24,
            "max": [
                1.0,
                0.0,
                0.0
            ],
            "min": [
                1.0,
                0.0,
                0.0
            ],
            "name": "mesh89_norm_accessor",
            "type": "VEC3"
        },
        {
            "bufferView": 14,
            "componentType": 5125,
            "count": 66,
            "max": [
                23
            ],
            "min": [
                0
            ],
            "name": "mesh89_idx_accessor",
            "type": "SCALAR"
        },
        {
            "bufferView": 15,
            "componentType": 5126,
            "count": 13,
            "max": [
                0.03798818215727806,
                0.047332488000392914,
                0.02500000037252903
            ],
            "min": [
                0.006005909293889999,
                0.04699999839067459,
                0.014999999664723873
            ],
            "name": "mesh90_coord_accessor",
            "type": "VEC3"
        },
        {
            "bufferView": 16,
            "componentType": 5126,
            "count": 13,
            "max": [
                0.01039540208876133,
                0.9999459385871887,
                0.0
            ],
            "min": [
                0.01039540208876133,
                0.9999459385871887,
                0.0
            ],
            "name": "mesh90_norm_accessor",
            "type": "VEC3"
        },
        {
            "bufferView": 17,
            "componentType": 5125,
            "count": 33,
            "max": [
                12
            ],
            "min": [
                0
            ],
            "name": "mesh90_idx_accessor",
            "type": "SCALAR"
        },
        {
            "bufferView": 18,
            "componentType": 5126,
            "count": 23,
            "max": [
                0.006005909293889999,
                0.047332488000392914,
                0.02500000037252903
            ],
            "min": [
                -0.059697285294532776,
                0.009398729540407658,
                0.014999999664723873
            ],
            "name": "mesh91_coord_accessor",
            "type": "VEC3"
        },
        {
            "bufferView": 19,
            "componentType": 5126,
            "count": 23,
            "max": [
                -0.5,
                0.8660253882408142,
                0.0
            ],
            "min": [
                -0.5,
                0.8660253882408142,
                0.0
            ],
            "name": "mesh91_norm_accessor",
            "type": "VEC3"
        },
        {
            "bufferView": 20,
            "componentType": 5125,
            "count": 63,
            "max": [
                22
            ],
            "min": [
                0
            ],
            "name": "mesh91_idx_accessor",
            "type": "SCALAR"
        },
        {
            "bufferView": 21,
            "componentType": 5126,
            "count": 17,
            "max": [
                -0.04399409145116806,
                0.009398729540407658,
                0.02500000037252903
            ],
            "min": [
                -0.059697285294532776,
                -0.01846497319638729,
                0.014999999664723873
            ],
            "name": "mesh92_coord_accessor",
            "type": "VEC3"
        },
        {
            "bufferView": 22,
            "componentType": 5126,
            "count": 17,
            "max": [
                -0.8711763024330139,
                -0.49097031354904175,
                0.0
            ],
            "min": [
                -0.8711763024330139,
                -0.49097031354904175,
                0.0
            ],
            "name": "mesh92_norm_accessor",
            "type": "VEC3"
        },
        {
            "bufferView": 23,
            "componentType": 5125,
            "count": 45,
            "max": [
                16
            ],
            "min": [
                0
            ],
            "name": "mesh92_idx_accessor",
            "type": "SCALAR"
        },
        {
            "bufferView": 24,
            "componentType": 5126,
            "count": 30,
            "max": [
                0.021709103137254715,
                -0.01846497319638729,
                0.02500000037252903
            ],
            "min": [
                -0.04399409145116806,
                -0.05639873072504997,
                0.014999999664723873
            ],
            "name": "mesh93_coord_accessor",
            "type": "VEC3"
        },
        {
            "bufferView": 25,
            "componentType": 5126,
            "count": 30,
            "max": [
                -0.5,
                -0.8660253882408142,
                0.0
            ],
            "min": [
                -0.5,
                -0.8660253882408142,
                0.0
            ],
            "name": "mesh93_norm_accessor",
            "type": "VEC3"
        },
        {
            "bufferView": 26,
            "componentType": 5125,
            "count": 84,
            "max": [
                29
            ],
            "min": [
                0
            ],
            "name": "mesh93_idx_accessor",
            "type": "SCALAR"
        },
        {
            "bufferView": 27,
            "componentType": 5126,
            "count": 9,
            "max": [
                0.03798818215727806,
                -0.028867512941360474,
                0.02500000037252903
            ],
            "min": [
                0.021709103137254715,
                -0.05639873072504997,
                0.014999999664723873
            ],
            "name": "mesh94_coord_accessor",
            "type": "VEC3"
        },
        {
            "bufferView": 28,
            "componentType": 5126,
            "count": 9,
            "max": [
                0.8607808947563171,
                -0.5089756846427917,
                0.0
            ],
            "min": [
                0.8607808947563171,
                -0.5089756846427917,
                0.0
            ],
            "name": "mesh94_norm_accessor",
            "type": "VEC3"
        },
        {
            "bufferView": 29,
            "componentType": 5125,
            "count": 21,
            "max": [
                8
            ],
            "min": [
                0
            ],
            "name": "mesh94_idx_accessor",
            "type": "SCALAR"
        },
        {
            "bufferView": 30,
            "componentType": 5126,
            "count": 128,
            "max": [
                -0.021400000900030136,
                0.003994133789092302,
                0.02500000037252903
            ],
            "min": [
                -0.029400000348687172,
                -0.003994133789092302,
                0.014999999664723873
            ],
            "name": "mesh95_coord_accessor",
            "type": "VEC3"
        },
        {
            "bufferView": 31,
            "componentType": 5126,
            "count": 128,
            "max": [
                1.0,
                0.9985334277153015,
                0.0
            ],
            "min": [
                -1.0,
                -0.9985334277153015,
                0.0
            ],
            "name": "mesh95_norm_accessor",
            "type": "VEC3"
        },
        {
            "bufferView": 32,
            "componentType": 5125,
            "count": 384,
            "max": [
                127
            ],
            "min": [
                0
            ],
            "name": "mesh95_idx_accessor",
            "type": "SCALAR"
        },
        {
            "bufferView": 33,
            "componentType": 5126,
            "count": 128,
            "max": [
                0.004000000189989805,
                0.003994133789092302,
                0.02500000037252903
            ],
            "min": [
                -0.004000000189989805,
                -0.003994133789092302,
                0.014999999664723873
            ],
            "name": "mesh96_coord_accessor",
            "type": "VEC3"
        },
        {
            "bufferView": 34,
            "componentType": 5126,
            "count": 128,
            "max": [
                1.0,
                0.9985334277153015,
                0.0
            ],
            "min": [
                -1.0,
                -0.9985334277153015,
                0.0
            ],
            "name": "mesh96_norm_accessor",
            "type": "VEC3"
        },
        {
            "bufferView": 35,
            "componentType": 5125,
            "count": 384,
            "max": [
                127
            ],
            "min": [
                0
            ],
            "name": "mesh96_idx_accessor",
            "type": "SCALAR"
        },
        {
            "bufferView": 36,
            "componentType": 5126,
            "count": 124,
            "max": [
                0.029400000348687172,
                -0.002195005537942052,
                0.02500000037252903
            ],
            "min": [
                0.021400000900030136,
                -0.010183272883296013,
                0.014999999664723873
            ],
            "name": "mesh97_coord_accessor",
            "type": "VEC3"
        },
        {
            "bufferView": 37,
            "componentType": 5126,
            "count": 124,
            "max": [
                1.0,
                0.9985334277153015,
                0.0
            ],
            "min": [
                -1.0,
                -0.9985334277153015,
                0.0
            ],
            "name": "mesh97_norm_accessor",
            "type": "VEC3"
        },
        {
            "bufferView": 38,
            "componentType": 5125,
            "count": 372,
            "max": [
                123
            ],
            "min": [
                0
            ],
            "name": "mesh97_idx_accessor",
            "type": "SCALAR"
        },
        {
            "bufferView": 39,
            "componentType": 5126,
            "count": 120,
            "max": [
                0.023679278790950775,
                0.03946996480226517,
                0.02500000037252903
            ],
            "min": [
                0.01567927934229374,
                0.03148169815540314,
                0.0215000007301569
            ],
            "name": "mesh98_coord_accessor",
            "type": "VEC3"
        },
        {
            "bufferView": 40,
            "componentType": 5126,
            "count": 120,
            "max": [
                1.0,
                0.9997227191925049,
                -0.0
            ],
            "min": [
                -1.0,
                -0.9997227191925049,
                -0.0
            ],
            "name": "mesh98_norm_accessor",
            "type": "VEC3"
        },
        {
            "bufferView": 41,
            "componentType": 5125,
            "count": 360,
            "max": [
                119
            ],
            "min": [
                0
            ],
            "name": "mesh98_idx_accessor",
            "type": "SCALAR"
        },
        {
            "bufferView": 42,
            "componentType": 5126,
            "count": 116,
            "max": [
                0.023679278790950775,
                0.03946996480226517,
                0.0215000007301569
            ],
            "min": [
                0.01567927934229374,
                0.03148169815540314,
                0.0215000007301569
            ],
            "name": "mesh99_coord_accessor",
            "type": "VEC3"
        },
        {
            "bufferView": 43,
            "componentType": 5126,
            "count": 116,
            "max": [
                0.0,
                0.0,
                1.0
            ],
            "min": [
                0.0,
                0.0,
                1.0
            ],
            "name": "mesh99_norm_accessor",
            "type": "VEC3"
        },
        {
            "bufferView": 44,
            "componentType": 5125,
            "count": 348,
            "max": [
                115
            ],
            "min": [
                0
            ],
            "name": "mesh99_idx_accessor",
            "type": "SCALAR"
        },
        {
            "bufferView": 45,
            "componentType": 5126,
            "count": 116,
            "max": [
                0.021229278296232224,
                0.03702355921268463,
                0.0215000007301569
            ],
            "min": [
                0.01812927983701229,
                0.03392810747027397,
                0.014999999664723873
            ],
            "name": "mesh100_coord_accessor",
            "type": "VEC3"
        },
        {
            "bufferView": 46,
            "componentType": 5126,
            "count": 116,
            "max": [
                1.0,
                0.9985334277153015,
                0.0
            ],
            "min": [
                -1.0,
                -0.9985334277153015,
                0.0
            ],
            "name": "mesh100_norm_accessor",
            "type": "VEC3"
        },
        {
            "bufferView": 47,
            "componentType": 5125,
            "count": 348,
            "max": [
                115
            ],
            "min": [
                0
            ],
            "name": "mesh100_idx_accessor",
            "type": "SCALAR"
        },
        {
            "bufferView": 48,
            "componentType": 5126,
            "count": 118,
            "max": [
                0.01942930370569229,
                0.02024783566594124,
                0.02500000037252903
            ],
            "min": [
                0.01142930332571268,
                0.012259569019079208,
                0.0215000007301569
            ],
            "name": "mesh101_coord_accessor",
            "type": "VEC3"
        },
        {
            "bufferView": 49,
            "componentType": 5126,
            "count": 118,
            "max": [
                1.0,
                0.9985334277153015,
                -0.0
            ],
            "min": [
                -1.0,
                -0.9985334277153015,
                -0.0
            ],
            "name": "mesh101_norm_accessor",
            "type": "VEC3"
        },
        {
            "bufferView": 50,
            "componentType": 5125,
            "count": 354,
            "max": [
                117
            ],
            "min": [
                0
            ],
            "name": "mesh101_idx_accessor",
            "type": "SCALAR"
        },
        {
            "bufferView": 51,
            "componentType": 5126,
            "count": 116,
            "max": [
                0.01942930370569229,
                0.02024783566594124,
                0.0215000007301569
            ],
            "min": [
                0.01142930332571268,
                0.012259569019079208,
                0.0215000007301569
            ],
            "name": "mesh102_coord_accessor",
            "type": "VEC3"
        },
        {
            "bufferView": 52,
            "componentType": 5126,
            "count": 116,
            "max": [
                0.0,
                0.0,
                1.0
            ],
            "min": [
                0.0,
                0.0,
                1.0
            ],
            "name": "mesh102_norm_accessor",
            "type": "VEC3"
        },
        {
            "bufferView": 53,
            "componentType": 5125,
            "count": 348,
            "max": [
                115
            ],
            "min": [
                0
            ],
            "name": "mesh102_idx_accessor",
            "type": "SCALAR"
        },
        {
            "bufferView": 54,
            "componentType": 5126,
            "count": 118,
            "max": [
                0.01697930321097374,
                0.017801430076360703,
                0.0215000007301569
            ],
            "min": [
                0.013879302889108658,
                0.014705975539982319,
                0.014999999664723873
            ],
            "name": "mesh103_coord_accessor",
            "type": "VEC3"
        },
        {
            "bufferView": 55,
            "componentType": 5126,
            "count": 118,
            "max": [
                1.0,
                0.9985334277153015,
                0.0
            ],
            "min": [
                -1.0,
                -0.9985334277153015,
                0.0
            ],
            "name": "mesh103_norm_accessor",
            "type": "VEC3"
        },
        {
            "bufferView": 56,
            "componentType": 5125,
            "count": 354,
            "max": [
                117
            ],
            "min": [
                0
            ],
            "name": "mesh103_idx_accessor",
            "type": "SCALAR"
        },
        {
            "bufferView": 57,
            "componentType": 5126,
            "count": 118,
            "max": [
                0.0013532794546335936,
                0.03133564442396164,
                0.02500000037252903
            ],
            "min": [
                -0.006646720692515373,
                0.02334737777709961,
                0.0215000007301569
            ],
            "name": "mesh104_coord_accessor",
            "type": "VEC3"
        },
        {
            "bufferView": 58,
            "componentType": 5126,
            "count": 118,
            "max": [
                1.0,
                0.9985334277153015,
                -0.0
            ],
            "min": [
                -1.0,
                -0.9985334277153015,
                -0.0
            ],
            "name": "mesh104_norm_accessor",
            "type": "VEC3"
        },
        {
            "bufferView": 59,
            "componentType": 5125,
            "count": 354,
            "max": [
                117
            ],
            "min": [
                0
            ],
            "name": "mesh104_idx_accessor",
            "type": "SCALAR"
        },
        {
            "bufferView": 60,
            "componentType": 5126,
            "count": 116,
            "max": [
                0.0013532794546335936,
                0.03133564442396164,
                0.0215000007301569
            ],
            "min": [
                -0.006646720692515373,
                0.02334737777709961,
                0.0215000007301569
            ],
            "name": "mesh105_coord_accessor",
            "type": "VEC3"
        },
        {
            "bufferView": 61,
            "componentType": 5126,
            "count": 116,
            "max": [
                0.0,
                0.0,
                1.0
            ],
            "min": [
                0.0,
                0.0,
                1.0
            ],
            "name": "mesh105_norm_accessor",
            "type": "VEC3"
        },
        {
            "bufferView": 62,
            "componentType": 5125,
            "count": 348,
            "max": [
                115
            ],
            "min": [
                0
            ],
            "name": "mesh105_idx_accessor",
            "type": "SCALAR"
        },
        {
            "bufferView": 63,
            "componentType": 5126,
            "count": 116,
            "max": [
                -0.001096720458008349,
                0.028889236971735954,
                0.0215000007301569
            ],
            "min": [
                -0.004196720663458109,
                0.025793785229325294,
                0.014999999664723873
            ],
            "name": "mesh106_coord_accessor",
            "type": "VEC3"
        },
        {
            "bufferView": 64,
            "componentType": 5126,
            "count": 116,
            "max": [
                1.0,
                0.9985334277153015,
                0.0
            ],
            "min": [
                -1.0,
                -0.9985334277153015,
                0.0
            ],
            "name": "mesh106_norm_accessor",
            "type": "VEC3"
        },
        {
            "bufferView": 65,
            "componentType": 5125,
            "count": 348,
            "max": [
                115
            ],
            "min": [
                0
            ],
            "name": "mesh106_idx_accessor",
            "type": "SCALAR"
        },
        {
            "bufferView": 66,
            "componentType": 5126,
            "count": 122,
            "max": [
                -0.022404411807656288,
                0.01772896759212017,
                0.02500000037252903
            ],
            "min": [
                -0.030404413118958473,
                0.009740700013935566,
                0.0215000007301569
            ],
            "name": "mesh107_coord_accessor",
            "type": "VEC3"
        },
        {
            "bufferView": 67,
            "componentType": 5126,
            "count": 122,
            "max": [
                1.0,
                0.9985334277153015,
                -0.0
            ],
            "min": [
                -1.0,
                -0.9985334277153015,
                -0.0
            ],
            "name": "mesh107_norm_accessor",
            "type": "VEC3"
        },
        {
            "bufferView": 68,
            "componentType": 5125,
            "count": 366,
            "max": [
                121
            ],
            "min": [
                0
            ],
            "name": "mesh107_idx_accessor",
            "type": "SCALAR"
        },
        {
            "bufferView": 69,
            "componentType": 5126,
            "count": 116,
            "max": [
                -0.022404411807656288,
                0.01772896759212017,
                0.0215000007301569
            ],
            "min": [
                -0.030404413118958473,
                0.009740700013935566,
                0.0215000007301569
            ],
            "name": "mesh108_coord_accessor",
            "type": "VEC3"
        },
        {
            "bufferView": 70,
            "componentType": 5126,
            "count": 116,
            "max": [
                0.0,
                0.0,
                1.0
            ],
            "min": [
                0.0,
                0.0,
                1.0
            ],
            "name": "mesh108_norm_accessor",
            "type": "VEC3"
        },
        {
            "bufferView": 71,
            "componentType": 5125,
            "count": 348,
            "max": [
                115
            ],
            "min": [
                0
            ],
            "name": "mesh108_idx_accessor",
            "type": "SCALAR"
        },
        {
            "bufferView": 72,
            "componentType": 5126,
            "count": 118,
            "max": [
                -0.02485441230237484,
                0.015282560139894485,
                0.0215000007301569
            ],
            "min": [
                -0.02795441262423992,
                0.012187106534838676,
                0.014999999664723873
            ],
            "name": "mesh109_coord_accessor",
            "type": "VEC3"
        },
        {
            "bufferView": 73,
            "componentType": 5126,
            "count": 118,
            "max": [
                1.0,
                0.9985334277153015,
                0.0
            ],
            "min": [
                -1.0,
                -0.9985334277153015,
                0.0
            ],
            "name": "mesh109_norm_accessor",
            "type": "VEC3"
        },
        {
            "bufferView": 74,
            "componentType": 5125,
            "count": 354,
            "max": [
                117
            ],
            "min": [
                0
            ],
            "name": "mesh109_idx_accessor",
            "type": "SCALAR"
        },
        {
            "bufferView": 75,
            "componentType": 5126,
            "count": 120,
            "max": [
                -0.038278866559267044,
                -0.0011691950494423509,
                0.02500000037252903
            ],
            "min": [
                -0.04627886787056923,
                -0.009157462045550346,
                0.0215000007301569
            ],
            "name": "mesh110_coord_accessor",
            "type": "VEC3"
        },
        {
            "bufferView": 76,
            "componentType": 5126,
            "count": 120,
            "max": [
                1.0,
                0.9985334277153015,
                -0.0
            ],
            "min": [
                -1.0,
                -0.9985334277153015,
                -0.0
            ],
            "name": "mesh110_norm_accessor",
            "type": "VEC3"
        },
        {
            "bufferView": 77,
            "componentType": 5125,
            "count": 360,
            "max": [
                119
            ],
            "min": [
                0
            ],
            "name": "mesh110_idx_accessor",
            "type": "SCALAR"
        },
        {
            "bufferView": 78,
            "componentType": 5126,
            "count": 116,
            "max": [
                -0.038278866559267044,
                -0.0011691950494423509,
                0.0215000007301569
            ],
            "min": [
                -0.04627886787056923,
                -0.009157462045550346,
                0.0215000007301569
            ],
            "name": "mesh111_coord_accessor",
            "type": "VEC3"
        },
        {
            "bufferView": 79,
            "componentType": 5126,
            "count": 116,
            "max": [
                0.0,
                0.0,
                1.0
            ],
            "min": [
                0.0,
                0.0,
                1.0
            ],
            "name": "mesh111_norm_accessor",
            "type": "VEC3"
        },
        {
            "bufferView": 80,
            "componentType": 5125,
            "count": 348,
            "max": [
                115
            ],
            "min": [
                0
            ],
            "name": "mesh111_idx_accessor",
            "type": "SCALAR"
        },
        {
            "bufferView": 81,
            "componentType": 5126,
            "count": 118,
            "max": [
                -0.040728867053985596,
                -0.003615601919591427,
                0.0215000007301569
            ],
            "min": [
                -0.04382886737585068,
                -0.006711055524647236,
                0.014999999664723873
            ],
            "name": "mesh112_coord_accessor",
            "type": "VEC3"
        },
        {
            "bufferView": 82,
            "componentType": 5126,
            "count": 118,
            "max": [
                1.0,
                0.9985334277153015,
                0.0
            ],
            "min": [
                -1.0,
                -0.9985334277153015,
                0.0
            ],
            "name": "mesh112_norm_accessor",
            "type": "VEC3"
        },
        {
            "bufferView": 83,
            "componentType": 5125,
            "count": 354,
            "max": [
                117
            ],
            "min": [
                0
            ],
            "name": "mesh112_idx_accessor",
            "type": "SCALAR"
        },
        {
            "bufferView": 84,
            "componentType": 5126,
            "count": 118,
            "max": [
                -0.01646498776972294,
                -0.014883862808346748,
                0.02500000037252903
            ],
            "min": [
                -0.024464989081025124,
                -0.02287212945520878,
                0.0215000007301569
            ],
            "name": "mesh113_coord_accessor",
            "type": "VEC3"
        },
        {
            "bufferView": 85,
            "componentType": 5126,
            "count": 118,
            "max": [
                1.0,
                0.9985334277153015,
                -0.0
            ],
            "min": [
                -1.0,
                -0.9985334277153015,
                -0.0
            ],
            "name": "mesh113_norm_accessor",
            "type": "VEC3"
        },
        {
            "bufferView": 86,
            "componentType": 5125,
            "count": 354,
            "max": [
                117
            ],
            "min": [
                0
            ],
            "name": "mesh113_idx_accessor",
            "type": "SCALAR"
        },
        {
            "bufferView": 87,
            "componentType": 5126,
            "count": 116,
            "max": [
                -0.01646498776972294,
                -0.014883862808346748,
                0.0215000007301569
            ],
            "min": [
                -0.024464989081025124,
                -0.02287212945520878,
                0.0215000007301569
            ],
            "name": "mesh114_coord_accessor",
            "type": "VEC3"
        },
        {
            "bufferView": 88,
            "componentType": 5126,
            "count": 116,
            "max": [
                0.0,
                0.0,
                1.0
            ],
            "min": [
                0.0,
                0.0,
                1.0
            ],
            "name": "mesh114_norm_accessor",
            "type": "VEC3"
        },
        {
            "bufferView": 89,
            "componentType": 5125,
            "count": 348,
            "max": [
                115
            ],
            "min": [
                0
            ],
            "name": "mesh114_idx_accessor",
            "type": "SCALAR"
        },
        {
            "bufferView": 90,
            "componentType": 5126,
            "count": 120,
            "max": [
                -0.01891498826444149,
                -0.017330270260572433,
                0.0215000007301569
            ],
            "min": [
                -0.022014988586306572,
                -0.020425722002983093,
                0.014999999664723873
            ],
            "name": "mesh115_coord_accessor",
            "type": "VEC3"
        },
        {
            "bufferView": 91,
            "componentType": 5126,
            "count": 120,
            "max": [
                1.0,
                0.9985334277153015,
                0.0
            ],
            "min": [
                -1.0,
                -0.9985334277153015,
                0.0
            ],
            "name": "mesh115_norm_accessor",
            "type": "VEC3"
        },
        {
            "bufferView": 92,
            "componentType": 5125,
            "count": 360,
            "max": [
                119
            ],
            "min": [
                0
            ],
            "name": "mesh115_idx_accessor",
            "type": "SCALAR"
        },
        {
            "bufferView": 93,
            "componentType": 5126,
            "count": 120,
            "max": [
                0.02774110436439514,
                -0.013048041611909866,
                0.02500000037252903
            ],
            "min": [
                0.019741103053092957,
                -0.021036308258771896,
                0.0215000007301569
            ],
            "name": "mesh116_coord_accessor",
            "type": "VEC3"
        },
        {
            "bufferView": 94,
            "componentType": 5126,
            "count": 120,
            "max": [
                1.0,
                0.9985334277153015,
                -0.0
            ],
            "min": [
                -1.0,
                -0.9985334277153015,
                -0.0
            ],
            "name": "mesh116_norm_accessor",
            "type": "VEC3"
        },
        {
            "bufferView": 95,
            "componentType": 5125,
            "count": 360,
            "max": [
                119
            ],
            "min": [
                0
            ],
            "name": "mesh116_idx_accessor",
            "type": "SCALAR"
        },
        {
            "bufferView": 96,
            "componentType": 5126,
            "count": 116,
            "max": [
                0.02774110436439514,
                -0.013048041611909866,
                0.0215000007301569
            ],
            "min": [
                0.019741103053092957,
                -0.021036308258771896,
                0.0215000007301569
            ],
            "name": "mesh117_coord_accessor",
            "type": "VEC3"
        },
        {
            "bufferView": 97,
            "componentType": 5126,
            "count": 116,
            "max": [
                0.0,
                0.0,
                1.0
            ],
            "min": [
                0.0,
                0.0,
                1.0
            ],
            "name": "mesh117_norm_accessor",
            "type": "VEC3"
        },
        {
            "bufferView": 98,
            "componentType": 5125,
            "count": 348,
            "max": [
                115
            ],
            "min": [
                0
            ],
            "name": "mesh117_idx_accessor",
            "type": "SCALAR"
        },
        {
            "bufferView": 99,
            "componentType": 5126,
            "count": 118,
            "max": [
                0.02529110386967659,
                -0.015494448132812977,
                0.0215000007301569
            ],
            "min": [
                0.022191103547811508,
                -0.01858990080654621,
                0.014999999664723873
            ],
            "name": "mesh118_coord_accessor",
            "type": "VEC3"
        },
        {
            "bufferView": 100,
            "componentType": 5126,
            "count": 118,
            "max": [
                1.0,
                0.9985334277153015,
                0.0
            ],
            "min": [
                -1.0,
                -0.9985334277153015,
                0.0
            ],
            "name": "mesh118_norm_accessor",
            "type": "VEC3"
        },
        {
            "bufferView": 101,
            "componentType": 5125,
            "count": 354,
            "max": [
                117
            ],
            "min": [
                0
            ],
            "name": "mesh118_idx_accessor",
            "type": "SCALAR"
        },
        {
            "bufferView": 102,
            "componentType": 5126,
            "count": 901,
            "max": [
                0.03798818215727806,
                0.047332488000392914,
                0.014999999664723873
            ],
            "min": [
                -0.059697285294532776,
                -0.05639873072504997,
                0.014999999664723873
            ],
            "name": "mesh119_coord_accessor",
            "type": "VEC3"
        },
        {
            "bufferView": 103,
            "componentType": 5126,
            "count": 901,
            "max": [
                -0.0,
                -0.0,
                -1.0
            ],
            "min": [
                -0.0,
                -0.0,
                -1.0
            ],
            "name": "mesh119_norm_accessor",
            "type": "VEC3"
        },
        {
            "bufferView": 104,
            "componentType": 5125,
            "count": 3120,
            "max": [
                900
            ],
            "min": [
                0
            ],
            "name": "mesh119_idx_accessor",
            "type": "SCALAR"
        },
        {
            "bufferView": 105,
            "componentType": 5126,
            "count": 118,
            "max": [
                0.018557369709014893,
                -0.04033203050494194,
                0.0215000007301569
            ],
            "min": [
                0.01545736938714981,
                -0.0434274859726429,
                0.014999999664723873
            ],
            "name": "mesh120_coord_accessor",
            "type": "VEC3"
        },
        {
            "bufferView": 106,
            "componentType": 5126,
            "count": 118,
            "max": [
                1.0,
                0.9985334277153015,
                0.0
            ],
            "min": [
                -1.0,
                -0.9985334277153015,
                0.0
            ],
            "name": "mesh120_norm_accessor",
            "type": "VEC3"
        },
        {
            "bufferView": 107,
            "componentType": 5125,
            "count": 354,
            "max": [
                117
            ],
            "min": [
                0
            ],
            "name": "mesh120_idx_accessor",
            "type": "SCALAR"
        },
        {
            "bufferView": 108,
            "componentType": 5126,
            "count": 116,
            "max": [
                0.021007370203733444,
                -0.037885624915361404,
                0.0215000007301569
            ],
            "min": [
                0.013007369823753834,
                -0.045873891562223434,
                0.0215000007301569
            ],
            "name": "mesh121_coord_accessor",
            "type": "VEC3"
        },
        {
            "bufferView": 109,
            "componentType": 5126,
            "count": 116,
            "max": [
                0.0,
                0.0,
                1.0
            ],
            "min": [
                0.0,
                0.0,
                1.0
            ],
            "name": "mesh121_norm_accessor",
            "type": "VEC3"
        },
        {
            "bufferView": 110,
            "componentType": 5125,
            "count": 348,
            "max": [
                115
            ],
            "min": [
                0
            ],
            "name": "mesh121_idx_accessor",
            "type": "SCALAR"
        },
        {
            "bufferView": 111,
            "componentType": 5126,
            "count": 120,
            "max": [
                0.021007370203733444,
                -0.037885624915361404,
                0.02500000037252903
            ],
            "min": [
                0.013007369823753834,
                -0.045873891562223434,
                0.0215000007301569
            ],
            "name": "mesh122_coord_accessor",
            "type": "VEC3"
        },
        {
            "bufferView": 112,
            "componentType": 5126,
            "count": 120,
            "max": [
                1.0,
                0.9985334277153015,
                -0.0
            ],
            "min": [
                -1.0,
                -0.9985334277153015,
                -0.0
            ],
            "name": "mesh122_norm_accessor",
            "type": "VEC3"
        },
        {
            "bufferView": 113,
            "componentType": 5125,
            "count": 360,
            "max": [
                119
            ],
            "min": [
                0
            ],
            "name": "mesh122_idx_accessor",
            "type": "SCALAR"
        }
    ],
    "asset": {
        "generator": "ONSHAPE BY PTC INC, 1.221",
        "version": "2.0"
    },
    "bufferViews": [
        {
            "buffer": 0,
            "byteLength": 1392,
            "name": "mesh85_coord_bufferView",
            "target": 34962
        },
        {
            "buffer": 0,
            "byteLength": 1392,
            "byteOffset": 1392,
            "name": "mesh85_norm_bufferView",
            "target": 34962
        },
        {
            "buffer": 0,
            "byteLength": 1392,
            "byteOffset": 2784,
            "name": "mesh85_idx_bufferView",
            "target": 34963
        },
        {
            "buffer": 0,
            "byteLength": 1392,
            "byteOffset": 4176,
            "name": "mesh86_coord_bufferView",
            "target": 34962
        },
        {
            "buffer": 0,
            "byteLength": 1392,
            "byteOffset": 5568,
            "name": "mesh86_norm_bufferView",
            "target": 34962
        },
        {
            "buffer": 0,
            "byteLength": 1392,
            "byteOffset": 6960,
            "name": "mesh86_idx_bufferView",
            "target": 34963
        },
        {
            "buffer": 0,
            "byteLength": 1416,
            "byteOffset": 8352,
            "name": "mesh87_coord_bufferView",
            "target": 34962
        },
        {
            "buffer": 0,
            "byteLength": 1416,
            "byteOffset": 9768,
            "name": "mesh87_norm_bufferView",
            "target": 34962
        },
        {
            "buffer": 0,
            "byteLength": 1416,
            "byteOffset": 11184,
            "name": "mesh87_idx_bufferView",
            "target": 34963
        },
        {
            "buffer": 0,
            "byteLength": 10692,
            "byteOffset": 12600,
            "name": "mesh88_coord_bufferView",
            "target": 34962
        },
        {
            "buffer": 0,
            "byteLength": 10692,
            "byteOffset": 23292,
            "name": "mesh88_norm_bufferView",
            "target": 34962
        },
        {
            "buffer": 0,
            "byteLength": 12192,
            "byteOffset": 33984,
            "name": "mesh88_idx_bufferView",
            "target": 34963
        },
        {
            "buffer": 0,
            "byteLength": 288,
            "byteOffset": 46176,
            "name": "mesh89_coord_bufferView",
            "target": 34962
        },
        {
            "buffer": 0,
            "byteLength": 288,
            "byteOffset": 46464,
            "name": "mesh89_norm_bufferView",
            "target": 34962
        },
        {
            "buffer": 0,
            "byteLength": 264,
            "byteOffset": 46752,
            "name": "mesh89_idx_bufferView",
            "target": 34963
        },
        {
            "buffer": 0,
            "byteLength": 156,
            "byteOffset": 47016,
            "name": "mesh90_coord_bufferView",
            "target": 34962
        },
        {
            "buffer": 0,
            "byteLength": 156,
            "byteOffset": 47172,
            "name": "mesh90_norm_bufferView",
            "target": 34962
        },
        {
            "buffer": 0,
            "byteLength": 132,
            "byteOffset": 47328,
            "name": "mesh90_idx_bufferView",
            "target": 34963
        },
        {
            "buffer": 0,
            "byteLength": 276,
            "byteOffset": 47460,
            "name": "mesh91_coord_bufferView",
            "target": 34962
        },
        {
            "buffer": 0,
            "byteLength": 276,
            "byteOffset": 47736,
            "name": "mesh91_norm_bufferView",
            "target": 34962
        },
        {
            "buffer": 0,
            "byteLength": 252,
            "byteOffset": 48012,
            "name": "mesh91_idx_bufferView",
            "target": 34963
        },
        {
            "buffer": 0,
            "byteLength": 204,
            "byteOffset": 48264,
            "name": "mesh92_coord_bufferView",
            "target": 34962
        },
        {
            "buffer": 0,
            "byteLength": 204,
            "byteOffset": 48468,
            "name": "mesh92_norm_bufferView",
            "target": 34962
        },
        {
            "buffer": 0,
            "byteLength": 180,
            "byteOffset": 48672,
            "name": "mesh92_idx_bufferView",
            "target": 34963
        },
        {
            "buffer": 0,
            "byteLength": 360,
            "byteOffset": 48852,
            "name": "mesh93_coord_bufferView",
            "target": 34962
        },
        {
            "buffer": 0,
            "byteLength": 360,
            "byteOffset": 49212,
            "name": "mesh93_norm_bufferView",
            "target": 34962
        },
        {
            "buffer": 0,
            "byteLength": 336,
            "byteOffset": 49572,
            "name": "mesh93_idx_bufferView",
            "target": 34963
        },
        {
            "buffer": 0,
            "byteLength": 108,
            "byteOffset": 49908,
            "name": "mesh94_coord_bufferView",
            "target": 34962
        },
        {
            "buffer": 0,
            "byteLength": 108,
            "byteOffset": 50016,
            "name": "mesh94_norm_bufferView",
            "target": 34962
        },
        {
            "buffer": 0,
            "byteLength": 84,
            "byteOffset": 50124,
            "name": "mesh94_idx_bufferView",
            "target": 34963
        },
        {
            "buffer": 0,
            "byteLength": 1536,
            "byteOffset": 50208,
            "name": "mesh95_coord_bufferView",
            "target": 34962
        },
        {
            "buffer": 0,
            "byteLength": 1536,
            "byteOffset": 51744,
            "name": "mesh95_norm_bufferView",
            "target": 34962
        },
        {
            "buffer": 0,
            "byteLength": 1536,
            "byteOffset": 53280,
            "name": "mesh95_idx_bufferView",
            "target": 34963
        },
        {
            "buffer": 0,
            "byteLength": 1536,
            "byteOffset": 54816,
            "name": "mesh96_coord_bufferView",
            "target": 34962
        },
        {
            "buffer": 0,
            "byteLength": 1536,
            "byteOffset": 56352,
            "name": "mesh96_norm_bufferView",
            "target": 34962
        },
        {
            "buffer": 0,
            "byteLength": 1536,
            "byteOffset": 57888,
            "name": "mesh96_idx_bufferView",
            "target": 34963
        },
        {
            "buffer": 0,
            "byteLength": 1488,
            "byteOffset": 59424,
            "name": "mesh97_coord_bufferView",
            "target": 34962
        },
        {
            "buffer": 0,
            "byteLength": 1488,
            "byteOffset": 60912,
            "name": "mesh97_norm_bufferView",
            "target": 34962
        },
        {
            "buffer": 0,
            "byteLength": 1488,
            "byteOffset": 62400,
            "name": "mesh97_idx_bufferView",
            "target": 34963
        },
        {
            "buffer": 0,
            "byteLength": 1440,
            "byteOffset": 63888,
            "name": "mesh98_coord_bufferView",
            "target": 34962
        },
        {
            "buffer": 0,
            "byteLength": 1440,
            "byteOffset": 65328,
            "name": "mesh98_norm_bufferView",
            "target": 34962
        },
        {
            "buffer": 0,
            "byteLength": 1440,
            "byteOffset": 66768,
            "name": "mesh98_idx_bufferView",
            "target": 34963
        },
        {
            "buffer": 0,
            "byteLength": 1392,
            "byteOffset": 68208,
            "name": "mesh99_coord_bufferView",
            "target": 34962
        },
        {
            "buffer": 0,
            "byteLength": 1392,
            "byteOffset": 69600,
            "name": "mesh99_norm_bufferView",
            "target": 34962
        },
        {
            "buffer": 0,
            "byteLength": 1392,
            "byteOffset": 70992,
            "name": "mesh99_idx_bufferView",
            "target": 34963
        },
        {
            "buffer": 0,
            "byteLength": 1392,
            "byteOffset": 72384,
            "name": "mesh100_coord_bufferView",
            "target": 34962
        },
        {
            "buffer": 0,
            "byteLength": 1392,
            "byteOffset": 73776,
            "name": "mesh100_norm_bufferView",
            "target": 34962
        },
        {
            "buffer": 0,
            "byteLength": 1392,
            "byteOffset": 75168,
            "name": "mesh100_idx_bufferView",
            "target": 34963
        },
        {
            "buffer": 0,
            "byteLength": 1416,
            "byteOffset": 76560,
            "name": "mesh101_coord_bufferView",
            "target": 34962
        },
        {
            "buffer": 0,
            "byteLength": 1416,
            "byteOffset": 77976,
            "name": "mesh101_norm_bufferView",
            "target": 34962
        },
        {
            "buffer": 0,
            "byteLength": 1416,
            "byteOffset": 79392,
            "name": "mesh101_idx_bufferView",
            "target": 34963
        },
        {
            "buffer": 0,
            "byteLength": 1392,
            "byteOffset": 80808,
            "name": "mesh102_coord_bufferView",
            "target": 34962
        },
        {
            "buffer": 0,
            "byteLength": 1392,
            "byteOffset": 82200,
            "name": "mesh102_norm_bufferView",
            "target": 34962
        },
        {
            "buffer": 0,
            "byteLength": 1392,
            "byteOffset": 83592,
            "name": "mesh102_idx_bufferView",
            "target": 34963
        },
        {
            "buffer": 0,
            "byteLength": 1416,
            "byteOffset": 84984,
            "name": "mesh103_coord_bufferView",
            "target": 34962
        },
        {
            "buffer": 0,
            "byteLength": 1416,
            "byteOffset": 86400,
            "name": "mesh103_norm_bufferView",
            "target": 34962
        },
        {
            "buffer": 0,
            "byteLength": 1416,
            "byteOffset": 87816,
            "name": "mesh103_idx_bufferView",
            "target": 34963
        },
        {
            "buffer": 0,
            "byteLength": 1416,
            "byteOffset": 89232,
            "name": "mesh104_coord_bufferView",
            "target": 34962
        },
        {
            "buffer": 0,
            "byteLength": 1416,
            "byteOffset": 90648,
            "name": "mesh104_norm_bufferView",
            "target": 34962
        },
        {
            "buffer": 0,
            "byteLength": 1416,
            "byteOffset": 92064,
            "name": "mesh104_idx_bufferView",
            "target": 34963
        },
        {
            "buffer": 0,
            "byteLength": 1392,
            "byteOffset": 93480,
            "name": "mesh105_coord_bufferView",
            "target": 34962
        },
        {
            "buffer": 0,
            "byteLength": 1392,
            "byteOffset": 94872,
            "name": "mesh105_norm_bufferView",
            "target": 34962
        },
        {
            "buffer": 0,
            "byteLength": 1392,
            "byteOffset": 96264,
            "name": "mesh105_idx_bufferView",
            "target": 34963
        },
        {
            "buffer": 0,
            "byteLength": 1392,
            "byteOffset": 97656,
            "name": "mesh106_coord_bufferView",
            "target": 34962
        },
        {
            "buffer": 0,
            "byteLength": 1392,
            "byteOffset": 99048,
            "name": "mesh106_norm_bufferView",
            "target": 34962
        },
        {
            "buffer": 0,
            "byteLength": 1392,
            "byteOffset": 100440,
            "name": "mesh106_idx_bufferView",
            "target": 34963
        },
        {
            "buffer": 0,
            "byteLength": 1464,
            "byteOffset": 101832,
            "name": "mesh107_coord_bufferView",
            "target": 34962
        },
        {
            "buffer": 0,
            "byteLength": 1464,
            "byteOffset": 103296,
            "name": "mesh107_norm_bufferView",
            "target": 34962
        },
        {
            "buffer": 0,
            "byteLength": 1464,
            "byteOffset": 104760,
            "name": "mesh107_idx_bufferView",
            "target": 34963
        },
        {
            "buffer": 0,
            "byteLength": 1392,
            "byteOffset": 106224,
            "name": "mesh108_coord_bufferView",
            "target": 34962
        },
        {
            "buffer": 0,
            "byteLength": 1392,
            "byteOffset": 107616,
            "name": "mesh108_norm_bufferView",
            "target": 34962
        },
        {
            "buffer": 0,
            "byteLength": 1392,
            "byteOffset": 109008,
            "name": "mesh108_idx_bufferView",
            "target": 34963
        },
        {
            "buffer": 0,
            "byteLength": 1416,
            "byteOffset": 110400,
            "name": "mesh109_coord_bufferView",
            "target": 34962
        },
        {
            "buffer": 0,
            "byteLength": 1416,
            "byteOffset": 111816,
            "name": "mesh109_norm_bufferView",
            "target": 34962
        },
        {
            "buffer": 0,
            "byteLength": 1416,
            "byteOffset": 113232,
            "name": "mesh109_idx_bufferView",
            "target": 34963
        },
        {
            "buffer": 0,
            "byteLength": 1440,
            "byteOffset": 114648,
            "name": "mesh110_coord_bufferView",
            "target": 34962
        },
        {
            "buffer": 0,
            "byteLength": 1440,
            "byteOffset": 116088,
            "name": "mesh110_norm_bufferView",
            "target": 34962
        },
        {
            "buffer": 0,
            "byteLength": 1440,
            "byteOffset": 117528,
            "name": "mesh110_idx_bufferView",
            "target": 34963
        },
        {
            "buffer": 0,
            "byteLength": 1392,
            "byteOffset": 118968,
            "name": "mesh111_coord_bufferView",
            "target": 34962
        },
        {
            "buffer": 0,
            "byteLength": 1392,
            "byteOffset": 120360,
            "name": "mesh111_norm_bufferView",
            "target": 34962
        },
        {
            "buffer": 0,
            "byteLength": 1392,
            "byteOffset": 121752,
            "name": "mesh111_idx_bufferView",
            "target": 34963
        },
        {
            "buffer": 0,
            "byteLength": 1416,
            "byteOffset": 123144,
            "name": "mesh112_coord_bufferView",
            "target": 34962
        },
        {
            "buffer": 0,
            "byteLength": 1416,
            "byteOffset": 124560,
            "name": "mesh112_norm_bufferView",
            "target": 34962
        },
        {
            "buffer": 0,
            "byteLength": 1416,
            "byteOffset": 125976,
            "name": "mesh112_idx_bufferView",
            "target": 34963
        },
        {
            "buffer": 0,
            "byteLength": 1416,
            "byteOffset": 127392,
            "name": "mesh113_coord_bufferView",
            "target": 34962
        },
        {
            "buffer": 0,
            "byteLength": 1416,
            "byteOffset": 128808,
            "name": "mesh113_norm_bufferView",
            "target": 34962
        },
        {
            "buffer": 0,
            "byteLength": 1416,
            "byteOffset": 130224,
            "name": "mesh113_idx_bufferView",
            "target": 34963
        },
        {
            "buffer": 0,
            "byteLength": 1392,
            "byteOffset": 131640,
            "name": "mesh114_coord_bufferView",
            "target": 34962
        },
        {
            "buffer": 0,
            "byteLength": 1392,
            "byteOffset": 133032,
            "name": "mesh114_norm_bufferView",
            "target": 34962
        },
        {
            "buffer": 0,
            "byteLength": 1392,
            "byteOffset": 134424,
            "name": "mesh114_idx_bufferView",
            "target": 34963
        },
        {
            "buffer": 0,
            "byteLength": 1440,
            "byteOffset": 135816,
            "name": "mesh115_coord_bufferView",
            "target": 34962
        },
        {
            "buffer": 0,
            "byteLength": 1440,
            "byteOffset": 137256,
            "name": "mesh115_norm_bufferView",
            "target": 34962
        },
        {
            "buffer": 0,
            "byteLength": 1440,
            "byteOffset": 138696,
            "name": "mesh115_idx_bufferView",
            "target": 34963
        },
        {
            "buffer": 0,
            "byteLength": 1440,
            "byteOffset": 140136,
            "name": "mesh116_coord_bufferView",
            "target": 34962
        },
        {
            "buffer": 0,
            "byteLength": 1440,
            "byteOffset": 141576,
            "name": "mesh116_norm_bufferView",
            "target": 34962
        },
        {
            "buffer": 0,
            "byteLength": 1440,
            "byteOffset": 143016,
            "name": "mesh116_idx_bufferView",
            "target": 34963
        },
        {
            "buffer": 0,
            "byteLength": 1392,
            "byteOffset": 144456,
            "name": "mesh117_coord_bufferView",
            "target": 34962
        },
        {
            "buffer": 0,
            "byteLength": 1392,
            "byteOffset": 145848,
            "name": "mesh117_norm_bufferView",
            "target": 34962
        },
        {
            "buffer": 0,
            "byteLength": 1392,
            "byteOffset": 147240,
            "name": "mesh117_idx_bufferView",
            "target": 34963
        },
        {
            "buffer": 0,
            "byteLength": 1416,
            "byteOffset": 148632,
            "name": "mesh118_coord_bufferView",
            "target": 34962
        },
        {
            "buffer": 0,
            "byteLength": 1416,
            "byteOffset": 150048,
            "name": "mesh118_norm_bufferView",
            "target": 34962
        },
        {
            "buffer": 0,
            "byteLength": 1416,
            "byteOffset": 151464,
            "name": "mesh118_idx_bufferView",
            "target": 34963
        },
        {
            "buffer": 0,
            "byteLength": 10812,
            "byteOffset": 152880,
            "name": "mesh119_coord_bufferView",
            "target": 34962
        },
        {
            "buffer": 0,
            "byteLength": 10812,
            "byteOffset": 163692,
            "name": "mesh119_norm_bufferView",
            "target": 34962
        },
        {
            "buffer": 0,
            "byteLength": 12480,
            "byteOffset": 174504,
            "name": "mesh119_idx_bufferView",
            "target": 34963
        },
        {
            "buffer": 0,
            "byteLength": 1416,
            "byteOffset": 186984,
            "name": "mesh120_coord_bufferView",
            "target": 34962
        },
        {
            "buffer": 0,
            "byteLength": 1416,
            "byteOffset": 188400,
            "name": "mesh120_norm_bufferView",
            "target": 34962
        },
        {
            "buffer": 0,
            "byteLength": 1416,
            "byteOffset": 189816,
            "name": "mesh120_idx_bufferView",
            "target": 34963
        },
        {
            "buffer": 0,
            "byteLength": 1392,
            "byteOffset": 191232,
            "name": "mesh121_coord_bufferView",
            "target": 34962
        },
        {
            "buffer": 0,
            "byteLength": 1392,
            "byteOffset": 192624,
            "name": "mesh121_norm_bufferView",
            "target": 34962
        },
        {
            "buffer": 0,
            "byteLength": 1392,
            "byteOffset": 194016,
            "name": "mesh121_idx_bufferView",
            "target": 34963
        },
        {
            "buffer": 0,
            "byteLength": 1440,
            "byteOffset": 195408,
            "name": "mesh122_coord_bufferView",
            "target": 34962
        },
        {
            "buffer": 0,
            "byteLength": 1440,
            "byteOffset": 196848,
            "name": "mesh122_norm_bufferView",
            "target": 34962
        },
        {
            "buffer": 0,
            "byteLength": 1440,
            "byteOffset": 198288,
            "name": "mesh122_idx_bufferView",
            "target": 34963
        }
    ],
    "buffers": [
        {
            "byteLength": 199728,
            "name": "Total_buffer",
            "uri": "data:application/octet-stream;base64,"
        }
    ],
    "extensionsUsed": [
        "PTC_onshape_metadata"
    ],
    "materials": [
        {
            "doubleSided": true,
            "name": "0.231373_0.380392_0.705882_0.000000_0.000000",
            "pbrMetallicRoughness": {
                "baseColorFactor": [
                    0.23137255012989044,
                    0.3803921639919281,
                    0.7058823704719543,
                    1.0
                ],
                "metallicFactor": 0.0
            }
        },
        {
            "doubleSided": true,
            "name": "0.615686_0.811765_0.929412_0.000000_0.000000",
            "pbrMetallicRoughness": {
                "baseColorFactor": [
                    0.615686297416687,
                    0.8117647171020508,
                    0.929411768913269,
                    1.0
                ],
                "metallicFactor": 0.0
            }
        },
        {
            "doubleSided": true,
            "name": "0.647059_0.647059_0.647059_0.000000_0.000000",
            "pbrMetallicRoughness": {
                "baseColorFactor": [
                    0.6470588445663452,
                    0.6470588445663452,
                    0.6470588445663452,
                    1.0
                ],
                "metallicFactor": 0.0
            }
        }
    ],
    "meshes": [
        {
            "name": "mesh85_mesh",
            "primitives": [
                {
                    "attributes": {
                        "NORMAL": 1,
                        "POSITION": 0
                    },
                    "indices": 2,
                    "material": 2
                }
            ]
        },
        {
            "name": "mesh86_mesh",
            "primitives": [
                {
                    "attributes": {
                        "NORMAL": 4,
                        "POSITION": 3
                    },
                    "indices": 5,
                    "material": 2
                }
            ]
        },
        {
            "name": "mesh87_mesh",
            "primitives": [
                {
                    "attributes": {
                        "NORMAL": 7,
                        "POSITION": 6
                    },
                    "indices": 8,
                    "material": 2
                }
            ]
        },
        {
            "name": "mesh88_mesh",
            "primitives": [
                {
                    "attributes": {
                        "NORMAL": 10,
                        "POSITION": 9
                    },
                    "indices": 11,
                    "material": 2
                }
            ]
        },
        {
            "name": "mesh89_mesh",
            "primitives": [
                {
                    "attributes": {
                        "NORMAL": 13,
                        "POSITION": 12
                    },
                    "indices": 14,
                    "material": 2
                }
            ]
        },
        {
            "name": "mesh90_mesh",
            "primitives": [
                {
                    "attributes": {
                        "NORMAL": 16,
                        "POSITION": 15
                    },
                    "indices": 17,
                    "material": 2
                }
            ]
        },
        {
            "name": "mesh91_mesh",
            "primitives": [
                {
                    "attributes": {
                        "NORMAL": 19,
                        "POSITION": 18
                    },
                    "indices": 20,
                    "material": 2
                }
            ]
        },
        {
            "name": "mesh92_mesh",
            "primitives": [
                {
                    "attributes": {
                        "NORMAL": 22,
                        "POSITION": 21
                    },
                    "indices": 23,
                    "material": 2
                }
            ]
        },
        {
            "name": "mesh93_mesh",
            "primitives": [
                {
                    "attributes": {
                        "NORMAL": 25,
                        "POSITION": 24
                    },
                    "indices": 26,
                    "material": 2
                }
            ]
        },
        {
            "name": "mesh94_mesh",
            "primitives": [
                {
                    "attributes": {
                        "NORMAL": 28,
                        "POSITION": 27
                    },
                    "indices": 29,
                    "material": 2
                }
            ]
        },
        {
            "name": "mesh95_mesh",
            "primitives": [
                {
                    "attributes": {
                        "NORMAL": 31,
                        "POSITION": 30
                    },
                    "indices": 32,
                    "material": 2
                }
            ]
        },
        {
            "name": "mesh96_mesh",
            "primitives": [
                {
                    "attributes": {
                        "NORMAL": 34,
                        "POSITION": 33
                    },
                    "indices": 35,
                    "material": 2
                }
            ]
        },
        {
            "name": "mesh97_mesh",
            "primitives": [
                {
                    "attributes": {
                        "NORMAL": 37,
                        "POSITION": 36
                    },
                    "indices": 38,
                    "material": 2
                }
            ]
        },
        {
            "name": "mesh98_mesh",
            "primitives": [
                {
                    "attributes": {
                        "NORMAL": 40,
                        "POSITION": 39
                    },
                    "indices": 41,
                    "material": 2
                }
            ]
        },
        {
            "name": "mesh99_mesh",
            "primitives": [
                {
                    "attributes": {
                        "NORMAL": 43,
                        "POSITION": 42
                    },
                    "indices": 44,
                    "material": 2
                }
            ]
        },
        {
            "name": "mesh100_mesh",
            "primitives": [
                {
                    "attributes": {
                        "NORMAL": 46,
                        "POSITION": 45
                    },
                    "indices": 47,
                    "material": 2
                }
            ]
        },
        {
            "name": "mesh101_mesh",
            "primitives": [
                {
                    "attributes": {
                        "NORMAL": 49,
                        "POSITION": 48
                    },
                    "indices": 50,
                    "material": 2
                }
            ]
        },
        {
            "name": "mesh102_mesh",
            "primitives": [
                {
                    "attributes": {
                        "NORMAL": 52,
                        "POSITION": 51
                    },
                    "indices": 53,
                    "material": 2
                }
            ]
        },
        {
            "name": "mesh103_mesh",
            "primitives": [
                {
                    "attributes": {
                        "NORMAL": 55,
                        "POSITION": 54
                    },
                    "indices": 56,
                    "material": 2
                }
            ]
        },
        {
            "name": "mesh104_mesh",
            "primitives": [
                {
                    "attributes": {
                        "NORMAL": 58,
                        "POSITION": 57
                    },
                    "indices": 59,
                    "material": 2
                }
            ]
        },
        {
            "name": "mesh105_mesh",
            "primitives": [
                {
                    "attributes": {
                        "NORMAL": 61,
                        "POSITION": 60
                    },
                    "indices": 62,
                    "material": 2
                }
            ]
        },
        {
            "name": "mesh106_mesh",
            "primitives": [
                {
                    "attributes": {
                        "NORMAL": 64,
                        "POSITION": 63
                    },
                    "indices": 65,
                    "material": 2
                }
            ]
        },
        {
            "name": "mesh107_mesh",
            "primitives": [
                {
                    "attributes": {
                        "NORMAL": 67,
                        "POSITION": 66
                    },
                    "indices": 68,
                    "material": 2
                }
            ]
        },
        {
            "name": "mesh108_mesh",
            "primitives": [
                {
                    "attributes": {
                        "NORMAL": 70,
                        "POSITION": 69
                    },
                    "indices": 71,
                    "material": 2
                }
            ]
        },
        {
            "name": "mesh109_mesh",
            "primitives": [
                {
                    "attributes": {
                        "NORMAL": 73,
                        "POSITION": 72
                    },
                    "indices": 74,
                    "material": 2
                }
            ]
        },
        {
            "name": "mesh110_mesh",
            "primitives": [
                {
                    "attributes": {
                        "NORMAL": 76,
                        "POSITION": 75
                    },
                    "indices": 77,
                    "material": 2
                }
            ]
        },
        {
            "name": "mesh111_mesh",
            "primitives": [
                {
                    "attributes": {
                        "NORMAL": 79,
                        "POSITION": 78
                    },
                    "indices": 80,
                    "material": 2
                }
            ]
        },
        {
            "name": "mesh112_mesh",
            "primitives": [
                {
                    "attributes": {
                        "NORMAL": 82,
                        "POSITION": 81
                    },
                    "indices": 83,
                    "material": 2
                }
            ]
        },
        {
            "name": "mesh113_mesh",
            "primitives": [
                {
                    "attributes": {
                        "NORMAL": 85,
                        "POSITION": 84
                    },
                    "indices": 86,
                    "material": 2
                }
            ]
        },
        {
            "name": "mesh114_mesh",
            "primitives": [
                {
                    "attributes": {
                        "NORMAL": 88,
                        "POSITION": 87
                    },
                    "indices": 89,
                    "material": 2
                }
            ]
        },
        {
            "name": "mesh115_mesh",
            "primitives": [
                {
                    "attributes": {
                        "NORMAL": 91,
                        "POSITION": 90
                    },
                    "indices": 92,
                    "material": 2
                }
            ]
        },
        {
            "name": "mesh116_mesh",
            "primitives": [
                {
                    "attributes": {
                        "NORMAL": 94,
                        "POSITION": 93
                    },
                    "indices": 95,
                    "material": 2
                }
            ]
        },
        {
            "name": "mesh117_mesh",
            "primitives": [
                {
                    "attributes": {
                        "NORMAL": 97,
                        "POSITION": 96
                    },
                    "indices": 98,
                    "material": 2
                }
            ]
        },
        {
            "name": "mesh118_mesh",
            "primitives": [
                {
                    "attributes": {
                        "NORMAL": 100,
                        "POSITION": 99
                    },
                    "indices": 101,
                    "material": 2
                }
            ]
        },
        {
            "name": "mesh119_mesh",
            "primitives": [
                {
                    "attributes": {
                        "NORMAL": 103,
                        "POSITION": 102
                    },
                    "indices": 104,
                    "material": 2
                }
            ]
        },
        {
            "name": "mesh120_mesh",
            "primitives": [
                {
                    "attributes": {
                        "NORMAL": 106,
                        "POSITION": 105
                    },
                    "indices": 107,
                    "material": 2
                }
            ]
        },
        {
            "name": "mesh121_mesh",
            "primitives": [
                {
                    "attributes": {
                        "NORMAL": 109,
                        "POSITION": 108
                    },
                    "indices": 110,
                    "material": 2
                }
            ]
        },
        {
            "name": "mesh122_mesh",
            "primitives": [
                {
                    "attributes": {
                        "NORMAL": 112,
                        "POSITION": 111
                    },
                    "indices": 113,
                    "material": 2
                }
            ]
        }
    ],
    "nodes": [
        {
            "mesh": 0,
            "name": "mesh85"
        },
        {
            "mesh": 1,
            "name": "mesh86"
        },
        {
            "mesh": 2,
            "name": "mesh87"
        },
        {
            "mesh": 3,
            "name": "mesh88"
        },
        {
            "mesh": 4,
            "name": "mesh89"
        },
        {
            "mesh": 5,
            "name": "mesh90"
        },
        {
            "mesh": 6,
            "name": "mesh91"
        },
        {
            "mesh": 7,
            "name": "mesh92"
        },
        {
            "mesh": 8,
            "name": "mesh93"
        },
        {
            "mesh": 9,
            "name": "mesh94"
        },
        {
            "mesh": 10,
            "name": "mesh95"
        },
        {
            "mesh": 11,
            "name": "mesh96"
        },
        {
            "mesh": 12,
            "name": "mesh97"
        },
        {
            "mesh": 13,
            "name": "mesh98"
        },
        {
            "mesh": 14,
            "name": "mesh99"
        },
        {
            "mesh": 15,
            "name": "mesh100"
        },
        {
            "mesh": 16,
            "name": "mesh101"
        },
        {
            "mesh": 17,
            "name": "mesh102"
        },
        {
            "mesh": 18,
            "name": "mesh103"
        },
        {
            "mesh": 19,
            "name": "mesh104"
        },
        {
            "mesh": 20,
            "name": "mesh105"
        },
        {
            "mesh": 21,
            "name": "mesh106"
        },
        {
            "mesh": 22,
            "name": "mesh107"
        },
        {
            "mesh": 23,
            "name": "mesh108"
        },
        {
            "mesh": 24,
            "name": "mesh109"
        },
        {
            "mesh": 25,
            "name": "mesh110"
        },
        {
            "mesh": 26,
            "name": "mesh111"
        },
        {
            "mesh": 27,
            "name": "mesh112"
        },
        {
            "mesh": 28,
            "name": "mesh113"
        },
        {
            "mesh": 29,
            "name": "mesh114"
        },
        {
            "mesh": 30,
            "name": "mesh115"
        },
        {
            "mesh": 31,
            "name": "mesh116"
        },
        {
            "mesh": 32,
            "name": "mesh117"
        },
        {
            "mesh": 33,
            "name": "mesh118"
        },
        {
            "mesh": 34,
            "name": "mesh119"
        },
        {
            "mesh": 35,
            "name": "mesh120"
        },
        {
            "mesh": 36,
            "name": "mesh121"
        },
        {
            "mesh": 37,
            "name": "mesh122"
        }
    ],
    "scene": 0,
    "scenes": [
        {
            "name": "Root",
            "nodes": [
                0,
                1,
                2,
                3,
                4,
                5,
                6,
                7,
                8,
                9,
                10,
                11,
                12,
                13,
                14,
                15,
                16,
                17,
                18,
                19,
                20,
                21,
                22,
                23,
                24,
                25,
                26,
                27,
                28,
                29,
                30,
                31,
                32,
                33,
                34,
                35,
                36,
                37
            ]
        }
    ]
}