{
    "accessors": [
        {
            "bufferView": 0,
            "componentType": 5126,
            "count": 116,
            "max": [
                0.002496333559975028,
                0.1589587777853012,
                0.0024999999441206455
            ],
            "min": [
                -0.002496333559975028,
                0.15240000188350677,
                -0.0024999999441206455
            ],
            "name": "mesh38_coord_accessor",
            "type": "VEC3"
        },
        {
            "bufferView": 1,
            "componentType": 5126,
            "count": 116,
            "max": [
                0.9344205260276794,
                0.35617172718048096,
                0.9344205260276794
            ],
            "min": [
                -0.9344205260276794,
                0.35617172718048096,
                -0.9344205260276794
            ],
            "name": "mesh38_norm_accessor",
            "type": "VEC3"
        },
        {
            "bufferView": 2,
            "componentType": 5125,
            "count": 174,
            "max": [
                115
            ],
            "min": [
                0
            ],
            "name": "mesh38_idx_accessor",
            "type": "SCALAR"
        },
        {
            "bufferView": 3,
            "componentType": 5126,
            "count": 117,
            "max": [
                0.0024999999441206455,
                0.15240000188350677,
                0.0024999999441206455
            ],
            "min": [
                -0.002496333559975028,
                -0.15240000188350677,
                -0.0024999999441206455
            ],
            "name": "mesh39_coord_accessor",
            "type": "VEC3"
        },
        {
            "bufferView": 4,
            "componentType": 5126,
            "count": 117,
            "max": [
                1.0,
                0.0,
                1.0
            ],
            "min": [
                -0.9985334277153015,
                0.0,
                -1.0
            ],
            "name": "mesh39_norm_accessor",
            "type": "VEC3"
        },
        {
            "bufferView": 5,
            "componentType": 5125,
            "count": 351,
            "max": [
                116
            ],
            "min": [
                0
            ],
            "name": "mesh39_idx_accessor",
            "type": "SCALAR"
        },
        {
            "bufferView": 6,
            "componentType": 5126,
            "count": 118,
            "max": [
                0.0024999999441206455,
                -0.15240000188350677,
                0.0024999999441206455
            ],
            "min": [
                -0.002496333559975028,
                -0.1589587777853012,
                -0.0024999999441206455
            ],
            "name": "mesh40_coord_accessor",
            "type": "VEC3"
        },
        {
            "bufferView": 7,
            "componentType": 5126,
            "count": 118,
            "max": [
                0.9344205260276794,
                -0.35617172718048096,
                0.9344205260276794
            ],
            "min": [
                -0.9344205260276794,
                -0.35617172718048096,
                -0.9344205260276794
            ],
            "name": "mesh40_norm_accessor",
            "type": "VEC3"
        },
        {
            "bufferView": 8,
            "componentType": 5125,
            "count": 177,
            "max": [
                117
            ],
            "min": [
                0
            ],
            "name": "mesh40_idx_accessor",
            "type": "SCALAR"
        }
    ],
    "asset": {
        "generator": "ONSHAPE BY PTC INC, 1.221",
        "version": "2.0"
    },
    "bufferViews": [
        {
            "buffer": 0,
            "byteLength": 1392,
            "name": "mesh38_coord_bufferView",
            "target": 34962
        },
        {
            "buffer": 0,
            "byteLength": 1392,
            "byteOffset": 1392,
            "name": "mesh38_norm_bufferView",
            "target": 34962
        },
        {
            "buffer": 0,
            "byteLength": 696,
            "byteOffset": 2784,
            "name": "mesh38_idx_bufferView",
            "target": 34963
        },
        {
            "buffer": 0,
            "byteLength": 1404,
            "byteOffset": 3480,
            "name": "mesh39_coord_bufferView",
            "target": 34962
        },
        {
            "buffer": 0,
            "byteLength": 1404,
            "byteOffset": 4884,
            "name": "mesh39_norm_bufferView",
            "target": 34962
        },
        {
            "buffer": 0,
            "byteLength": 1404,
            "byteOffset": 6288,
            "name": "mesh39_idx_bufferView",
            "target": 34963
        },
        {
            "buffer": 0,
            "byteLength": 1416,
            "byteOffset": 7692,
            "name": "mesh40_coord_bufferView",
            "target": 34962
        },
        {
            "buffer": 0,
            "byteLength": 1416,
            "byteOffset": 9108,
            "name": "mesh40_norm_bufferView",
            "target": 34962
        },
        {
            "buffer": 0,
            "byteLength": 708,
            "byteOffset": 10524,
            "name": "mesh40_idx_bufferView",
            "target": 34963
        }
    ],
    "buffers": [
        {
            "byteLength": 11232,
            "name": "Total_buffer",
            "uri": "data:application/octet-stream;base64,"
        }
    ],
    "extensionsUsed": [
        "PTC_onshape_metadata"
    ],
    "materials": [
        {
            "doubleSided": true,
            "name": "0.231373_0.380392_0.705882_0.000000_0.000000",
            "pbrMetallicRoughness": {
                "baseColorFactor": [
                    0.23137255012989044,
                    0.3803921639919281,
                    0.7058823704719543,
                    1.0
                ],
                "metallicFactor": 0.0
            }
        },
        {
            "doubleSided": true,
            "name": "0.615686_0.811765_0.929412_0.000000_0.000000",
            "pbrMetallicRoughness": {
                "baseColorFactor": [
                    0.615686297416687,
                    0.8117647171020508,
                    0.929411768913269,
                    1.0
                ],
                "metallicFactor": 0.0
            }
        },
        {
            "doubleSided": true,
            "name": "0.647059_0.647059_0.647059_0.000000_0.000000",
            "pbrMetallicRoughness": {
                "baseColorFactor": [
                    0.6470588445663452,
                    0.6470588445663452,
                    0.6470588445663452,
                    1.0
                ],
                "metallicFactor": 0.0
            }
        }
    ],
    "meshes": [
        {
            "name": "mesh38_mesh",
            "primitives": [
                {
                    "attributes": {
                        "NORMAL": 1,
                        "POSITION": 0
                    },
                    "indices": 2,
                    "material": 1
                }
            ]
        },
        {
            "name": "mesh39_mesh",
            "primitives": [
                {
                    "attributes": {
                        "NORMAL": 4,
                        "POSITION": 3
                    },
                    "indices": 5,
                    "material": 1
                }
            ]
        },
        {
            "name": "mesh40_mesh",
            "primitives": [
                {
                    "attributes": {
                        "NORMAL": 7,
                        "POSITION": 6
                    },
                    "indices": 8,
                    "material": 1
                }
            ]
        }
    ],
    "nodes": [
        {
            "mesh": 0,
            "name": "mesh38"
        },
        {
            "mesh": 1,
            "name": "mesh39"
        },
        {
            "mesh": 2,
            "name": "mesh40"
        }
    ],
    "scene": 0,
    "scenes": [
        {
            "name": "Root",
            "nodes": [
                0,
                1,
                2
            ]
        }
    ]
}